%TF.GenerationSoftware,KiCad,Pcbnew,5.1.10-88a1d61d58~90~ubuntu20.04.1*%
%TF.CreationDate,2021-09-24T14:34:36-04:00*%
%TF.ProjectId,VoltageCurrentMeter,566f6c74-6167-4654-9375-7272656e744d,rev?*%
%TF.SameCoordinates,Original*%
%TF.FileFunction,Soldermask,Bot*%
%TF.FilePolarity,Negative*%
%FSLAX46Y46*%
G04 Gerber Fmt 4.6, Leading zero omitted, Abs format (unit mm)*
G04 Created by KiCad (PCBNEW 5.1.10-88a1d61d58~90~ubuntu20.04.1) date 2021-09-24 14:34:36*
%MOMM*%
%LPD*%
G01*
G04 APERTURE LIST*
%ADD10O,2.748280X1.998980*%
%ADD11C,1.600000*%
%ADD12R,1.524000X1.524000*%
%ADD13C,1.524000*%
%ADD14O,1.700000X1.700000*%
%ADD15R,1.700000X1.700000*%
%ADD16O,1.000000X1.250000*%
%ADD17R,1.600000X1.600000*%
%ADD18R,2.600000X2.600000*%
%ADD19C,2.600000*%
%ADD20O,1.600000X1.600000*%
G04 APERTURE END LIST*
D10*
%TO.C,U1*%
X91757120Y-85006180D03*
X91757120Y-87546180D03*
X91757120Y-90086180D03*
X91757120Y-92626180D03*
X91757120Y-95166180D03*
X91757120Y-97706180D03*
X91757120Y-100246180D03*
X106921680Y-100246180D03*
X106921680Y-97706180D03*
X106921680Y-95166180D03*
X106921680Y-92626180D03*
X106921680Y-90086180D03*
X106921680Y-87546180D03*
X106921680Y-85006180D03*
%TD*%
D11*
%TO.C,REF\u002A\u002A*%
X61391800Y-115976400D03*
%TD*%
%TO.C,REF\u002A\u002A*%
X58851800Y-115976400D03*
%TD*%
%TO.C,REF\u002A\u002A*%
X56311800Y-115976400D03*
%TD*%
%TO.C,REF\u002A\u002A*%
X63931800Y-113436400D03*
%TD*%
%TO.C,REF\u002A\u002A*%
X61391800Y-113436400D03*
%TD*%
%TO.C,REF\u002A\u002A*%
X58851800Y-113436400D03*
%TD*%
%TO.C,REF\u002A\u002A*%
X56311800Y-113436400D03*
%TD*%
%TO.C,REF\u002A\u002A*%
X63931800Y-110896400D03*
%TD*%
%TO.C,REF\u002A\u002A*%
X61391800Y-110896400D03*
%TD*%
%TO.C,REF\u002A\u002A*%
X58851800Y-110896400D03*
%TD*%
%TO.C,REF\u002A\u002A*%
X56311800Y-110896400D03*
%TD*%
%TO.C,REF\u002A\u002A*%
X63931800Y-108356400D03*
%TD*%
%TO.C,REF\u002A\u002A*%
X61391800Y-108356400D03*
%TD*%
%TO.C,REF\u002A\u002A*%
X58851800Y-108356400D03*
%TD*%
%TO.C,REF\u002A\u002A*%
X63931800Y-105816400D03*
%TD*%
%TO.C,REF\u002A\u002A*%
X61391800Y-105816400D03*
%TD*%
%TO.C,REF\u002A\u002A*%
X58851800Y-105816400D03*
%TD*%
%TO.C,REF\u002A\u002A*%
X63931800Y-103276400D03*
%TD*%
%TO.C,REF\u002A\u002A*%
X61391800Y-103276400D03*
%TD*%
%TO.C,REF\u002A\u002A*%
X58851800Y-103276400D03*
%TD*%
%TO.C,REF\u002A\u002A*%
X63931800Y-100736400D03*
%TD*%
%TO.C,REF\u002A\u002A*%
X61391800Y-100736400D03*
%TD*%
%TO.C,REF\u002A\u002A*%
X58851800Y-100736400D03*
%TD*%
%TO.C,REF\u002A\u002A*%
X66471800Y-98196400D03*
%TD*%
%TO.C,REF\u002A\u002A*%
X63931800Y-98196400D03*
%TD*%
%TO.C,REF\u002A\u002A*%
X61391800Y-98196400D03*
%TD*%
%TO.C,REF\u002A\u002A*%
X58851800Y-98196400D03*
%TD*%
%TO.C,REF\u002A\u002A*%
X66471800Y-95656400D03*
%TD*%
%TO.C,REF\u002A\u002A*%
X63931800Y-95656400D03*
%TD*%
%TO.C,REF\u002A\u002A*%
X61391800Y-95656400D03*
%TD*%
%TO.C,REF\u002A\u002A*%
X58851800Y-95656400D03*
%TD*%
%TO.C,REF\u002A\u002A*%
X66471800Y-93116400D03*
%TD*%
%TO.C,REF\u002A\u002A*%
X63931800Y-93116400D03*
%TD*%
%TO.C,REF\u002A\u002A*%
X61391800Y-93116400D03*
%TD*%
%TO.C,REF\u002A\u002A*%
X58851800Y-93116400D03*
%TD*%
%TO.C,REF\u002A\u002A*%
X66471800Y-90576400D03*
%TD*%
%TO.C,REF\u002A\u002A*%
X63931800Y-90576400D03*
%TD*%
%TO.C,REF\u002A\u002A*%
X61391800Y-90576400D03*
%TD*%
%TO.C,REF\u002A\u002A*%
X58851800Y-90576400D03*
%TD*%
%TO.C,REF\u002A\u002A*%
X66471800Y-88036400D03*
%TD*%
%TO.C,REF\u002A\u002A*%
X63931800Y-88036400D03*
%TD*%
%TO.C,REF\u002A\u002A*%
X61391800Y-88036400D03*
%TD*%
%TO.C,REF\u002A\u002A*%
X58851800Y-88036400D03*
%TD*%
%TO.C,REF\u002A\u002A*%
X66471800Y-85496400D03*
%TD*%
%TO.C,REF\u002A\u002A*%
X63931800Y-85496400D03*
%TD*%
%TO.C,REF\u002A\u002A*%
X61391800Y-85496400D03*
%TD*%
%TO.C,REF\u002A\u002A*%
X58851800Y-85496400D03*
%TD*%
D12*
%TO.C,U2*%
X111257200Y-106607800D03*
D13*
X111257200Y-104067800D03*
X111257200Y-101527800D03*
X111257200Y-98987800D03*
D12*
X53757200Y-90297800D03*
D13*
X53757200Y-92837800D03*
X53757200Y-95377800D03*
X53757200Y-97917800D03*
X53757200Y-100457800D03*
X53757200Y-102997800D03*
X53757200Y-105537800D03*
X53757200Y-108077800D03*
X53757200Y-110617800D03*
X53757200Y-113157800D03*
X53757200Y-115697800D03*
%TD*%
D14*
%TO.C,J12*%
X70485000Y-114223800D03*
X70485000Y-111683800D03*
X70485000Y-109143800D03*
X70485000Y-106603800D03*
X70485000Y-104063800D03*
X70485000Y-101523800D03*
X70485000Y-98983800D03*
X70485000Y-96443800D03*
X70485000Y-93903800D03*
X70485000Y-91363800D03*
X70485000Y-88823800D03*
D15*
X70485000Y-86283800D03*
%TD*%
D14*
%TO.C,J10*%
X75946000Y-91338400D03*
X75946000Y-88798400D03*
D15*
X75946000Y-86258400D03*
%TD*%
D14*
%TO.C,J11*%
X75895200Y-104444800D03*
X75895200Y-101904800D03*
X75895200Y-99364800D03*
D15*
X75895200Y-96824800D03*
%TD*%
D16*
%TO.C,J8*%
X107926000Y-118692400D03*
X104926000Y-118692400D03*
X106426000Y-118692400D03*
%TD*%
%TO.C,J7*%
X101118800Y-118692400D03*
X98118800Y-118692400D03*
X99618800Y-118692400D03*
%TD*%
%TO.C,J6*%
X94311600Y-118692400D03*
X91311600Y-118692400D03*
X92811600Y-118692400D03*
%TD*%
%TO.C,J5*%
X87504400Y-118692400D03*
X84504400Y-118692400D03*
X86004400Y-118692400D03*
%TD*%
%TO.C,J4*%
X80697200Y-118692400D03*
X77697200Y-118692400D03*
X79197200Y-118692400D03*
%TD*%
%TO.C,J3*%
X73890000Y-118692400D03*
X70890000Y-118692400D03*
X72390000Y-118692400D03*
%TD*%
%TO.C,J2*%
X65532000Y-118692400D03*
X64032000Y-118692400D03*
X67032000Y-118692400D03*
%TD*%
%TO.C,J1*%
X60174000Y-118692400D03*
X57174000Y-118692400D03*
X58674000Y-118692400D03*
%TD*%
D11*
%TO.C,C1*%
X79552800Y-110105200D03*
X79552800Y-105105200D03*
%TD*%
%TO.C,C2*%
X82854800Y-115163600D03*
X82854800Y-110163600D03*
%TD*%
%TO.C,C3*%
X87833200Y-103835200D03*
X87833200Y-98835200D03*
%TD*%
D17*
%TO.C,C4*%
X99314000Y-110286800D03*
D11*
X99314000Y-112786800D03*
%TD*%
D18*
%TO.C,J9*%
X86258400Y-88798400D03*
D19*
X81178400Y-88798400D03*
%TD*%
D20*
%TO.C,R1*%
X104292400Y-105156000D03*
D11*
X94132400Y-105156000D03*
%TD*%
%TO.C,R2*%
X107492800Y-105206800D03*
D20*
X107492800Y-115366800D03*
%TD*%
M02*
