%TF.GenerationSoftware,KiCad,Pcbnew,5.1.10-88a1d61d58~90~ubuntu20.04.1*%
%TF.CreationDate,2021-09-13T14:47:35-04:00*%
%TF.ProjectId,VoltageCurrentMeter,566f6c74-6167-4654-9375-7272656e744d,rev?*%
%TF.SameCoordinates,Original*%
%TF.FileFunction,Copper,L1,Top*%
%TF.FilePolarity,Positive*%
%FSLAX46Y46*%
G04 Gerber Fmt 4.6, Leading zero omitted, Abs format (unit mm)*
G04 Created by KiCad (PCBNEW 5.1.10-88a1d61d58~90~ubuntu20.04.1) date 2021-09-13 14:47:35*
%MOMM*%
%LPD*%
G01*
G04 APERTURE LIST*
%TA.AperFunction,ComponentPad*%
%ADD10C,1.600000*%
%TD*%
%TA.AperFunction,ComponentPad*%
%ADD11R,1.524000X1.524000*%
%TD*%
%TA.AperFunction,ComponentPad*%
%ADD12C,1.524000*%
%TD*%
%TA.AperFunction,ComponentPad*%
%ADD13O,1.700000X1.700000*%
%TD*%
%TA.AperFunction,ComponentPad*%
%ADD14R,1.700000X1.700000*%
%TD*%
%TA.AperFunction,ComponentPad*%
%ADD15O,1.000000X1.250000*%
%TD*%
%TA.AperFunction,SMDPad,CuDef*%
%ADD16C,1.143000*%
%TD*%
%TA.AperFunction,SMDPad,CuDef*%
%ADD17O,1.016000X2.032000*%
%TD*%
%TA.AperFunction,ComponentPad*%
%ADD18O,2.748280X1.998980*%
%TD*%
%TA.AperFunction,SMDPad,CuDef*%
%ADD19R,0.600000X2.200000*%
%TD*%
%TA.AperFunction,SMDPad,CuDef*%
%ADD20R,3.450000X2.150000*%
%TD*%
%TA.AperFunction,ComponentPad*%
%ADD21R,1.600000X1.600000*%
%TD*%
%TA.AperFunction,ComponentPad*%
%ADD22R,2.600000X2.600000*%
%TD*%
%TA.AperFunction,ComponentPad*%
%ADD23C,2.600000*%
%TD*%
%TA.AperFunction,ComponentPad*%
%ADD24O,1.600000X1.600000*%
%TD*%
%TA.AperFunction,ViaPad*%
%ADD25C,0.800000*%
%TD*%
%TA.AperFunction,Conductor*%
%ADD26C,0.350000*%
%TD*%
%TA.AperFunction,Conductor*%
%ADD27C,0.250000*%
%TD*%
G04 APERTURE END LIST*
D10*
%TO.P,REF\u002A\u002A,47*%
%TO.N,N/C*%
X61391800Y-115976400D03*
%TD*%
%TO.P,REF\u002A\u002A,46*%
%TO.N,N/C*%
X58851800Y-115976400D03*
%TD*%
%TO.P,REF\u002A\u002A,45*%
%TO.N,N/C*%
X56311800Y-115976400D03*
%TD*%
%TO.P,REF\u002A\u002A,44*%
%TO.N,N/C*%
X63931800Y-113436400D03*
%TD*%
%TO.P,REF\u002A\u002A,43*%
%TO.N,N/C*%
X61391800Y-113436400D03*
%TD*%
%TO.P,REF\u002A\u002A,42*%
%TO.N,N/C*%
X58851800Y-113436400D03*
%TD*%
%TO.P,REF\u002A\u002A,41*%
%TO.N,N/C*%
X56311800Y-113436400D03*
%TD*%
%TO.P,REF\u002A\u002A,40*%
%TO.N,N/C*%
X63931800Y-110896400D03*
%TD*%
%TO.P,REF\u002A\u002A,39*%
%TO.N,N/C*%
X61391800Y-110896400D03*
%TD*%
%TO.P,REF\u002A\u002A,38*%
%TO.N,N/C*%
X58851800Y-110896400D03*
%TD*%
%TO.P,REF\u002A\u002A,37*%
%TO.N,N/C*%
X56311800Y-110896400D03*
%TD*%
%TO.P,REF\u002A\u002A,36*%
%TO.N,N/C*%
X63931800Y-108356400D03*
%TD*%
%TO.P,REF\u002A\u002A,35*%
%TO.N,N/C*%
X61391800Y-108356400D03*
%TD*%
%TO.P,REF\u002A\u002A,34*%
%TO.N,N/C*%
X58851800Y-108356400D03*
%TD*%
%TO.P,REF\u002A\u002A,33*%
%TO.N,N/C*%
X63931800Y-105816400D03*
%TD*%
%TO.P,REF\u002A\u002A,32*%
%TO.N,N/C*%
X61391800Y-105816400D03*
%TD*%
%TO.P,REF\u002A\u002A,31*%
%TO.N,N/C*%
X58851800Y-105816400D03*
%TD*%
%TO.P,REF\u002A\u002A,30*%
%TO.N,N/C*%
X63931800Y-103276400D03*
%TD*%
%TO.P,REF\u002A\u002A,29*%
%TO.N,N/C*%
X61391800Y-103276400D03*
%TD*%
%TO.P,REF\u002A\u002A,28*%
%TO.N,N/C*%
X58851800Y-103276400D03*
%TD*%
%TO.P,REF\u002A\u002A,27*%
%TO.N,N/C*%
X63931800Y-100736400D03*
%TD*%
%TO.P,REF\u002A\u002A,26*%
%TO.N,N/C*%
X61391800Y-100736400D03*
%TD*%
%TO.P,REF\u002A\u002A,25*%
%TO.N,N/C*%
X58851800Y-100736400D03*
%TD*%
%TO.P,REF\u002A\u002A,24*%
%TO.N,N/C*%
X66471800Y-98196400D03*
%TD*%
%TO.P,REF\u002A\u002A,23*%
%TO.N,N/C*%
X63931800Y-98196400D03*
%TD*%
%TO.P,REF\u002A\u002A,22*%
%TO.N,N/C*%
X61391800Y-98196400D03*
%TD*%
%TO.P,REF\u002A\u002A,21*%
%TO.N,N/C*%
X58851800Y-98196400D03*
%TD*%
%TO.P,REF\u002A\u002A,20*%
%TO.N,N/C*%
X66471800Y-95656400D03*
%TD*%
%TO.P,REF\u002A\u002A,19*%
%TO.N,N/C*%
X63931800Y-95656400D03*
%TD*%
%TO.P,REF\u002A\u002A,18*%
%TO.N,N/C*%
X61391800Y-95656400D03*
%TD*%
%TO.P,REF\u002A\u002A,17*%
%TO.N,N/C*%
X58851800Y-95656400D03*
%TD*%
%TO.P,REF\u002A\u002A,16*%
%TO.N,N/C*%
X66471800Y-93116400D03*
%TD*%
%TO.P,REF\u002A\u002A,15*%
%TO.N,N/C*%
X63931800Y-93116400D03*
%TD*%
%TO.P,REF\u002A\u002A,14*%
%TO.N,N/C*%
X61391800Y-93116400D03*
%TD*%
%TO.P,REF\u002A\u002A,13*%
%TO.N,N/C*%
X58851800Y-93116400D03*
%TD*%
%TO.P,REF\u002A\u002A,12*%
%TO.N,N/C*%
X66471800Y-90576400D03*
%TD*%
%TO.P,REF\u002A\u002A,11*%
%TO.N,N/C*%
X63931800Y-90576400D03*
%TD*%
%TO.P,REF\u002A\u002A,10*%
%TO.N,N/C*%
X61391800Y-90576400D03*
%TD*%
%TO.P,REF\u002A\u002A,9*%
%TO.N,N/C*%
X58851800Y-90576400D03*
%TD*%
%TO.P,REF\u002A\u002A,8*%
%TO.N,N/C*%
X66471800Y-88036400D03*
%TD*%
%TO.P,REF\u002A\u002A,7*%
%TO.N,N/C*%
X63931800Y-88036400D03*
%TD*%
%TO.P,REF\u002A\u002A,6*%
%TO.N,N/C*%
X61391800Y-88036400D03*
%TD*%
%TO.P,REF\u002A\u002A,5*%
%TO.N,N/C*%
X58851800Y-88036400D03*
%TD*%
%TO.P,REF\u002A\u002A,4*%
%TO.N,N/C*%
X66471800Y-85496400D03*
%TD*%
%TO.P,REF\u002A\u002A,3*%
%TO.N,N/C*%
X63931800Y-85496400D03*
%TD*%
%TO.P,REF\u002A\u002A,2*%
%TO.N,N/C*%
X61391800Y-85496400D03*
%TD*%
%TO.P,REF\u002A\u002A,1*%
%TO.N,N/C*%
X58851800Y-85496400D03*
%TD*%
D11*
%TO.P,U2,12*%
%TO.N,Net-(U2-Pad12)*%
X111257200Y-106607800D03*
D12*
%TO.P,U2,13*%
%TO.N,Net-(U2-Pad13)*%
X111257200Y-104067800D03*
%TO.P,U2,14*%
%TO.N,Net-(U2-Pad14)*%
X111257200Y-101527800D03*
%TO.P,U2,15*%
%TO.N,Net-(U2-Pad15)*%
X111257200Y-98987800D03*
D11*
%TO.P,U2,1*%
%TO.N,3.3V*%
X53757200Y-90297800D03*
D12*
%TO.P,U2,2*%
%TO.N,GND*%
X53757200Y-92837800D03*
%TO.P,U2,3*%
X53757200Y-95377800D03*
%TO.P,U2,4*%
%TO.N,Net-(U2-Pad4)*%
X53757200Y-97917800D03*
%TO.P,U2,5*%
%TO.N,Net-(U2-Pad5)*%
X53757200Y-100457800D03*
%TO.P,U2,6*%
%TO.N,Net-(U2-Pad6)*%
X53757200Y-102997800D03*
%TO.P,U2,7*%
%TO.N,Net-(U1-Pad8)*%
X53757200Y-105537800D03*
%TO.P,U2,8*%
%TO.N,Net-(U1-Pad10)*%
X53757200Y-108077800D03*
%TO.P,U2,9*%
%TO.N,Net-(U1-Pad2)*%
X53757200Y-110617800D03*
%TO.P,U2,10*%
%TO.N,Net-(U1-Pad1)*%
X53757200Y-113157800D03*
%TO.P,U2,11*%
%TO.N,Net-(U1-Pad3)*%
X53757200Y-115697800D03*
%TD*%
D13*
%TO.P,J12,12*%
%TO.N,Net-(J12-Pad12)*%
X70485000Y-114223800D03*
%TO.P,J12,11*%
%TO.N,Net-(J12-Pad11)*%
X70485000Y-111683800D03*
%TO.P,J12,10*%
%TO.N,Net-(J12-Pad10)*%
X70485000Y-109143800D03*
%TO.P,J12,9*%
%TO.N,Net-(J12-Pad9)*%
X70485000Y-106603800D03*
%TO.P,J12,8*%
%TO.N,Net-(J12-Pad8)*%
X70485000Y-104063800D03*
%TO.P,J12,7*%
%TO.N,Net-(J12-Pad7)*%
X70485000Y-101523800D03*
%TO.P,J12,6*%
%TO.N,Net-(J12-Pad6)*%
X70485000Y-98983800D03*
%TO.P,J12,5*%
%TO.N,Net-(J1-Pad1)*%
X70485000Y-96443800D03*
%TO.P,J12,4*%
%TO.N,Net-(J12-Pad4)*%
X70485000Y-93903800D03*
%TO.P,J12,3*%
%TO.N,Net-(J12-Pad3)*%
X70485000Y-91363800D03*
%TO.P,J12,2*%
%TO.N,3.3V*%
X70485000Y-88823800D03*
D14*
%TO.P,J12,1*%
%TO.N,GND*%
X70485000Y-86283800D03*
%TD*%
D13*
%TO.P,J10,3*%
%TO.N,Net-(C1-Pad1)*%
X75946000Y-91338400D03*
%TO.P,J10,2*%
%TO.N,Net-(J10-Pad2)*%
X75946000Y-88798400D03*
D14*
%TO.P,J10,1*%
%TO.N,Net-(J10-Pad1)*%
X75946000Y-86258400D03*
%TD*%
D13*
%TO.P,J11,4*%
%TO.N,Net-(C1-Pad1)*%
X75895200Y-104444800D03*
%TO.P,J11,3*%
%TO.N,Net-(J10-Pad1)*%
X75895200Y-101904800D03*
%TO.P,J11,2*%
%TO.N,GND*%
X75895200Y-99364800D03*
D14*
%TO.P,J11,1*%
X75895200Y-96824800D03*
%TD*%
D15*
%TO.P,J8,3*%
%TO.N,3.3V*%
X107926000Y-118692400D03*
%TO.P,J8,1*%
%TO.N,Net-(J12-Pad12)*%
X104926000Y-118692400D03*
%TO.P,J8,2*%
%TO.N,GND*%
X106426000Y-118692400D03*
%TD*%
%TO.P,J7,3*%
%TO.N,3.3V*%
X101118800Y-118692400D03*
%TO.P,J7,1*%
%TO.N,Net-(J12-Pad11)*%
X98118800Y-118692400D03*
%TO.P,J7,2*%
%TO.N,GND*%
X99618800Y-118692400D03*
%TD*%
%TO.P,J6,3*%
%TO.N,3.3V*%
X94311600Y-118692400D03*
%TO.P,J6,1*%
%TO.N,Net-(J12-Pad10)*%
X91311600Y-118692400D03*
%TO.P,J6,2*%
%TO.N,GND*%
X92811600Y-118692400D03*
%TD*%
%TO.P,J5,3*%
%TO.N,3.3V*%
X87504400Y-118692400D03*
%TO.P,J5,1*%
%TO.N,Net-(J12-Pad9)*%
X84504400Y-118692400D03*
%TO.P,J5,2*%
%TO.N,GND*%
X86004400Y-118692400D03*
%TD*%
%TO.P,J4,3*%
%TO.N,3.3V*%
X80697200Y-118692400D03*
%TO.P,J4,1*%
%TO.N,Net-(J12-Pad8)*%
X77697200Y-118692400D03*
%TO.P,J4,2*%
%TO.N,GND*%
X79197200Y-118692400D03*
%TD*%
%TO.P,J3,3*%
%TO.N,3.3V*%
X73890000Y-118692400D03*
%TO.P,J3,1*%
%TO.N,Net-(J12-Pad7)*%
X70890000Y-118692400D03*
%TO.P,J3,2*%
%TO.N,GND*%
X72390000Y-118692400D03*
%TD*%
%TO.P,J2,2*%
%TO.N,GND*%
X65532000Y-118692400D03*
%TO.P,J2,1*%
%TO.N,Net-(J12-Pad6)*%
X64032000Y-118692400D03*
%TO.P,J2,3*%
%TO.N,3.3V*%
X67032000Y-118692400D03*
%TD*%
%TO.P,J1,3*%
%TO.N,3.3V*%
X60174000Y-118692400D03*
%TO.P,J1,1*%
%TO.N,Net-(J1-Pad1)*%
X57174000Y-118692400D03*
%TO.P,J1,2*%
%TO.N,GND*%
X58674000Y-118692400D03*
%TD*%
D16*
%TO.P,U1,19*%
%TO.N,Net-(U1-Pad19)*%
X100815203Y-86758213D03*
%TO.P,U1,18*%
%TO.N,Net-(U1-Pad18)*%
X98275203Y-86758213D03*
%TO.P,U1,17*%
%TO.N,Net-(U1-Pad17)*%
X100815203Y-84218213D03*
%TO.P,U1,16*%
%TO.N,Net-(U1-Pad16)*%
X98275203Y-84218213D03*
D17*
%TO.P,U1,15*%
%TO.N,Net-(U1-Pad15)*%
X100826400Y-101222400D03*
%TO.P,U1,14*%
%TO.N,Net-(U1-Pad14)*%
X98276400Y-101222400D03*
D18*
%TO.P,U1,0*%
%TO.N,Net-(J12-Pad3)*%
X91409520Y-84904580D03*
%TO.P,U1,1*%
%TO.N,Net-(U1-Pad1)*%
X91409520Y-87444580D03*
%TO.P,U1,2*%
%TO.N,Net-(U1-Pad2)*%
X91409520Y-89984580D03*
%TO.P,U1,3*%
%TO.N,Net-(U1-Pad3)*%
X91409520Y-92524580D03*
%TO.P,U1,4*%
%TO.N,Net-(U1-Pad4)*%
X91409520Y-95064580D03*
%TO.P,U1,5*%
%TO.N,Net-(U1-Pad5)*%
X91409520Y-97604580D03*
%TO.P,U1,6*%
%TO.N,Net-(U1-Pad6)*%
X91409520Y-100144580D03*
%TO.P,U1,7*%
%TO.N,Net-(U1-Pad7)*%
X107574080Y-100144580D03*
%TO.P,U1,8*%
%TO.N,Net-(U1-Pad8)*%
X107574080Y-97604580D03*
%TO.P,U1,9*%
%TO.N,Net-(J12-Pad4)*%
X107574080Y-95064580D03*
%TO.P,U1,10*%
%TO.N,Net-(U1-Pad10)*%
X107574080Y-92524580D03*
%TO.P,U1,11*%
%TO.N,3.3V*%
X107574080Y-89984580D03*
%TO.P,U1,12*%
%TO.N,GND*%
X107574080Y-87444580D03*
%TO.P,U1,13*%
%TO.N,Net-(U1-Pad13)*%
X107574080Y-84904580D03*
%TD*%
D19*
%TO.P,U4,4*%
%TO.N,Net-(C3-Pad2)*%
X82956400Y-102451500D03*
%TO.P,U4,2*%
%TO.N,3.3V*%
X80416400Y-102451500D03*
D20*
%TO.P,U4,3*%
%TO.N,GND*%
X81686400Y-96151500D03*
D19*
X81686400Y-102451500D03*
%TO.P,U4,5*%
%TO.N,Net-(C1-Pad1)*%
X84226400Y-102451500D03*
%TO.P,U4,1*%
X79146400Y-102451500D03*
%TD*%
D10*
%TO.P,C1,2*%
%TO.N,GND*%
X79552800Y-110105200D03*
%TO.P,C1,1*%
%TO.N,Net-(C1-Pad1)*%
X79552800Y-105105200D03*
%TD*%
%TO.P,C2,1*%
%TO.N,3.3V*%
X82854800Y-115163600D03*
%TO.P,C2,2*%
%TO.N,GND*%
X82854800Y-110163600D03*
%TD*%
%TO.P,C3,1*%
%TO.N,3.3V*%
X87833200Y-103835200D03*
%TO.P,C3,2*%
%TO.N,Net-(C3-Pad2)*%
X87833200Y-98835200D03*
%TD*%
D21*
%TO.P,C4,1*%
%TO.N,3.3V*%
X99314000Y-110286800D03*
D10*
%TO.P,C4,2*%
%TO.N,GND*%
X99314000Y-112786800D03*
%TD*%
D22*
%TO.P,J9,1*%
%TO.N,GND*%
X86258400Y-88798400D03*
D23*
%TO.P,J9,2*%
%TO.N,Net-(J10-Pad2)*%
X81178400Y-88798400D03*
%TD*%
D24*
%TO.P,R1,2*%
%TO.N,Net-(C3-Pad2)*%
X104292400Y-105156000D03*
D10*
%TO.P,R1,1*%
%TO.N,3.3V*%
X94132400Y-105156000D03*
%TD*%
%TO.P,R2,1*%
%TO.N,Net-(C3-Pad2)*%
X107492800Y-105206800D03*
D24*
%TO.P,R2,2*%
%TO.N,GND*%
X107492800Y-115366800D03*
%TD*%
%TO.P,U3,1*%
%TO.N,Net-(J12-Pad9)*%
%TA.AperFunction,SMDPad,CuDef*%
G36*
G01*
X92197600Y-114988200D02*
X92197600Y-115288200D01*
G75*
G02*
X92047600Y-115438200I-150000J0D01*
G01*
X90597600Y-115438200D01*
G75*
G02*
X90447600Y-115288200I0J150000D01*
G01*
X90447600Y-114988200D01*
G75*
G02*
X90597600Y-114838200I150000J0D01*
G01*
X92047600Y-114838200D01*
G75*
G02*
X92197600Y-114988200I0J-150000D01*
G01*
G37*
%TD.AperFunction*%
%TO.P,U3,2*%
%TO.N,Net-(J12-Pad11)*%
%TA.AperFunction,SMDPad,CuDef*%
G36*
G01*
X92197600Y-113718200D02*
X92197600Y-114018200D01*
G75*
G02*
X92047600Y-114168200I-150000J0D01*
G01*
X90597600Y-114168200D01*
G75*
G02*
X90447600Y-114018200I0J150000D01*
G01*
X90447600Y-113718200D01*
G75*
G02*
X90597600Y-113568200I150000J0D01*
G01*
X92047600Y-113568200D01*
G75*
G02*
X92197600Y-113718200I0J-150000D01*
G01*
G37*
%TD.AperFunction*%
%TO.P,U3,3*%
%TO.N,Net-(U1-Pad7)*%
%TA.AperFunction,SMDPad,CuDef*%
G36*
G01*
X92197600Y-112448200D02*
X92197600Y-112748200D01*
G75*
G02*
X92047600Y-112898200I-150000J0D01*
G01*
X90597600Y-112898200D01*
G75*
G02*
X90447600Y-112748200I0J150000D01*
G01*
X90447600Y-112448200D01*
G75*
G02*
X90597600Y-112298200I150000J0D01*
G01*
X92047600Y-112298200D01*
G75*
G02*
X92197600Y-112448200I0J-150000D01*
G01*
G37*
%TD.AperFunction*%
%TO.P,U3,4*%
%TO.N,Net-(J12-Pad12)*%
%TA.AperFunction,SMDPad,CuDef*%
G36*
G01*
X92197600Y-111178200D02*
X92197600Y-111478200D01*
G75*
G02*
X92047600Y-111628200I-150000J0D01*
G01*
X90597600Y-111628200D01*
G75*
G02*
X90447600Y-111478200I0J150000D01*
G01*
X90447600Y-111178200D01*
G75*
G02*
X90597600Y-111028200I150000J0D01*
G01*
X92047600Y-111028200D01*
G75*
G02*
X92197600Y-111178200I0J-150000D01*
G01*
G37*
%TD.AperFunction*%
%TO.P,U3,5*%
%TO.N,Net-(J12-Pad10)*%
%TA.AperFunction,SMDPad,CuDef*%
G36*
G01*
X92197600Y-109908200D02*
X92197600Y-110208200D01*
G75*
G02*
X92047600Y-110358200I-150000J0D01*
G01*
X90597600Y-110358200D01*
G75*
G02*
X90447600Y-110208200I0J150000D01*
G01*
X90447600Y-109908200D01*
G75*
G02*
X90597600Y-109758200I150000J0D01*
G01*
X92047600Y-109758200D01*
G75*
G02*
X92197600Y-109908200I0J-150000D01*
G01*
G37*
%TD.AperFunction*%
%TO.P,U3,6*%
%TO.N,GND*%
%TA.AperFunction,SMDPad,CuDef*%
G36*
G01*
X92197600Y-108638200D02*
X92197600Y-108938200D01*
G75*
G02*
X92047600Y-109088200I-150000J0D01*
G01*
X90597600Y-109088200D01*
G75*
G02*
X90447600Y-108938200I0J150000D01*
G01*
X90447600Y-108638200D01*
G75*
G02*
X90597600Y-108488200I150000J0D01*
G01*
X92047600Y-108488200D01*
G75*
G02*
X92197600Y-108638200I0J-150000D01*
G01*
G37*
%TD.AperFunction*%
%TO.P,U3,7*%
%TA.AperFunction,SMDPad,CuDef*%
G36*
G01*
X92197600Y-107368200D02*
X92197600Y-107668200D01*
G75*
G02*
X92047600Y-107818200I-150000J0D01*
G01*
X90597600Y-107818200D01*
G75*
G02*
X90447600Y-107668200I0J150000D01*
G01*
X90447600Y-107368200D01*
G75*
G02*
X90597600Y-107218200I150000J0D01*
G01*
X92047600Y-107218200D01*
G75*
G02*
X92197600Y-107368200I0J-150000D01*
G01*
G37*
%TD.AperFunction*%
%TO.P,U3,8*%
%TA.AperFunction,SMDPad,CuDef*%
G36*
G01*
X92197600Y-106098200D02*
X92197600Y-106398200D01*
G75*
G02*
X92047600Y-106548200I-150000J0D01*
G01*
X90597600Y-106548200D01*
G75*
G02*
X90447600Y-106398200I0J150000D01*
G01*
X90447600Y-106098200D01*
G75*
G02*
X90597600Y-105948200I150000J0D01*
G01*
X92047600Y-105948200D01*
G75*
G02*
X92197600Y-106098200I0J-150000D01*
G01*
G37*
%TD.AperFunction*%
%TO.P,U3,9*%
%TO.N,Net-(U1-Pad6)*%
%TA.AperFunction,SMDPad,CuDef*%
G36*
G01*
X87047600Y-106098200D02*
X87047600Y-106398200D01*
G75*
G02*
X86897600Y-106548200I-150000J0D01*
G01*
X85447600Y-106548200D01*
G75*
G02*
X85297600Y-106398200I0J150000D01*
G01*
X85297600Y-106098200D01*
G75*
G02*
X85447600Y-105948200I150000J0D01*
G01*
X86897600Y-105948200D01*
G75*
G02*
X87047600Y-106098200I0J-150000D01*
G01*
G37*
%TD.AperFunction*%
%TO.P,U3,10*%
%TO.N,Net-(U1-Pad5)*%
%TA.AperFunction,SMDPad,CuDef*%
G36*
G01*
X87047600Y-107368200D02*
X87047600Y-107668200D01*
G75*
G02*
X86897600Y-107818200I-150000J0D01*
G01*
X85447600Y-107818200D01*
G75*
G02*
X85297600Y-107668200I0J150000D01*
G01*
X85297600Y-107368200D01*
G75*
G02*
X85447600Y-107218200I150000J0D01*
G01*
X86897600Y-107218200D01*
G75*
G02*
X87047600Y-107368200I0J-150000D01*
G01*
G37*
%TD.AperFunction*%
%TO.P,U3,11*%
%TO.N,Net-(U1-Pad4)*%
%TA.AperFunction,SMDPad,CuDef*%
G36*
G01*
X87047600Y-108638200D02*
X87047600Y-108938200D01*
G75*
G02*
X86897600Y-109088200I-150000J0D01*
G01*
X85447600Y-109088200D01*
G75*
G02*
X85297600Y-108938200I0J150000D01*
G01*
X85297600Y-108638200D01*
G75*
G02*
X85447600Y-108488200I150000J0D01*
G01*
X86897600Y-108488200D01*
G75*
G02*
X87047600Y-108638200I0J-150000D01*
G01*
G37*
%TD.AperFunction*%
%TO.P,U3,12*%
%TO.N,Net-(J12-Pad8)*%
%TA.AperFunction,SMDPad,CuDef*%
G36*
G01*
X87047600Y-109908200D02*
X87047600Y-110208200D01*
G75*
G02*
X86897600Y-110358200I-150000J0D01*
G01*
X85447600Y-110358200D01*
G75*
G02*
X85297600Y-110208200I0J150000D01*
G01*
X85297600Y-109908200D01*
G75*
G02*
X85447600Y-109758200I150000J0D01*
G01*
X86897600Y-109758200D01*
G75*
G02*
X87047600Y-109908200I0J-150000D01*
G01*
G37*
%TD.AperFunction*%
%TO.P,U3,13*%
%TO.N,Net-(J1-Pad1)*%
%TA.AperFunction,SMDPad,CuDef*%
G36*
G01*
X87047600Y-111178200D02*
X87047600Y-111478200D01*
G75*
G02*
X86897600Y-111628200I-150000J0D01*
G01*
X85447600Y-111628200D01*
G75*
G02*
X85297600Y-111478200I0J150000D01*
G01*
X85297600Y-111178200D01*
G75*
G02*
X85447600Y-111028200I150000J0D01*
G01*
X86897600Y-111028200D01*
G75*
G02*
X87047600Y-111178200I0J-150000D01*
G01*
G37*
%TD.AperFunction*%
%TO.P,U3,14*%
%TO.N,Net-(J12-Pad6)*%
%TA.AperFunction,SMDPad,CuDef*%
G36*
G01*
X87047600Y-112448200D02*
X87047600Y-112748200D01*
G75*
G02*
X86897600Y-112898200I-150000J0D01*
G01*
X85447600Y-112898200D01*
G75*
G02*
X85297600Y-112748200I0J150000D01*
G01*
X85297600Y-112448200D01*
G75*
G02*
X85447600Y-112298200I150000J0D01*
G01*
X86897600Y-112298200D01*
G75*
G02*
X87047600Y-112448200I0J-150000D01*
G01*
G37*
%TD.AperFunction*%
%TO.P,U3,15*%
%TO.N,Net-(J12-Pad7)*%
%TA.AperFunction,SMDPad,CuDef*%
G36*
G01*
X87047600Y-113718200D02*
X87047600Y-114018200D01*
G75*
G02*
X86897600Y-114168200I-150000J0D01*
G01*
X85447600Y-114168200D01*
G75*
G02*
X85297600Y-114018200I0J150000D01*
G01*
X85297600Y-113718200D01*
G75*
G02*
X85447600Y-113568200I150000J0D01*
G01*
X86897600Y-113568200D01*
G75*
G02*
X87047600Y-113718200I0J-150000D01*
G01*
G37*
%TD.AperFunction*%
%TO.P,U3,16*%
%TO.N,3.3V*%
%TA.AperFunction,SMDPad,CuDef*%
G36*
G01*
X87047600Y-114988200D02*
X87047600Y-115288200D01*
G75*
G02*
X86897600Y-115438200I-150000J0D01*
G01*
X85447600Y-115438200D01*
G75*
G02*
X85297600Y-115288200I0J150000D01*
G01*
X85297600Y-114988200D01*
G75*
G02*
X85447600Y-114838200I150000J0D01*
G01*
X86897600Y-114838200D01*
G75*
G02*
X87047600Y-114988200I0J-150000D01*
G01*
G37*
%TD.AperFunction*%
%TD*%
D25*
%TO.N,GND*%
X81127600Y-96824800D03*
X82245200Y-96824800D03*
X82296000Y-95504000D03*
X81127600Y-95504000D03*
X80467200Y-96164400D03*
X82905600Y-96215200D03*
X81686400Y-96164400D03*
X81737200Y-102514400D03*
X91338400Y-106222800D03*
X91338400Y-107543600D03*
X91338400Y-108813600D03*
%TO.N,3.3V*%
X80416400Y-102565200D03*
X73098937Y-91137463D03*
%TO.N,Net-(U1-Pad7)*%
X91338400Y-112623600D03*
X98069400Y-107137200D03*
%TO.N,Net-(U1-Pad3)*%
X113004600Y-82753200D03*
%TO.N,Net-(U1-Pad2)*%
X52222400Y-83718400D03*
%TO.N,Net-(U1-Pad1)*%
X94371160Y-86969600D03*
X51358800Y-82956400D03*
%TO.N,Net-(C3-Pad2)*%
X82956400Y-102514400D03*
%TO.N,Net-(J12-Pad4)*%
X109397800Y-102870000D03*
X64338200Y-121335800D03*
%TO.N,Net-(J12-Pad9)*%
X91322600Y-115138200D03*
%TO.N,Net-(J12-Pad10)*%
X91313000Y-110058200D03*
%TO.N,Net-(J12-Pad12)*%
X91322600Y-111328200D03*
%TO.N,Net-(J12-Pad11)*%
X91322600Y-113868200D03*
%TD*%
D26*
%TO.N,Net-(C1-Pad1)*%
X79146400Y-99618800D02*
X79146400Y-102451500D01*
D27*
X79248000Y-99517200D02*
X79146400Y-99618800D01*
X83464400Y-99517200D02*
X79248000Y-99517200D01*
X84226400Y-100279200D02*
X83464400Y-99517200D01*
X84226400Y-102451500D02*
X84226400Y-100279200D01*
X79552800Y-105257600D02*
X79552800Y-105460800D01*
D26*
X79146400Y-104698800D02*
X79552800Y-105105200D01*
X79146400Y-102451500D02*
X79146400Y-104698800D01*
X75946000Y-91338400D02*
X77978000Y-91338400D01*
X77978000Y-91338400D02*
X79146400Y-92506800D01*
X79146400Y-92506800D02*
X79146400Y-99618800D01*
X78892400Y-104444800D02*
X79552800Y-105105200D01*
X75895200Y-104444800D02*
X78892400Y-104444800D01*
D27*
%TO.N,3.3V*%
X67056000Y-118770000D02*
X67082800Y-118743200D01*
X73914000Y-118767200D02*
X73890000Y-118743200D01*
X87504400Y-118743200D02*
X87477600Y-118770000D01*
X101118800Y-118743200D02*
X101092000Y-118770000D01*
X87477600Y-118716400D02*
X87504400Y-118743200D01*
X86147200Y-115163600D02*
X86172600Y-115138200D01*
D26*
X82854800Y-115163600D02*
X86147200Y-115163600D01*
X75922400Y-118743200D02*
X73890000Y-118743200D01*
X79502000Y-115163600D02*
X75922400Y-118743200D01*
X82854800Y-115163600D02*
X79502000Y-115163600D01*
X94132400Y-102565200D02*
X94132400Y-105156000D01*
X106713020Y-89984580D02*
X94132400Y-102565200D01*
X107675680Y-89984580D02*
X106713020Y-89984580D01*
X99263200Y-110286800D02*
X94132400Y-105156000D01*
D27*
X99314000Y-110286800D02*
X99263200Y-110286800D01*
X60174000Y-118692400D02*
X60161607Y-118704793D01*
D26*
X74041000Y-107848400D02*
X73101200Y-106908600D01*
X80695800Y-107848400D02*
X74041000Y-107848400D01*
X81508600Y-107035600D02*
X80695800Y-107848400D01*
D27*
X73101200Y-91139726D02*
X73098937Y-91137463D01*
D26*
X81508600Y-104597200D02*
X81508600Y-107035600D01*
X80416400Y-103505000D02*
X81508600Y-104597200D01*
X73101200Y-106908600D02*
X73101200Y-91139726D01*
D27*
X80416400Y-102565200D02*
X80416400Y-103505000D01*
D26*
X101092000Y-118770000D02*
X101041200Y-120421400D01*
X94234000Y-120345200D02*
X94157800Y-120421400D01*
X94234000Y-118820800D02*
X94234000Y-120345200D01*
X94311600Y-118743200D02*
X94234000Y-118820800D01*
X87477600Y-120294400D02*
X87604600Y-120421400D01*
X87477600Y-118770000D02*
X87477600Y-120294400D01*
X67005200Y-118820800D02*
X67056000Y-118770000D01*
X67005200Y-120319800D02*
X67005200Y-118820800D01*
X67106800Y-120421400D02*
X67005200Y-120319800D01*
X107926000Y-119912000D02*
X107926000Y-118743200D01*
X107416600Y-120421400D02*
X107926000Y-119912000D01*
X61878214Y-120421400D02*
X107416600Y-120421400D01*
X60161607Y-118704793D02*
X61878214Y-120421400D01*
X73888600Y-120421400D02*
X73914000Y-118767200D01*
X80695800Y-120421400D02*
X80697200Y-118743200D01*
D27*
%TO.N,Net-(J1-Pad1)*%
X72263000Y-96621600D02*
X72186800Y-115824000D01*
X72085200Y-96443800D02*
X72263000Y-96621600D01*
X70485000Y-96443800D02*
X72085200Y-96443800D01*
X86096400Y-111404400D02*
X86172600Y-111328200D01*
X75717400Y-115849400D02*
X80162400Y-111404400D01*
X64820800Y-115849400D02*
X75717400Y-115849400D01*
X63347600Y-117322600D02*
X64820800Y-115849400D01*
X57785000Y-117322600D02*
X63347600Y-117322600D01*
X57275600Y-117832000D02*
X57785000Y-117322600D01*
X80162400Y-111404400D02*
X86096400Y-111404400D01*
X57275600Y-118743200D02*
X57275600Y-117832000D01*
%TO.N,Net-(U1-Pad10)*%
X55218800Y-108077800D02*
X53757200Y-108077800D01*
X56337200Y-106959400D02*
X55218800Y-108077800D01*
X57531000Y-83286600D02*
X56337200Y-84480400D01*
X56337200Y-84480400D02*
X56337200Y-106959400D01*
X110007400Y-84277200D02*
X109016800Y-83286600D01*
X109016800Y-83286600D02*
X57531000Y-83286600D01*
X109227620Y-92524580D02*
X110007400Y-91744800D01*
X110007400Y-91744800D02*
X110007400Y-84277200D01*
X107574080Y-92524580D02*
X109227620Y-92524580D01*
%TO.N,Net-(U1-Pad8)*%
X57150000Y-82524600D02*
X55676800Y-83997800D01*
X55676800Y-104470200D02*
X54609200Y-105537800D01*
X110642400Y-83870800D02*
X109296200Y-82524600D01*
X110642400Y-96850200D02*
X110642400Y-83870800D01*
X55676800Y-83997800D02*
X55676800Y-104470200D01*
X109888020Y-97604580D02*
X110642400Y-96850200D01*
X54609200Y-105537800D02*
X53757200Y-105537800D01*
X109296200Y-82524600D02*
X57150000Y-82524600D01*
X107574080Y-97604580D02*
X109888020Y-97604580D01*
%TO.N,Net-(U1-Pad7)*%
X105062020Y-100144580D02*
X98069400Y-107137200D01*
X107574080Y-100144580D02*
X105062020Y-100144580D01*
%TO.N,Net-(U1-Pad6)*%
X91511120Y-102748080D02*
X88011000Y-106248200D01*
X88011000Y-106248200D02*
X86172600Y-106248200D01*
X91511120Y-100144580D02*
X91511120Y-102748080D01*
%TO.N,Net-(U1-Pad5)*%
X91511120Y-97604580D02*
X90812620Y-97604580D01*
X93184980Y-97604580D02*
X91511120Y-97604580D01*
X93929200Y-98348800D02*
X93184980Y-97604580D01*
X93929200Y-101600000D02*
X93929200Y-98348800D01*
X88011000Y-107518200D02*
X93929200Y-101600000D01*
X86172600Y-107518200D02*
X88011000Y-107518200D01*
%TO.N,Net-(U1-Pad4)*%
X83742390Y-107516790D02*
X85013800Y-108788200D01*
X83742390Y-105233610D02*
X83742390Y-107516790D01*
X85547200Y-103428800D02*
X83742390Y-105233610D01*
X85547200Y-96824800D02*
X85547200Y-103428800D01*
X86614000Y-95758000D02*
X85547200Y-96824800D01*
X85013800Y-108788200D02*
X86172600Y-108788200D01*
X90817700Y-95758000D02*
X86614000Y-95758000D01*
X91511120Y-95064580D02*
X90817700Y-95758000D01*
%TO.N,Net-(U1-Pad3)*%
X53757200Y-121245000D02*
X53757200Y-115697800D01*
X54914800Y-122402600D02*
X53757200Y-121245000D01*
X112522000Y-122402600D02*
X54914800Y-122402600D01*
X113614200Y-121310400D02*
X112522000Y-122402600D01*
X113614200Y-83362800D02*
X113614200Y-121310400D01*
X113004600Y-82753200D02*
X113614200Y-83362800D01*
%TO.N,Net-(U1-Pad2)*%
X91102180Y-89984580D02*
X91511120Y-89984580D01*
X52222400Y-83718400D02*
X52019200Y-83718400D01*
X52426400Y-110617800D02*
X53757200Y-110617800D01*
X51765200Y-109956600D02*
X52426400Y-110617800D01*
X51765200Y-84175600D02*
X51765200Y-109956600D01*
X52222400Y-83718400D02*
X51765200Y-84175600D01*
%TO.N,Net-(U1-Pad1)*%
X90848180Y-87444580D02*
X91511120Y-87444580D01*
X94371160Y-86969600D02*
X94371160Y-86969600D01*
X93896180Y-87444580D02*
X94371160Y-86969600D01*
X91409520Y-87444580D02*
X93896180Y-87444580D01*
X51358800Y-82956400D02*
X51003200Y-83312000D01*
X51003200Y-83312000D02*
X51003200Y-112369600D01*
X51791400Y-113157800D02*
X53757200Y-113157800D01*
X51003200Y-112369600D02*
X51791400Y-113157800D01*
%TO.N,Net-(C3-Pad2)*%
X107442000Y-105156000D02*
X107492800Y-105206800D01*
X104292400Y-105156000D02*
X107442000Y-105156000D01*
%TO.N,Net-(J12-Pad4)*%
X109448600Y-120396000D02*
X109423200Y-102895400D01*
X108508800Y-121335800D02*
X109448600Y-120396000D01*
X64338200Y-121335800D02*
X108508800Y-121335800D01*
%TO.N,Net-(J12-Pad6)*%
X79908400Y-112598200D02*
X86172600Y-112598200D01*
X64922400Y-116636800D02*
X75869800Y-116636800D01*
X64082800Y-117476400D02*
X64922400Y-116636800D01*
X75869800Y-116636800D02*
X79908400Y-112598200D01*
X64082800Y-118238400D02*
X64082800Y-117476400D01*
%TO.N,Net-(J12-Pad7)*%
X71018400Y-117246400D02*
X70890000Y-117374800D01*
X76301600Y-117246400D02*
X71018400Y-117246400D01*
X79679800Y-113868200D02*
X76301600Y-117246400D01*
X70890000Y-117374800D02*
X70890000Y-118692400D01*
X86172600Y-113868200D02*
X79679800Y-113868200D01*
%TO.N,Net-(J12-Pad8)*%
X87350600Y-110058200D02*
X86172600Y-110058200D01*
X87757000Y-110464600D02*
X87350600Y-110058200D01*
X87757000Y-115951000D02*
X87757000Y-110464600D01*
X87172800Y-116535200D02*
X87757000Y-115951000D01*
X77697200Y-118187600D02*
X79349600Y-116535200D01*
X79349600Y-116535200D02*
X87172800Y-116535200D01*
X77697200Y-118743200D02*
X77697200Y-118187600D01*
%TO.N,Net-(J12-Pad10)*%
X91322600Y-110058200D02*
X91313000Y-110058200D01*
X89763600Y-117195200D02*
X91311600Y-118743200D01*
X89763600Y-110642400D02*
X89763600Y-117195200D01*
X90347800Y-110058200D02*
X89763600Y-110642400D01*
X91313000Y-110058200D02*
X90347800Y-110058200D01*
D26*
%TO.N,Net-(J10-Pad2)*%
X75946000Y-88798400D02*
X81178400Y-88798400D01*
%TO.N,Net-(J10-Pad1)*%
X74574400Y-86258400D02*
X75946000Y-86258400D01*
X74066400Y-86766400D02*
X74574400Y-86258400D01*
X74066400Y-101396800D02*
X74066400Y-86766400D01*
X74574400Y-101904800D02*
X74066400Y-101396800D01*
X75895200Y-101904800D02*
X74574400Y-101904800D01*
D27*
%TO.N,Net-(J12-Pad12)*%
X104926000Y-117575200D02*
X104926000Y-118743200D01*
X93243400Y-111328200D02*
X98399600Y-116484400D01*
X103835200Y-116484400D02*
X104926000Y-117575200D01*
X98399600Y-116484400D02*
X103835200Y-116484400D01*
X91322600Y-111328200D02*
X91322600Y-111328200D01*
X91322600Y-111328200D02*
X93243400Y-111328200D01*
%TO.N,Net-(J12-Pad11)*%
X91322600Y-113868200D02*
X91322600Y-113868200D01*
X93141800Y-113868200D02*
X96723200Y-117449600D01*
X96825200Y-117449600D02*
X98118800Y-118743200D01*
X96723200Y-117449600D02*
X96825200Y-117449600D01*
X91322600Y-113868200D02*
X93141800Y-113868200D01*
%TO.N,Net-(J12-Pad3)*%
X72542400Y-85064600D02*
X72542400Y-89306400D01*
X73406000Y-84201000D02*
X72542400Y-85064600D01*
X88493600Y-84201000D02*
X73406000Y-84201000D01*
X89197180Y-84904580D02*
X88493600Y-84201000D01*
X72542400Y-89306400D02*
X70485000Y-91363800D01*
X91409520Y-84904580D02*
X89197180Y-84904580D01*
%TD*%
M02*
