M48
; DRILL file {KiCad 5.1.10-88a1d61d58~90~ubuntu20.04.1} date Sun Sep 12 20:39:40 2021
; FORMAT={-:-/ absolute / inch / decimal}
; #@! TF.CreationDate,2021-09-12T20:39:40-04:00
; #@! TF.GenerationSoftware,Kicad,Pcbnew,5.1.10-88a1d61d58~90~ubuntu20.04.1
; #@! TF.FileFunction,Plated,1,2,PTH
FMAT,2
INCH
T1C0.0157
T2C0.0244
T3C0.0315
T4C0.0354
T5C0.0374
T6C0.0394
T7C0.0512
%
G90
G05
T1
X2.022Y-3.266
X2.056Y-3.296
X2.533Y-4.777
X2.8779Y-3.5881
X3.166Y-4.038
X3.168Y-3.786
X3.194Y-3.76
X3.194Y-3.812
X3.216Y-3.786
X3.218Y-4.036
X3.238Y-3.812
X3.24Y-3.76
X3.264Y-3.788
X3.266Y-4.036
X3.595Y-4.333
X3.5954Y-4.383
X3.5954Y-4.483
X3.5954Y-4.533
X3.596Y-4.182
X3.596Y-4.234
X3.596Y-4.284
X3.596Y-4.434
X3.7154Y-3.424
X3.861Y-4.218
X4.307Y-4.05
X4.449Y-3.258
T2
X2.2509Y-4.6729
X2.31Y-4.6729
X2.3691Y-4.6729
X2.5209Y-4.6729
X2.58Y-4.6729
X2.6391Y-4.6729
X2.7909Y-4.6729
X2.85Y-4.6729
X2.9091Y-4.6729
X3.0589Y-4.6729
X3.118Y-4.6729
X3.1771Y-4.6729
X3.3269Y-4.6729
X3.386Y-4.6729
X3.4451Y-4.6729
X3.5949Y-4.6729
X3.654Y-4.6729
X3.7131Y-4.6729
X3.8629Y-4.6729
X3.922Y-4.6729
X3.9811Y-4.6729
X4.1309Y-4.6729
X4.19Y-4.6729
X4.2491Y-4.6729
T3
X2.217Y-4.366
X2.217Y-4.466
X2.217Y-4.566
X2.317Y-3.366
X2.317Y-3.466
X2.317Y-3.566
X2.317Y-3.666
X2.317Y-3.766
X2.317Y-3.866
X2.317Y-3.966
X2.317Y-4.066
X2.317Y-4.166
X2.317Y-4.266
X2.317Y-4.366
X2.317Y-4.466
X2.317Y-4.566
X2.417Y-3.366
X2.417Y-3.466
X2.417Y-3.566
X2.417Y-3.666
X2.417Y-3.766
X2.417Y-3.866
X2.417Y-3.966
X2.417Y-4.066
X2.417Y-4.166
X2.417Y-4.266
X2.417Y-4.366
X2.417Y-4.466
X2.417Y-4.566
X2.517Y-3.366
X2.517Y-3.466
X2.517Y-3.566
X2.517Y-3.666
X2.517Y-3.766
X2.517Y-3.866
X2.517Y-3.966
X2.517Y-4.066
X2.517Y-4.166
X2.517Y-4.266
X2.517Y-4.366
X2.517Y-4.466
X2.617Y-3.366
X2.617Y-3.466
X2.617Y-3.566
X2.617Y-3.666
X2.617Y-3.766
X2.617Y-3.866
X3.132Y-4.138
X3.132Y-4.3349
X3.262Y-4.3371
X3.262Y-4.534
X3.458Y-3.8911
X3.458Y-4.088
X3.706Y-4.14
X3.91Y-4.342
X3.91Y-4.4404
X4.106Y-4.14
X4.232Y-4.142
X4.232Y-4.542
T4
X2.1164Y-3.555
X2.1164Y-3.655
X2.1164Y-3.755
X2.1164Y-3.855
X2.1164Y-3.955
X2.1164Y-4.055
X2.1164Y-4.155
X2.1164Y-4.255
X2.1164Y-4.355
X2.1164Y-4.455
X2.1164Y-4.555
X4.3802Y-3.8972
X4.3802Y-3.9972
X4.3802Y-4.0972
X4.3802Y-4.1972
T5
X3.5988Y-3.3427
X3.5988Y-3.4427
X3.5988Y-3.5427
X3.5988Y-3.6427
X3.5988Y-3.7427
X3.5988Y-3.8427
X3.5988Y-3.9427
X4.2352Y-3.3427
X4.2352Y-3.4427
X4.2352Y-3.5427
X4.2352Y-3.6427
X4.2352Y-3.7427
X4.2352Y-3.8427
X4.2352Y-3.9427
T6
X2.775Y-3.397
X2.775Y-3.497
X2.775Y-3.597
X2.775Y-3.697
X2.775Y-3.797
X2.775Y-3.897
X2.775Y-3.997
X2.775Y-4.097
X2.775Y-4.197
X2.775Y-4.297
X2.775Y-4.397
X2.775Y-4.497
X2.988Y-3.812
X2.988Y-3.912
X2.988Y-4.012
X2.988Y-4.112
X2.99Y-3.396
X2.99Y-3.496
X2.99Y-3.596
T7
X3.196Y-3.496
X3.396Y-3.496
T0
M30
