%TF.GenerationSoftware,KiCad,Pcbnew,5.1.10-88a1d61d58~90~ubuntu20.04.1*%
%TF.CreationDate,2021-09-24T14:34:36-04:00*%
%TF.ProjectId,VoltageCurrentMeter,566f6c74-6167-4654-9375-7272656e744d,rev?*%
%TF.SameCoordinates,Original*%
%TF.FileFunction,Soldermask,Top*%
%TF.FilePolarity,Negative*%
%FSLAX46Y46*%
G04 Gerber Fmt 4.6, Leading zero omitted, Abs format (unit mm)*
G04 Created by KiCad (PCBNEW 5.1.10-88a1d61d58~90~ubuntu20.04.1) date 2021-09-24 14:34:36*
%MOMM*%
%LPD*%
G01*
G04 APERTURE LIST*
%ADD10C,1.143000*%
%ADD11O,1.016000X2.032000*%
%ADD12O,2.748280X1.998980*%
%ADD13C,1.600000*%
%ADD14R,1.524000X1.524000*%
%ADD15C,1.524000*%
%ADD16O,1.700000X1.700000*%
%ADD17R,1.700000X1.700000*%
%ADD18O,1.000000X1.250000*%
%ADD19R,0.600000X2.200000*%
%ADD20R,3.450000X2.150000*%
%ADD21R,1.600000X1.600000*%
%ADD22R,2.600000X2.600000*%
%ADD23C,2.600000*%
%ADD24O,1.600000X1.600000*%
G04 APERTURE END LIST*
D10*
%TO.C,U1*%
X100662803Y-86859813D03*
X98122803Y-86859813D03*
X100662803Y-84319813D03*
X98122803Y-84319813D03*
D11*
X100674000Y-101324000D03*
X98124000Y-101324000D03*
D12*
X91757120Y-85006180D03*
X91757120Y-87546180D03*
X91757120Y-90086180D03*
X91757120Y-92626180D03*
X91757120Y-95166180D03*
X91757120Y-97706180D03*
X91757120Y-100246180D03*
X106921680Y-100246180D03*
X106921680Y-97706180D03*
X106921680Y-95166180D03*
X106921680Y-92626180D03*
X106921680Y-90086180D03*
X106921680Y-87546180D03*
X106921680Y-85006180D03*
%TD*%
D13*
%TO.C,REF\u002A\u002A*%
X61391800Y-115976400D03*
%TD*%
%TO.C,REF\u002A\u002A*%
X58851800Y-115976400D03*
%TD*%
%TO.C,REF\u002A\u002A*%
X56311800Y-115976400D03*
%TD*%
%TO.C,REF\u002A\u002A*%
X63931800Y-113436400D03*
%TD*%
%TO.C,REF\u002A\u002A*%
X61391800Y-113436400D03*
%TD*%
%TO.C,REF\u002A\u002A*%
X58851800Y-113436400D03*
%TD*%
%TO.C,REF\u002A\u002A*%
X56311800Y-113436400D03*
%TD*%
%TO.C,REF\u002A\u002A*%
X63931800Y-110896400D03*
%TD*%
%TO.C,REF\u002A\u002A*%
X61391800Y-110896400D03*
%TD*%
%TO.C,REF\u002A\u002A*%
X58851800Y-110896400D03*
%TD*%
%TO.C,REF\u002A\u002A*%
X56311800Y-110896400D03*
%TD*%
%TO.C,REF\u002A\u002A*%
X63931800Y-108356400D03*
%TD*%
%TO.C,REF\u002A\u002A*%
X61391800Y-108356400D03*
%TD*%
%TO.C,REF\u002A\u002A*%
X58851800Y-108356400D03*
%TD*%
%TO.C,REF\u002A\u002A*%
X63931800Y-105816400D03*
%TD*%
%TO.C,REF\u002A\u002A*%
X61391800Y-105816400D03*
%TD*%
%TO.C,REF\u002A\u002A*%
X58851800Y-105816400D03*
%TD*%
%TO.C,REF\u002A\u002A*%
X63931800Y-103276400D03*
%TD*%
%TO.C,REF\u002A\u002A*%
X61391800Y-103276400D03*
%TD*%
%TO.C,REF\u002A\u002A*%
X58851800Y-103276400D03*
%TD*%
%TO.C,REF\u002A\u002A*%
X63931800Y-100736400D03*
%TD*%
%TO.C,REF\u002A\u002A*%
X61391800Y-100736400D03*
%TD*%
%TO.C,REF\u002A\u002A*%
X58851800Y-100736400D03*
%TD*%
%TO.C,REF\u002A\u002A*%
X66471800Y-98196400D03*
%TD*%
%TO.C,REF\u002A\u002A*%
X63931800Y-98196400D03*
%TD*%
%TO.C,REF\u002A\u002A*%
X61391800Y-98196400D03*
%TD*%
%TO.C,REF\u002A\u002A*%
X58851800Y-98196400D03*
%TD*%
%TO.C,REF\u002A\u002A*%
X66471800Y-95656400D03*
%TD*%
%TO.C,REF\u002A\u002A*%
X63931800Y-95656400D03*
%TD*%
%TO.C,REF\u002A\u002A*%
X61391800Y-95656400D03*
%TD*%
%TO.C,REF\u002A\u002A*%
X58851800Y-95656400D03*
%TD*%
%TO.C,REF\u002A\u002A*%
X66471800Y-93116400D03*
%TD*%
%TO.C,REF\u002A\u002A*%
X63931800Y-93116400D03*
%TD*%
%TO.C,REF\u002A\u002A*%
X61391800Y-93116400D03*
%TD*%
%TO.C,REF\u002A\u002A*%
X58851800Y-93116400D03*
%TD*%
%TO.C,REF\u002A\u002A*%
X66471800Y-90576400D03*
%TD*%
%TO.C,REF\u002A\u002A*%
X63931800Y-90576400D03*
%TD*%
%TO.C,REF\u002A\u002A*%
X61391800Y-90576400D03*
%TD*%
%TO.C,REF\u002A\u002A*%
X58851800Y-90576400D03*
%TD*%
%TO.C,REF\u002A\u002A*%
X66471800Y-88036400D03*
%TD*%
%TO.C,REF\u002A\u002A*%
X63931800Y-88036400D03*
%TD*%
%TO.C,REF\u002A\u002A*%
X61391800Y-88036400D03*
%TD*%
%TO.C,REF\u002A\u002A*%
X58851800Y-88036400D03*
%TD*%
%TO.C,REF\u002A\u002A*%
X66471800Y-85496400D03*
%TD*%
%TO.C,REF\u002A\u002A*%
X63931800Y-85496400D03*
%TD*%
%TO.C,REF\u002A\u002A*%
X61391800Y-85496400D03*
%TD*%
%TO.C,REF\u002A\u002A*%
X58851800Y-85496400D03*
%TD*%
D14*
%TO.C,U2*%
X111257200Y-106607800D03*
D15*
X111257200Y-104067800D03*
X111257200Y-101527800D03*
X111257200Y-98987800D03*
D14*
X53757200Y-90297800D03*
D15*
X53757200Y-92837800D03*
X53757200Y-95377800D03*
X53757200Y-97917800D03*
X53757200Y-100457800D03*
X53757200Y-102997800D03*
X53757200Y-105537800D03*
X53757200Y-108077800D03*
X53757200Y-110617800D03*
X53757200Y-113157800D03*
X53757200Y-115697800D03*
%TD*%
D16*
%TO.C,J12*%
X70485000Y-114223800D03*
X70485000Y-111683800D03*
X70485000Y-109143800D03*
X70485000Y-106603800D03*
X70485000Y-104063800D03*
X70485000Y-101523800D03*
X70485000Y-98983800D03*
X70485000Y-96443800D03*
X70485000Y-93903800D03*
X70485000Y-91363800D03*
X70485000Y-88823800D03*
D17*
X70485000Y-86283800D03*
%TD*%
D16*
%TO.C,J10*%
X75946000Y-91338400D03*
X75946000Y-88798400D03*
D17*
X75946000Y-86258400D03*
%TD*%
D16*
%TO.C,J11*%
X75895200Y-104444800D03*
X75895200Y-101904800D03*
X75895200Y-99364800D03*
D17*
X75895200Y-96824800D03*
%TD*%
D18*
%TO.C,J8*%
X107926000Y-118692400D03*
X104926000Y-118692400D03*
X106426000Y-118692400D03*
%TD*%
%TO.C,J7*%
X101118800Y-118692400D03*
X98118800Y-118692400D03*
X99618800Y-118692400D03*
%TD*%
%TO.C,J6*%
X94311600Y-118692400D03*
X91311600Y-118692400D03*
X92811600Y-118692400D03*
%TD*%
%TO.C,J5*%
X87504400Y-118692400D03*
X84504400Y-118692400D03*
X86004400Y-118692400D03*
%TD*%
%TO.C,J4*%
X80697200Y-118692400D03*
X77697200Y-118692400D03*
X79197200Y-118692400D03*
%TD*%
%TO.C,J3*%
X73890000Y-118692400D03*
X70890000Y-118692400D03*
X72390000Y-118692400D03*
%TD*%
%TO.C,J2*%
X65532000Y-118692400D03*
X64032000Y-118692400D03*
X67032000Y-118692400D03*
%TD*%
%TO.C,J1*%
X60174000Y-118692400D03*
X57174000Y-118692400D03*
X58674000Y-118692400D03*
%TD*%
D19*
%TO.C,U4*%
X82956400Y-102451500D03*
X80416400Y-102451500D03*
D20*
X81686400Y-96151500D03*
D19*
X81686400Y-102451500D03*
X84226400Y-102451500D03*
X79146400Y-102451500D03*
%TD*%
D13*
%TO.C,C1*%
X79552800Y-110105200D03*
X79552800Y-105105200D03*
%TD*%
%TO.C,C2*%
X82854800Y-115163600D03*
X82854800Y-110163600D03*
%TD*%
%TO.C,C3*%
X87833200Y-103835200D03*
X87833200Y-98835200D03*
%TD*%
D21*
%TO.C,C4*%
X99314000Y-110286800D03*
D13*
X99314000Y-112786800D03*
%TD*%
D22*
%TO.C,J9*%
X86258400Y-88798400D03*
D23*
X81178400Y-88798400D03*
%TD*%
D24*
%TO.C,R1*%
X104292400Y-105156000D03*
D13*
X94132400Y-105156000D03*
%TD*%
%TO.C,R2*%
X107492800Y-105206800D03*
D24*
X107492800Y-115366800D03*
%TD*%
%TO.C,U3*%
G36*
G01*
X92197600Y-114988200D02*
X92197600Y-115288200D01*
G75*
G02*
X92047600Y-115438200I-150000J0D01*
G01*
X90597600Y-115438200D01*
G75*
G02*
X90447600Y-115288200I0J150000D01*
G01*
X90447600Y-114988200D01*
G75*
G02*
X90597600Y-114838200I150000J0D01*
G01*
X92047600Y-114838200D01*
G75*
G02*
X92197600Y-114988200I0J-150000D01*
G01*
G37*
G36*
G01*
X92197600Y-113718200D02*
X92197600Y-114018200D01*
G75*
G02*
X92047600Y-114168200I-150000J0D01*
G01*
X90597600Y-114168200D01*
G75*
G02*
X90447600Y-114018200I0J150000D01*
G01*
X90447600Y-113718200D01*
G75*
G02*
X90597600Y-113568200I150000J0D01*
G01*
X92047600Y-113568200D01*
G75*
G02*
X92197600Y-113718200I0J-150000D01*
G01*
G37*
G36*
G01*
X92197600Y-112448200D02*
X92197600Y-112748200D01*
G75*
G02*
X92047600Y-112898200I-150000J0D01*
G01*
X90597600Y-112898200D01*
G75*
G02*
X90447600Y-112748200I0J150000D01*
G01*
X90447600Y-112448200D01*
G75*
G02*
X90597600Y-112298200I150000J0D01*
G01*
X92047600Y-112298200D01*
G75*
G02*
X92197600Y-112448200I0J-150000D01*
G01*
G37*
G36*
G01*
X92197600Y-111178200D02*
X92197600Y-111478200D01*
G75*
G02*
X92047600Y-111628200I-150000J0D01*
G01*
X90597600Y-111628200D01*
G75*
G02*
X90447600Y-111478200I0J150000D01*
G01*
X90447600Y-111178200D01*
G75*
G02*
X90597600Y-111028200I150000J0D01*
G01*
X92047600Y-111028200D01*
G75*
G02*
X92197600Y-111178200I0J-150000D01*
G01*
G37*
G36*
G01*
X92197600Y-109908200D02*
X92197600Y-110208200D01*
G75*
G02*
X92047600Y-110358200I-150000J0D01*
G01*
X90597600Y-110358200D01*
G75*
G02*
X90447600Y-110208200I0J150000D01*
G01*
X90447600Y-109908200D01*
G75*
G02*
X90597600Y-109758200I150000J0D01*
G01*
X92047600Y-109758200D01*
G75*
G02*
X92197600Y-109908200I0J-150000D01*
G01*
G37*
G36*
G01*
X92197600Y-108638200D02*
X92197600Y-108938200D01*
G75*
G02*
X92047600Y-109088200I-150000J0D01*
G01*
X90597600Y-109088200D01*
G75*
G02*
X90447600Y-108938200I0J150000D01*
G01*
X90447600Y-108638200D01*
G75*
G02*
X90597600Y-108488200I150000J0D01*
G01*
X92047600Y-108488200D01*
G75*
G02*
X92197600Y-108638200I0J-150000D01*
G01*
G37*
G36*
G01*
X92197600Y-107368200D02*
X92197600Y-107668200D01*
G75*
G02*
X92047600Y-107818200I-150000J0D01*
G01*
X90597600Y-107818200D01*
G75*
G02*
X90447600Y-107668200I0J150000D01*
G01*
X90447600Y-107368200D01*
G75*
G02*
X90597600Y-107218200I150000J0D01*
G01*
X92047600Y-107218200D01*
G75*
G02*
X92197600Y-107368200I0J-150000D01*
G01*
G37*
G36*
G01*
X92197600Y-106098200D02*
X92197600Y-106398200D01*
G75*
G02*
X92047600Y-106548200I-150000J0D01*
G01*
X90597600Y-106548200D01*
G75*
G02*
X90447600Y-106398200I0J150000D01*
G01*
X90447600Y-106098200D01*
G75*
G02*
X90597600Y-105948200I150000J0D01*
G01*
X92047600Y-105948200D01*
G75*
G02*
X92197600Y-106098200I0J-150000D01*
G01*
G37*
G36*
G01*
X87047600Y-106098200D02*
X87047600Y-106398200D01*
G75*
G02*
X86897600Y-106548200I-150000J0D01*
G01*
X85447600Y-106548200D01*
G75*
G02*
X85297600Y-106398200I0J150000D01*
G01*
X85297600Y-106098200D01*
G75*
G02*
X85447600Y-105948200I150000J0D01*
G01*
X86897600Y-105948200D01*
G75*
G02*
X87047600Y-106098200I0J-150000D01*
G01*
G37*
G36*
G01*
X87047600Y-107368200D02*
X87047600Y-107668200D01*
G75*
G02*
X86897600Y-107818200I-150000J0D01*
G01*
X85447600Y-107818200D01*
G75*
G02*
X85297600Y-107668200I0J150000D01*
G01*
X85297600Y-107368200D01*
G75*
G02*
X85447600Y-107218200I150000J0D01*
G01*
X86897600Y-107218200D01*
G75*
G02*
X87047600Y-107368200I0J-150000D01*
G01*
G37*
G36*
G01*
X87047600Y-108638200D02*
X87047600Y-108938200D01*
G75*
G02*
X86897600Y-109088200I-150000J0D01*
G01*
X85447600Y-109088200D01*
G75*
G02*
X85297600Y-108938200I0J150000D01*
G01*
X85297600Y-108638200D01*
G75*
G02*
X85447600Y-108488200I150000J0D01*
G01*
X86897600Y-108488200D01*
G75*
G02*
X87047600Y-108638200I0J-150000D01*
G01*
G37*
G36*
G01*
X87047600Y-109908200D02*
X87047600Y-110208200D01*
G75*
G02*
X86897600Y-110358200I-150000J0D01*
G01*
X85447600Y-110358200D01*
G75*
G02*
X85297600Y-110208200I0J150000D01*
G01*
X85297600Y-109908200D01*
G75*
G02*
X85447600Y-109758200I150000J0D01*
G01*
X86897600Y-109758200D01*
G75*
G02*
X87047600Y-109908200I0J-150000D01*
G01*
G37*
G36*
G01*
X87047600Y-111178200D02*
X87047600Y-111478200D01*
G75*
G02*
X86897600Y-111628200I-150000J0D01*
G01*
X85447600Y-111628200D01*
G75*
G02*
X85297600Y-111478200I0J150000D01*
G01*
X85297600Y-111178200D01*
G75*
G02*
X85447600Y-111028200I150000J0D01*
G01*
X86897600Y-111028200D01*
G75*
G02*
X87047600Y-111178200I0J-150000D01*
G01*
G37*
G36*
G01*
X87047600Y-112448200D02*
X87047600Y-112748200D01*
G75*
G02*
X86897600Y-112898200I-150000J0D01*
G01*
X85447600Y-112898200D01*
G75*
G02*
X85297600Y-112748200I0J150000D01*
G01*
X85297600Y-112448200D01*
G75*
G02*
X85447600Y-112298200I150000J0D01*
G01*
X86897600Y-112298200D01*
G75*
G02*
X87047600Y-112448200I0J-150000D01*
G01*
G37*
G36*
G01*
X87047600Y-113718200D02*
X87047600Y-114018200D01*
G75*
G02*
X86897600Y-114168200I-150000J0D01*
G01*
X85447600Y-114168200D01*
G75*
G02*
X85297600Y-114018200I0J150000D01*
G01*
X85297600Y-113718200D01*
G75*
G02*
X85447600Y-113568200I150000J0D01*
G01*
X86897600Y-113568200D01*
G75*
G02*
X87047600Y-113718200I0J-150000D01*
G01*
G37*
G36*
G01*
X87047600Y-114988200D02*
X87047600Y-115288200D01*
G75*
G02*
X86897600Y-115438200I-150000J0D01*
G01*
X85447600Y-115438200D01*
G75*
G02*
X85297600Y-115288200I0J150000D01*
G01*
X85297600Y-114988200D01*
G75*
G02*
X85447600Y-114838200I150000J0D01*
G01*
X86897600Y-114838200D01*
G75*
G02*
X87047600Y-114988200I0J-150000D01*
G01*
G37*
%TD*%
M02*
