%TF.GenerationSoftware,KiCad,Pcbnew,5.1.10-88a1d61d58~90~ubuntu20.04.1*%
%TF.CreationDate,2021-09-12T16:28:58-04:00*%
%TF.ProjectId,VoltageCurrentPowerMeter,566f6c74-6167-4654-9375-7272656e7450,rev?*%
%TF.SameCoordinates,Original*%
%TF.FileFunction,Copper,L2,Bot*%
%TF.FilePolarity,Positive*%
%FSLAX46Y46*%
G04 Gerber Fmt 4.6, Leading zero omitted, Abs format (unit mm)*
G04 Created by KiCad (PCBNEW 5.1.10-88a1d61d58~90~ubuntu20.04.1) date 2021-09-12 16:28:58*
%MOMM*%
%LPD*%
G01*
G04 APERTURE LIST*
%TA.AperFunction,ComponentPad*%
%ADD10C,1.600000*%
%TD*%
%TA.AperFunction,ComponentPad*%
%ADD11R,1.524000X1.524000*%
%TD*%
%TA.AperFunction,ComponentPad*%
%ADD12C,1.524000*%
%TD*%
%TA.AperFunction,ComponentPad*%
%ADD13O,1.700000X1.700000*%
%TD*%
%TA.AperFunction,ComponentPad*%
%ADD14R,1.700000X1.700000*%
%TD*%
%TA.AperFunction,ComponentPad*%
%ADD15O,1.000000X1.250000*%
%TD*%
%TA.AperFunction,ComponentPad*%
%ADD16O,2.748280X1.998980*%
%TD*%
%TA.AperFunction,ComponentPad*%
%ADD17R,1.600000X1.600000*%
%TD*%
%TA.AperFunction,ComponentPad*%
%ADD18R,2.600000X2.600000*%
%TD*%
%TA.AperFunction,ComponentPad*%
%ADD19C,2.600000*%
%TD*%
%TA.AperFunction,ComponentPad*%
%ADD20O,1.600000X1.600000*%
%TD*%
%TA.AperFunction,ViaPad*%
%ADD21C,0.800000*%
%TD*%
%TA.AperFunction,Conductor*%
%ADD22C,0.350000*%
%TD*%
%TA.AperFunction,Conductor*%
%ADD23C,0.250000*%
%TD*%
%TA.AperFunction,Conductor*%
%ADD24C,0.254000*%
%TD*%
%TA.AperFunction,Conductor*%
%ADD25C,0.100000*%
%TD*%
G04 APERTURE END LIST*
D10*
%TO.P,REF\u002A\u002A,47*%
%TO.N,N/C*%
X61391800Y-115976400D03*
%TD*%
%TO.P,REF\u002A\u002A,46*%
%TO.N,N/C*%
X58851800Y-115976400D03*
%TD*%
%TO.P,REF\u002A\u002A,45*%
%TO.N,N/C*%
X56311800Y-115976400D03*
%TD*%
%TO.P,REF\u002A\u002A,44*%
%TO.N,N/C*%
X63931800Y-113436400D03*
%TD*%
%TO.P,REF\u002A\u002A,43*%
%TO.N,N/C*%
X61391800Y-113436400D03*
%TD*%
%TO.P,REF\u002A\u002A,42*%
%TO.N,N/C*%
X58851800Y-113436400D03*
%TD*%
%TO.P,REF\u002A\u002A,41*%
%TO.N,N/C*%
X56311800Y-113436400D03*
%TD*%
%TO.P,REF\u002A\u002A,40*%
%TO.N,N/C*%
X63931800Y-110896400D03*
%TD*%
%TO.P,REF\u002A\u002A,39*%
%TO.N,N/C*%
X61391800Y-110896400D03*
%TD*%
%TO.P,REF\u002A\u002A,38*%
%TO.N,N/C*%
X58851800Y-110896400D03*
%TD*%
%TO.P,REF\u002A\u002A,37*%
%TO.N,N/C*%
X56311800Y-110896400D03*
%TD*%
%TO.P,REF\u002A\u002A,36*%
%TO.N,N/C*%
X63931800Y-108356400D03*
%TD*%
%TO.P,REF\u002A\u002A,35*%
%TO.N,N/C*%
X61391800Y-108356400D03*
%TD*%
%TO.P,REF\u002A\u002A,34*%
%TO.N,N/C*%
X58851800Y-108356400D03*
%TD*%
%TO.P,REF\u002A\u002A,33*%
%TO.N,N/C*%
X63931800Y-105816400D03*
%TD*%
%TO.P,REF\u002A\u002A,32*%
%TO.N,N/C*%
X61391800Y-105816400D03*
%TD*%
%TO.P,REF\u002A\u002A,31*%
%TO.N,N/C*%
X58851800Y-105816400D03*
%TD*%
%TO.P,REF\u002A\u002A,30*%
%TO.N,N/C*%
X63931800Y-103276400D03*
%TD*%
%TO.P,REF\u002A\u002A,29*%
%TO.N,N/C*%
X61391800Y-103276400D03*
%TD*%
%TO.P,REF\u002A\u002A,28*%
%TO.N,N/C*%
X58851800Y-103276400D03*
%TD*%
%TO.P,REF\u002A\u002A,27*%
%TO.N,N/C*%
X63931800Y-100736400D03*
%TD*%
%TO.P,REF\u002A\u002A,26*%
%TO.N,N/C*%
X61391800Y-100736400D03*
%TD*%
%TO.P,REF\u002A\u002A,25*%
%TO.N,N/C*%
X58851800Y-100736400D03*
%TD*%
%TO.P,REF\u002A\u002A,24*%
%TO.N,N/C*%
X66471800Y-98196400D03*
%TD*%
%TO.P,REF\u002A\u002A,23*%
%TO.N,N/C*%
X63931800Y-98196400D03*
%TD*%
%TO.P,REF\u002A\u002A,22*%
%TO.N,N/C*%
X61391800Y-98196400D03*
%TD*%
%TO.P,REF\u002A\u002A,21*%
%TO.N,N/C*%
X58851800Y-98196400D03*
%TD*%
%TO.P,REF\u002A\u002A,20*%
%TO.N,N/C*%
X66471800Y-95656400D03*
%TD*%
%TO.P,REF\u002A\u002A,19*%
%TO.N,N/C*%
X63931800Y-95656400D03*
%TD*%
%TO.P,REF\u002A\u002A,18*%
%TO.N,N/C*%
X61391800Y-95656400D03*
%TD*%
%TO.P,REF\u002A\u002A,17*%
%TO.N,N/C*%
X58851800Y-95656400D03*
%TD*%
%TO.P,REF\u002A\u002A,16*%
%TO.N,N/C*%
X66471800Y-93116400D03*
%TD*%
%TO.P,REF\u002A\u002A,15*%
%TO.N,N/C*%
X63931800Y-93116400D03*
%TD*%
%TO.P,REF\u002A\u002A,14*%
%TO.N,N/C*%
X61391800Y-93116400D03*
%TD*%
%TO.P,REF\u002A\u002A,13*%
%TO.N,N/C*%
X58851800Y-93116400D03*
%TD*%
%TO.P,REF\u002A\u002A,12*%
%TO.N,N/C*%
X66471800Y-90576400D03*
%TD*%
%TO.P,REF\u002A\u002A,11*%
%TO.N,N/C*%
X63931800Y-90576400D03*
%TD*%
%TO.P,REF\u002A\u002A,10*%
%TO.N,N/C*%
X61391800Y-90576400D03*
%TD*%
%TO.P,REF\u002A\u002A,9*%
%TO.N,N/C*%
X58851800Y-90576400D03*
%TD*%
%TO.P,REF\u002A\u002A,8*%
%TO.N,N/C*%
X66471800Y-88036400D03*
%TD*%
%TO.P,REF\u002A\u002A,7*%
%TO.N,N/C*%
X63931800Y-88036400D03*
%TD*%
%TO.P,REF\u002A\u002A,6*%
%TO.N,N/C*%
X61391800Y-88036400D03*
%TD*%
%TO.P,REF\u002A\u002A,5*%
%TO.N,N/C*%
X58851800Y-88036400D03*
%TD*%
%TO.P,REF\u002A\u002A,4*%
%TO.N,N/C*%
X66471800Y-85496400D03*
%TD*%
%TO.P,REF\u002A\u002A,3*%
%TO.N,N/C*%
X63931800Y-85496400D03*
%TD*%
%TO.P,REF\u002A\u002A,2*%
%TO.N,N/C*%
X61391800Y-85496400D03*
%TD*%
%TO.P,REF\u002A\u002A,1*%
%TO.N,N/C*%
X58851800Y-85496400D03*
%TD*%
D11*
%TO.P,U2,12*%
%TO.N,Net-(U2-Pad12)*%
X111257200Y-106607800D03*
D12*
%TO.P,U2,13*%
%TO.N,Net-(U2-Pad13)*%
X111257200Y-104067800D03*
%TO.P,U2,14*%
%TO.N,Net-(U2-Pad14)*%
X111257200Y-101527800D03*
%TO.P,U2,15*%
%TO.N,Net-(U2-Pad15)*%
X111257200Y-98987800D03*
D11*
%TO.P,U2,1*%
%TO.N,3.3V*%
X53757200Y-90297800D03*
D12*
%TO.P,U2,2*%
%TO.N,GND*%
X53757200Y-92837800D03*
%TO.P,U2,3*%
X53757200Y-95377800D03*
%TO.P,U2,4*%
%TO.N,Net-(U2-Pad4)*%
X53757200Y-97917800D03*
%TO.P,U2,5*%
%TO.N,Net-(U2-Pad5)*%
X53757200Y-100457800D03*
%TO.P,U2,6*%
%TO.N,Net-(U2-Pad6)*%
X53757200Y-102997800D03*
%TO.P,U2,7*%
%TO.N,Net-(U1-Pad8)*%
X53757200Y-105537800D03*
%TO.P,U2,8*%
%TO.N,Net-(U1-Pad10)*%
X53757200Y-108077800D03*
%TO.P,U2,9*%
%TO.N,Net-(U1-Pad2)*%
X53757200Y-110617800D03*
%TO.P,U2,10*%
%TO.N,Net-(U1-Pad1)*%
X53757200Y-113157800D03*
%TO.P,U2,11*%
%TO.N,Net-(U1-Pad3)*%
X53757200Y-115697800D03*
%TD*%
D13*
%TO.P,J12,12*%
%TO.N,Net-(J12-Pad12)*%
X70485000Y-114223800D03*
%TO.P,J12,11*%
%TO.N,Net-(J12-Pad11)*%
X70485000Y-111683800D03*
%TO.P,J12,10*%
%TO.N,Net-(J12-Pad10)*%
X70485000Y-109143800D03*
%TO.P,J12,9*%
%TO.N,Net-(J12-Pad9)*%
X70485000Y-106603800D03*
%TO.P,J12,8*%
%TO.N,Net-(J12-Pad8)*%
X70485000Y-104063800D03*
%TO.P,J12,7*%
%TO.N,Net-(J12-Pad7)*%
X70485000Y-101523800D03*
%TO.P,J12,6*%
%TO.N,Net-(J12-Pad6)*%
X70485000Y-98983800D03*
%TO.P,J12,5*%
%TO.N,Net-(J1-Pad1)*%
X70485000Y-96443800D03*
%TO.P,J12,4*%
%TO.N,Net-(J12-Pad4)*%
X70485000Y-93903800D03*
%TO.P,J12,3*%
%TO.N,Net-(J12-Pad3)*%
X70485000Y-91363800D03*
%TO.P,J12,2*%
%TO.N,3.3V*%
X70485000Y-88823800D03*
D14*
%TO.P,J12,1*%
%TO.N,GND*%
X70485000Y-86283800D03*
%TD*%
D13*
%TO.P,J10,3*%
%TO.N,Net-(C1-Pad1)*%
X75946000Y-91338400D03*
%TO.P,J10,2*%
%TO.N,Net-(J10-Pad2)*%
X75946000Y-88798400D03*
D14*
%TO.P,J10,1*%
%TO.N,Net-(J10-Pad1)*%
X75946000Y-86258400D03*
%TD*%
D13*
%TO.P,J11,4*%
%TO.N,Net-(C1-Pad1)*%
X75895200Y-104444800D03*
%TO.P,J11,3*%
%TO.N,Net-(J10-Pad1)*%
X75895200Y-101904800D03*
%TO.P,J11,2*%
%TO.N,GND*%
X75895200Y-99364800D03*
D14*
%TO.P,J11,1*%
X75895200Y-96824800D03*
%TD*%
D15*
%TO.P,J8,3*%
%TO.N,3.3V*%
X107926000Y-118692400D03*
%TO.P,J8,1*%
%TO.N,Net-(J12-Pad12)*%
X104926000Y-118692400D03*
%TO.P,J8,2*%
%TO.N,GND*%
X106426000Y-118692400D03*
%TD*%
%TO.P,J7,3*%
%TO.N,3.3V*%
X101118800Y-118692400D03*
%TO.P,J7,1*%
%TO.N,Net-(J12-Pad11)*%
X98118800Y-118692400D03*
%TO.P,J7,2*%
%TO.N,GND*%
X99618800Y-118692400D03*
%TD*%
%TO.P,J6,3*%
%TO.N,3.3V*%
X94311600Y-118692400D03*
%TO.P,J6,1*%
%TO.N,Net-(J12-Pad10)*%
X91311600Y-118692400D03*
%TO.P,J6,2*%
%TO.N,GND*%
X92811600Y-118692400D03*
%TD*%
%TO.P,J5,3*%
%TO.N,3.3V*%
X87504400Y-118692400D03*
%TO.P,J5,1*%
%TO.N,Net-(J12-Pad9)*%
X84504400Y-118692400D03*
%TO.P,J5,2*%
%TO.N,GND*%
X86004400Y-118692400D03*
%TD*%
%TO.P,J4,3*%
%TO.N,3.3V*%
X80697200Y-118692400D03*
%TO.P,J4,1*%
%TO.N,Net-(J12-Pad8)*%
X77697200Y-118692400D03*
%TO.P,J4,2*%
%TO.N,GND*%
X79197200Y-118692400D03*
%TD*%
%TO.P,J3,3*%
%TO.N,3.3V*%
X73890000Y-118692400D03*
%TO.P,J3,1*%
%TO.N,Net-(J12-Pad7)*%
X70890000Y-118692400D03*
%TO.P,J3,2*%
%TO.N,GND*%
X72390000Y-118692400D03*
%TD*%
%TO.P,J2,2*%
%TO.N,GND*%
X65532000Y-118692400D03*
%TO.P,J2,1*%
%TO.N,Net-(J12-Pad6)*%
X64032000Y-118692400D03*
%TO.P,J2,3*%
%TO.N,3.3V*%
X67032000Y-118692400D03*
%TD*%
%TO.P,J1,3*%
%TO.N,3.3V*%
X60174000Y-118692400D03*
%TO.P,J1,1*%
%TO.N,Net-(J1-Pad1)*%
X57174000Y-118692400D03*
%TO.P,J1,2*%
%TO.N,GND*%
X58674000Y-118692400D03*
%TD*%
D16*
%TO.P,U1,0*%
%TO.N,Net-(J12-Pad3)*%
X91409520Y-84904580D03*
%TO.P,U1,1*%
%TO.N,Net-(U1-Pad1)*%
X91409520Y-87444580D03*
%TO.P,U1,2*%
%TO.N,Net-(U1-Pad2)*%
X91409520Y-89984580D03*
%TO.P,U1,3*%
%TO.N,Net-(U1-Pad3)*%
X91409520Y-92524580D03*
%TO.P,U1,4*%
%TO.N,Net-(U1-Pad4)*%
X91409520Y-95064580D03*
%TO.P,U1,5*%
%TO.N,Net-(U1-Pad5)*%
X91409520Y-97604580D03*
%TO.P,U1,6*%
%TO.N,Net-(U1-Pad6)*%
X91409520Y-100144580D03*
%TO.P,U1,7*%
%TO.N,Net-(U1-Pad7)*%
X107574080Y-100144580D03*
%TO.P,U1,8*%
%TO.N,Net-(U1-Pad8)*%
X107574080Y-97604580D03*
%TO.P,U1,9*%
%TO.N,Net-(J12-Pad4)*%
X107574080Y-95064580D03*
%TO.P,U1,10*%
%TO.N,Net-(U1-Pad10)*%
X107574080Y-92524580D03*
%TO.P,U1,11*%
%TO.N,3.3V*%
X107574080Y-89984580D03*
%TO.P,U1,12*%
%TO.N,GND*%
X107574080Y-87444580D03*
%TO.P,U1,13*%
%TO.N,Net-(U1-Pad13)*%
X107574080Y-84904580D03*
%TD*%
D10*
%TO.P,C1,2*%
%TO.N,GND*%
X79552800Y-110105200D03*
%TO.P,C1,1*%
%TO.N,Net-(C1-Pad1)*%
X79552800Y-105105200D03*
%TD*%
%TO.P,C2,1*%
%TO.N,3.3V*%
X82854800Y-115163600D03*
%TO.P,C2,2*%
%TO.N,GND*%
X82854800Y-110163600D03*
%TD*%
%TO.P,C3,1*%
%TO.N,3.3V*%
X87833200Y-103835200D03*
%TO.P,C3,2*%
%TO.N,Net-(C3-Pad2)*%
X87833200Y-98835200D03*
%TD*%
D17*
%TO.P,C4,1*%
%TO.N,3.3V*%
X99314000Y-110286800D03*
D10*
%TO.P,C4,2*%
%TO.N,GND*%
X99314000Y-112786800D03*
%TD*%
D18*
%TO.P,J9,1*%
%TO.N,GND*%
X86258400Y-88798400D03*
D19*
%TO.P,J9,2*%
%TO.N,Net-(J10-Pad2)*%
X81178400Y-88798400D03*
%TD*%
D20*
%TO.P,R1,2*%
%TO.N,Net-(C3-Pad2)*%
X104292400Y-105156000D03*
D10*
%TO.P,R1,1*%
%TO.N,3.3V*%
X94132400Y-105156000D03*
%TD*%
%TO.P,R2,1*%
%TO.N,Net-(C3-Pad2)*%
X107492800Y-105206800D03*
D20*
%TO.P,R2,2*%
%TO.N,GND*%
X107492800Y-115366800D03*
%TD*%
D21*
%TO.N,Net-(J12-Pad4)*%
X109397800Y-102870000D03*
%TO.N,GND*%
X81127600Y-96824800D03*
X82245200Y-96824800D03*
X82296000Y-95504000D03*
X81127600Y-95504000D03*
X80467200Y-96164400D03*
X82905600Y-96215200D03*
X81686400Y-96164400D03*
X81737200Y-102514400D03*
X91338400Y-106222800D03*
X91338400Y-107543600D03*
X91338400Y-108813600D03*
%TO.N,3.3V*%
X80416400Y-102565200D03*
X73098937Y-91137463D03*
%TO.N,Net-(J12-Pad9)*%
X91322600Y-115138200D03*
%TO.N,Net-(U1-Pad7)*%
X91338400Y-112623600D03*
X98069400Y-107137200D03*
%TO.N,Net-(U1-Pad3)*%
X113004600Y-82753200D03*
%TO.N,Net-(U1-Pad2)*%
X52222400Y-83718400D03*
%TO.N,Net-(U1-Pad1)*%
X94371160Y-86969600D03*
X51358800Y-82956400D03*
%TO.N,Net-(C3-Pad2)*%
X82956400Y-102514400D03*
%TO.N,Net-(J12-Pad4)*%
X64338200Y-121335800D03*
%TO.N,Net-(J12-Pad10)*%
X91313000Y-110058200D03*
%TO.N,Net-(J12-Pad12)*%
X91322600Y-111328200D03*
%TO.N,Net-(J12-Pad11)*%
X91322600Y-113868200D03*
%TD*%
D22*
%TO.N,3.3V*%
X99314000Y-110286800D02*
X100279200Y-110286800D01*
X101118800Y-111126400D02*
X101118800Y-118743200D01*
X100279200Y-110286800D02*
X101118800Y-111126400D01*
X70785275Y-88823800D02*
X73098937Y-91137463D01*
D23*
X70485000Y-88823800D02*
X70785275Y-88823800D01*
D22*
X86868000Y-104597200D02*
X87833200Y-103835200D01*
X81381600Y-104597200D02*
X86868000Y-104597200D01*
X80416400Y-103632000D02*
X81381600Y-104597200D01*
X80416400Y-102565200D02*
X80416400Y-103632000D01*
X89357200Y-105156000D02*
X94132400Y-105156000D01*
X87833200Y-103835200D02*
X89357200Y-105156000D01*
X69215000Y-88823800D02*
X70485000Y-88823800D01*
X68707000Y-88315800D02*
X69215000Y-88823800D01*
X68707000Y-84937600D02*
X68707000Y-88315800D01*
X67640200Y-83870800D02*
X68707000Y-84937600D01*
X54737000Y-83870800D02*
X67640200Y-83870800D01*
X53797200Y-84810600D02*
X54737000Y-83870800D01*
X53797200Y-90257800D02*
X53797200Y-84810600D01*
X53757200Y-90297800D02*
X53797200Y-90257800D01*
D23*
%TO.N,Net-(J12-Pad9)*%
X91322600Y-115138200D02*
X91322600Y-115138200D01*
%TO.N,Net-(U1-Pad7)*%
X98069400Y-107180291D02*
X92626091Y-112623600D01*
X92626091Y-112623600D02*
X91338400Y-112623600D01*
X98069400Y-107137200D02*
X98069400Y-107180291D01*
%TO.N,Net-(U1-Pad3)*%
X95336360Y-90490040D02*
X93301820Y-92524580D01*
X95336360Y-83632040D02*
X95336360Y-90490040D01*
X96240600Y-82727800D02*
X95336360Y-83632040D01*
X93301820Y-92524580D02*
X91409520Y-92524580D01*
X112979200Y-82727800D02*
X96240600Y-82727800D01*
X113004600Y-82753200D02*
X112979200Y-82727800D01*
%TO.N,Net-(U1-Pad2)*%
X92278200Y-83108800D02*
X52806600Y-83108800D01*
X93497400Y-84328000D02*
X92278200Y-83108800D01*
X52806600Y-83108800D02*
X52222400Y-83718400D01*
X93497400Y-89382600D02*
X93497400Y-84328000D01*
X92895420Y-89984580D02*
X93497400Y-89382600D01*
X91409520Y-89984580D02*
X92895420Y-89984580D01*
%TO.N,Net-(U1-Pad1)*%
X94361000Y-84277200D02*
X92608400Y-82524600D01*
X94361000Y-86959440D02*
X94361000Y-84277200D01*
X51790600Y-82524600D02*
X51358800Y-82956400D01*
X92608400Y-82524600D02*
X51790600Y-82524600D01*
X94371160Y-86969600D02*
X94361000Y-86959440D01*
%TO.N,Net-(C3-Pad2)*%
X87702400Y-98704400D02*
X87833200Y-98835200D01*
X83845400Y-98704400D02*
X87702400Y-98704400D01*
X82956400Y-99593400D02*
X83845400Y-98704400D01*
X82956400Y-102514400D02*
X82956400Y-99593400D01*
X104292400Y-104648000D02*
X104292400Y-105156000D01*
X102311200Y-102666800D02*
X104292400Y-104648000D01*
X89789000Y-102666800D02*
X102311200Y-102666800D01*
X87833200Y-100711000D02*
X89789000Y-102666800D01*
X87833200Y-98835200D02*
X87833200Y-100711000D01*
%TO.N,Net-(J12-Pad4)*%
X68707000Y-95681800D02*
X70485000Y-93903800D01*
X68707000Y-98272600D02*
X68707000Y-95681800D01*
X66014600Y-100965000D02*
X68707000Y-98272600D01*
X66014600Y-114681000D02*
X66014600Y-100965000D01*
X62585600Y-118110000D02*
X66014600Y-114681000D01*
X62585600Y-119430800D02*
X62585600Y-118110000D01*
X64338200Y-121335800D02*
X62585600Y-119430800D01*
X109423200Y-95300800D02*
X109423200Y-102844600D01*
X109186980Y-95064580D02*
X109423200Y-95300800D01*
X107574080Y-95064580D02*
X109186980Y-95064580D01*
%TO.N,Net-(J12-Pad6)*%
X64032000Y-117527200D02*
X64032000Y-118692400D01*
X66573400Y-114985800D02*
X64032000Y-117527200D01*
X66573400Y-102895400D02*
X66573400Y-114985800D01*
X70485000Y-98983800D02*
X66573400Y-102895400D01*
%TO.N,Net-(J12-Pad7)*%
X70840600Y-118643000D02*
X70890000Y-118692400D01*
X70840600Y-117246400D02*
X70840600Y-118643000D01*
X67513200Y-117246400D02*
X70840600Y-117246400D01*
X67106800Y-116840000D02*
X67513200Y-117246400D01*
X67106800Y-104902000D02*
X67106800Y-116840000D01*
X70485000Y-101523800D02*
X67106800Y-104902000D01*
%TO.N,Net-(J12-Pad8)*%
X67665600Y-116382800D02*
X67894200Y-116611400D01*
X75616200Y-116611400D02*
X77697200Y-118692400D01*
X67894200Y-116611400D02*
X75616200Y-116611400D01*
X67665600Y-106832400D02*
X67665600Y-116382800D01*
X70434200Y-104063800D02*
X67665600Y-106832400D01*
X70485000Y-104063800D02*
X70434200Y-104063800D01*
%TO.N,Net-(J12-Pad9)*%
X84504400Y-118692400D02*
X84480400Y-116662200D01*
X86080600Y-115138200D02*
X91322600Y-115138200D01*
X84531200Y-116687600D02*
X86080600Y-115138200D01*
X82042000Y-116687600D02*
X84531200Y-116687600D01*
X81381600Y-116027200D02*
X82042000Y-116687600D01*
X68351400Y-116027200D02*
X81381600Y-116027200D01*
X68199000Y-115874800D02*
X68351400Y-116027200D01*
X68199000Y-108889800D02*
X68199000Y-115874800D01*
X70485000Y-106603800D02*
X68199000Y-108889800D01*
%TO.N,Net-(J12-Pad10)*%
X89814400Y-110058200D02*
X91313000Y-110058200D01*
X87757000Y-112115600D02*
X89814400Y-110058200D01*
X73456800Y-112115600D02*
X87757000Y-112115600D01*
X70485000Y-109143800D02*
X73456800Y-112115600D01*
%TO.N,Net-(J12-Pad12)*%
X91271800Y-111379000D02*
X91322600Y-111328200D01*
X90017600Y-111379000D02*
X91271800Y-111379000D01*
X88417400Y-112979200D02*
X90017600Y-111379000D01*
X80010000Y-112979200D02*
X88417400Y-112979200D01*
X78765400Y-114223800D02*
X80010000Y-112979200D01*
X70485000Y-114223800D02*
X78765400Y-114223800D01*
%TO.N,Net-(J12-Pad11)*%
X81356200Y-113868200D02*
X87757000Y-113868200D01*
X87757000Y-113868200D02*
X91322600Y-113868200D01*
X79705200Y-115519200D02*
X81356200Y-113868200D01*
X68961000Y-115519200D02*
X79705200Y-115519200D01*
X68681600Y-115239800D02*
X68961000Y-115519200D01*
X68681600Y-113487200D02*
X68681600Y-115239800D01*
X70485000Y-111683800D02*
X68681600Y-113487200D01*
%TD*%
D24*
%TO.N,GND*%
X114198801Y-123088800D02*
X50901200Y-123088800D01*
X50901200Y-118511649D01*
X56039000Y-118511649D01*
X56039000Y-118873152D01*
X56055423Y-119039899D01*
X56120324Y-119253847D01*
X56225716Y-119451023D01*
X56367552Y-119623849D01*
X56540378Y-119765684D01*
X56737554Y-119871076D01*
X56951502Y-119935977D01*
X57174000Y-119957891D01*
X57396499Y-119935977D01*
X57610447Y-119871076D01*
X57807623Y-119765684D01*
X57928877Y-119666173D01*
X58008548Y-119736720D01*
X58200685Y-119848879D01*
X58372126Y-119911519D01*
X58547000Y-119785354D01*
X58547000Y-118819400D01*
X58527000Y-118819400D01*
X58527000Y-118565400D01*
X58547000Y-118565400D01*
X58547000Y-117599446D01*
X58801000Y-117599446D01*
X58801000Y-118565400D01*
X58821000Y-118565400D01*
X58821000Y-118819400D01*
X58801000Y-118819400D01*
X58801000Y-119785354D01*
X58975874Y-119911519D01*
X59147315Y-119848879D01*
X59339452Y-119736720D01*
X59419124Y-119666173D01*
X59540378Y-119765684D01*
X59737554Y-119871076D01*
X59951502Y-119935977D01*
X60174000Y-119957891D01*
X60396499Y-119935977D01*
X60610447Y-119871076D01*
X60807623Y-119765684D01*
X60980449Y-119623849D01*
X61122284Y-119451023D01*
X61227676Y-119253846D01*
X61292577Y-119039898D01*
X61309000Y-118873151D01*
X61309000Y-118511648D01*
X61292577Y-118344901D01*
X61227676Y-118130953D01*
X61122284Y-117933777D01*
X60980449Y-117760951D01*
X60807623Y-117619116D01*
X60610446Y-117513724D01*
X60396498Y-117448823D01*
X60174000Y-117426909D01*
X59951501Y-117448823D01*
X59737553Y-117513724D01*
X59540377Y-117619116D01*
X59419123Y-117718627D01*
X59339452Y-117648080D01*
X59147315Y-117535921D01*
X58975874Y-117473281D01*
X58801000Y-117599446D01*
X58547000Y-117599446D01*
X58372126Y-117473281D01*
X58200685Y-117535921D01*
X58008548Y-117648080D01*
X57928877Y-117718627D01*
X57807623Y-117619116D01*
X57610446Y-117513724D01*
X57396498Y-117448823D01*
X57174000Y-117426909D01*
X56951501Y-117448823D01*
X56737553Y-117513724D01*
X56540377Y-117619116D01*
X56367551Y-117760951D01*
X56225716Y-117933777D01*
X56120324Y-118130954D01*
X56055423Y-118344902D01*
X56039000Y-118511649D01*
X50901200Y-118511649D01*
X50901200Y-95449817D01*
X52355290Y-95449817D01*
X52396278Y-95721933D01*
X52489564Y-95980823D01*
X52551544Y-96096780D01*
X52791635Y-96163760D01*
X53577595Y-95377800D01*
X53936805Y-95377800D01*
X54722765Y-96163760D01*
X54962856Y-96096780D01*
X55079956Y-95847752D01*
X55146223Y-95580665D01*
X55159110Y-95305783D01*
X55118122Y-95033667D01*
X55024836Y-94774777D01*
X54962856Y-94658820D01*
X54722765Y-94591840D01*
X53936805Y-95377800D01*
X53577595Y-95377800D01*
X52791635Y-94591840D01*
X52551544Y-94658820D01*
X52434444Y-94907848D01*
X52368177Y-95174935D01*
X52355290Y-95449817D01*
X50901200Y-95449817D01*
X50901200Y-93803365D01*
X52971240Y-93803365D01*
X53038220Y-94043456D01*
X53168844Y-94104879D01*
X53154177Y-94110164D01*
X53038220Y-94172144D01*
X52971240Y-94412235D01*
X53757200Y-95198195D01*
X54543160Y-94412235D01*
X54476180Y-94172144D01*
X54345556Y-94110721D01*
X54360223Y-94105436D01*
X54476180Y-94043456D01*
X54543160Y-93803365D01*
X53757200Y-93017405D01*
X52971240Y-93803365D01*
X50901200Y-93803365D01*
X50901200Y-92909817D01*
X52355290Y-92909817D01*
X52396278Y-93181933D01*
X52489564Y-93440823D01*
X52551544Y-93556780D01*
X52791635Y-93623760D01*
X53577595Y-92837800D01*
X53936805Y-92837800D01*
X54722765Y-93623760D01*
X54962856Y-93556780D01*
X55079956Y-93307752D01*
X55146223Y-93040665D01*
X55159110Y-92765783D01*
X55118122Y-92493667D01*
X55024836Y-92234777D01*
X54962856Y-92118820D01*
X54722765Y-92051840D01*
X53936805Y-92837800D01*
X53577595Y-92837800D01*
X52791635Y-92051840D01*
X52551544Y-92118820D01*
X52434444Y-92367848D01*
X52368177Y-92634935D01*
X52355290Y-92909817D01*
X50901200Y-92909817D01*
X50901200Y-83887132D01*
X51056902Y-83951626D01*
X51219966Y-83984061D01*
X51227174Y-84020298D01*
X51305195Y-84208656D01*
X51418463Y-84378174D01*
X51562626Y-84522337D01*
X51732144Y-84635605D01*
X51920502Y-84713626D01*
X52120461Y-84753400D01*
X52324339Y-84753400D01*
X52524298Y-84713626D01*
X52712656Y-84635605D01*
X52882174Y-84522337D01*
X53026337Y-84378174D01*
X53139605Y-84208656D01*
X53217626Y-84020298D01*
X53247761Y-83868800D01*
X53593488Y-83868800D01*
X53252583Y-84209705D01*
X53221673Y-84235072D01*
X53187100Y-84277200D01*
X53120451Y-84358411D01*
X53063979Y-84464064D01*
X53045238Y-84499127D01*
X53003838Y-84635605D01*
X52998921Y-84651813D01*
X52983281Y-84810600D01*
X52987201Y-84850398D01*
X52987200Y-88898516D01*
X52870718Y-88909988D01*
X52751020Y-88946298D01*
X52640706Y-89005263D01*
X52544015Y-89084615D01*
X52464663Y-89181306D01*
X52405698Y-89291620D01*
X52369388Y-89411318D01*
X52357128Y-89535800D01*
X52357128Y-91059800D01*
X52369388Y-91184282D01*
X52405698Y-91303980D01*
X52464663Y-91414294D01*
X52544015Y-91510985D01*
X52640706Y-91590337D01*
X52751020Y-91649302D01*
X52870718Y-91685612D01*
X52995200Y-91697872D01*
X53019883Y-91697872D01*
X52971240Y-91872235D01*
X53757200Y-92658195D01*
X54543160Y-91872235D01*
X54494517Y-91697872D01*
X54519200Y-91697872D01*
X54643682Y-91685612D01*
X54763380Y-91649302D01*
X54873694Y-91590337D01*
X54970385Y-91510985D01*
X55049737Y-91414294D01*
X55108702Y-91303980D01*
X55145012Y-91184282D01*
X55157272Y-91059800D01*
X55157272Y-89535800D01*
X55145012Y-89411318D01*
X55108702Y-89291620D01*
X55049737Y-89181306D01*
X54970385Y-89084615D01*
X54873694Y-89005263D01*
X54763380Y-88946298D01*
X54643682Y-88909988D01*
X54607200Y-88906395D01*
X54607200Y-85146112D01*
X55072513Y-84680800D01*
X57670907Y-84680800D01*
X57580120Y-84816673D01*
X57471947Y-85077826D01*
X57416800Y-85355065D01*
X57416800Y-85637735D01*
X57471947Y-85914974D01*
X57580120Y-86176127D01*
X57737163Y-86411159D01*
X57937041Y-86611037D01*
X58169559Y-86766400D01*
X57937041Y-86921763D01*
X57737163Y-87121641D01*
X57580120Y-87356673D01*
X57471947Y-87617826D01*
X57416800Y-87895065D01*
X57416800Y-88177735D01*
X57471947Y-88454974D01*
X57580120Y-88716127D01*
X57737163Y-88951159D01*
X57937041Y-89151037D01*
X58169559Y-89306400D01*
X57937041Y-89461763D01*
X57737163Y-89661641D01*
X57580120Y-89896673D01*
X57471947Y-90157826D01*
X57416800Y-90435065D01*
X57416800Y-90717735D01*
X57471947Y-90994974D01*
X57580120Y-91256127D01*
X57737163Y-91491159D01*
X57937041Y-91691037D01*
X58169559Y-91846400D01*
X57937041Y-92001763D01*
X57737163Y-92201641D01*
X57580120Y-92436673D01*
X57471947Y-92697826D01*
X57416800Y-92975065D01*
X57416800Y-93257735D01*
X57471947Y-93534974D01*
X57580120Y-93796127D01*
X57737163Y-94031159D01*
X57937041Y-94231037D01*
X58169559Y-94386400D01*
X57937041Y-94541763D01*
X57737163Y-94741641D01*
X57580120Y-94976673D01*
X57471947Y-95237826D01*
X57416800Y-95515065D01*
X57416800Y-95797735D01*
X57471947Y-96074974D01*
X57580120Y-96336127D01*
X57737163Y-96571159D01*
X57937041Y-96771037D01*
X58169559Y-96926400D01*
X57937041Y-97081763D01*
X57737163Y-97281641D01*
X57580120Y-97516673D01*
X57471947Y-97777826D01*
X57416800Y-98055065D01*
X57416800Y-98337735D01*
X57471947Y-98614974D01*
X57580120Y-98876127D01*
X57737163Y-99111159D01*
X57937041Y-99311037D01*
X58169559Y-99466400D01*
X57937041Y-99621763D01*
X57737163Y-99821641D01*
X57580120Y-100056673D01*
X57471947Y-100317826D01*
X57416800Y-100595065D01*
X57416800Y-100877735D01*
X57471947Y-101154974D01*
X57580120Y-101416127D01*
X57737163Y-101651159D01*
X57937041Y-101851037D01*
X58169559Y-102006400D01*
X57937041Y-102161763D01*
X57737163Y-102361641D01*
X57580120Y-102596673D01*
X57471947Y-102857826D01*
X57416800Y-103135065D01*
X57416800Y-103417735D01*
X57471947Y-103694974D01*
X57580120Y-103956127D01*
X57737163Y-104191159D01*
X57937041Y-104391037D01*
X58169559Y-104546400D01*
X57937041Y-104701763D01*
X57737163Y-104901641D01*
X57580120Y-105136673D01*
X57471947Y-105397826D01*
X57416800Y-105675065D01*
X57416800Y-105957735D01*
X57471947Y-106234974D01*
X57580120Y-106496127D01*
X57737163Y-106731159D01*
X57937041Y-106931037D01*
X58169559Y-107086400D01*
X57937041Y-107241763D01*
X57737163Y-107441641D01*
X57580120Y-107676673D01*
X57471947Y-107937826D01*
X57416800Y-108215065D01*
X57416800Y-108497735D01*
X57471947Y-108774974D01*
X57580120Y-109036127D01*
X57737163Y-109271159D01*
X57937041Y-109471037D01*
X58169559Y-109626400D01*
X57937041Y-109781763D01*
X57737163Y-109981641D01*
X57581800Y-110214159D01*
X57426437Y-109981641D01*
X57226559Y-109781763D01*
X56991527Y-109624720D01*
X56730374Y-109516547D01*
X56453135Y-109461400D01*
X56170465Y-109461400D01*
X55893226Y-109516547D01*
X55632073Y-109624720D01*
X55397041Y-109781763D01*
X55197163Y-109981641D01*
X55079029Y-110158441D01*
X54995205Y-109956073D01*
X54842320Y-109727265D01*
X54647735Y-109532680D01*
X54418927Y-109379795D01*
X54341685Y-109347800D01*
X54418927Y-109315805D01*
X54647735Y-109162920D01*
X54842320Y-108968335D01*
X54995205Y-108739527D01*
X55100514Y-108485290D01*
X55154200Y-108215392D01*
X55154200Y-107940208D01*
X55100514Y-107670310D01*
X54995205Y-107416073D01*
X54842320Y-107187265D01*
X54647735Y-106992680D01*
X54418927Y-106839795D01*
X54341685Y-106807800D01*
X54418927Y-106775805D01*
X54647735Y-106622920D01*
X54842320Y-106428335D01*
X54995205Y-106199527D01*
X55100514Y-105945290D01*
X55154200Y-105675392D01*
X55154200Y-105400208D01*
X55100514Y-105130310D01*
X54995205Y-104876073D01*
X54842320Y-104647265D01*
X54647735Y-104452680D01*
X54418927Y-104299795D01*
X54341685Y-104267800D01*
X54418927Y-104235805D01*
X54647735Y-104082920D01*
X54842320Y-103888335D01*
X54995205Y-103659527D01*
X55100514Y-103405290D01*
X55154200Y-103135392D01*
X55154200Y-102860208D01*
X55100514Y-102590310D01*
X54995205Y-102336073D01*
X54842320Y-102107265D01*
X54647735Y-101912680D01*
X54418927Y-101759795D01*
X54341685Y-101727800D01*
X54418927Y-101695805D01*
X54647735Y-101542920D01*
X54842320Y-101348335D01*
X54995205Y-101119527D01*
X55100514Y-100865290D01*
X55154200Y-100595392D01*
X55154200Y-100320208D01*
X55100514Y-100050310D01*
X54995205Y-99796073D01*
X54842320Y-99567265D01*
X54647735Y-99372680D01*
X54418927Y-99219795D01*
X54341685Y-99187800D01*
X54418927Y-99155805D01*
X54647735Y-99002920D01*
X54842320Y-98808335D01*
X54995205Y-98579527D01*
X55100514Y-98325290D01*
X55154200Y-98055392D01*
X55154200Y-97780208D01*
X55100514Y-97510310D01*
X54995205Y-97256073D01*
X54842320Y-97027265D01*
X54647735Y-96832680D01*
X54418927Y-96679795D01*
X54347257Y-96650108D01*
X54360223Y-96645436D01*
X54476180Y-96583456D01*
X54543160Y-96343365D01*
X53757200Y-95557405D01*
X52971240Y-96343365D01*
X53038220Y-96583456D01*
X53173960Y-96647285D01*
X53095473Y-96679795D01*
X52866665Y-96832680D01*
X52672080Y-97027265D01*
X52519195Y-97256073D01*
X52413886Y-97510310D01*
X52360200Y-97780208D01*
X52360200Y-98055392D01*
X52413886Y-98325290D01*
X52519195Y-98579527D01*
X52672080Y-98808335D01*
X52866665Y-99002920D01*
X53095473Y-99155805D01*
X53172715Y-99187800D01*
X53095473Y-99219795D01*
X52866665Y-99372680D01*
X52672080Y-99567265D01*
X52519195Y-99796073D01*
X52413886Y-100050310D01*
X52360200Y-100320208D01*
X52360200Y-100595392D01*
X52413886Y-100865290D01*
X52519195Y-101119527D01*
X52672080Y-101348335D01*
X52866665Y-101542920D01*
X53095473Y-101695805D01*
X53172715Y-101727800D01*
X53095473Y-101759795D01*
X52866665Y-101912680D01*
X52672080Y-102107265D01*
X52519195Y-102336073D01*
X52413886Y-102590310D01*
X52360200Y-102860208D01*
X52360200Y-103135392D01*
X52413886Y-103405290D01*
X52519195Y-103659527D01*
X52672080Y-103888335D01*
X52866665Y-104082920D01*
X53095473Y-104235805D01*
X53172715Y-104267800D01*
X53095473Y-104299795D01*
X52866665Y-104452680D01*
X52672080Y-104647265D01*
X52519195Y-104876073D01*
X52413886Y-105130310D01*
X52360200Y-105400208D01*
X52360200Y-105675392D01*
X52413886Y-105945290D01*
X52519195Y-106199527D01*
X52672080Y-106428335D01*
X52866665Y-106622920D01*
X53095473Y-106775805D01*
X53172715Y-106807800D01*
X53095473Y-106839795D01*
X52866665Y-106992680D01*
X52672080Y-107187265D01*
X52519195Y-107416073D01*
X52413886Y-107670310D01*
X52360200Y-107940208D01*
X52360200Y-108215392D01*
X52413886Y-108485290D01*
X52519195Y-108739527D01*
X52672080Y-108968335D01*
X52866665Y-109162920D01*
X53095473Y-109315805D01*
X53172715Y-109347800D01*
X53095473Y-109379795D01*
X52866665Y-109532680D01*
X52672080Y-109727265D01*
X52519195Y-109956073D01*
X52413886Y-110210310D01*
X52360200Y-110480208D01*
X52360200Y-110755392D01*
X52413886Y-111025290D01*
X52519195Y-111279527D01*
X52672080Y-111508335D01*
X52866665Y-111702920D01*
X53095473Y-111855805D01*
X53172715Y-111887800D01*
X53095473Y-111919795D01*
X52866665Y-112072680D01*
X52672080Y-112267265D01*
X52519195Y-112496073D01*
X52413886Y-112750310D01*
X52360200Y-113020208D01*
X52360200Y-113295392D01*
X52413886Y-113565290D01*
X52519195Y-113819527D01*
X52672080Y-114048335D01*
X52866665Y-114242920D01*
X53095473Y-114395805D01*
X53172715Y-114427800D01*
X53095473Y-114459795D01*
X52866665Y-114612680D01*
X52672080Y-114807265D01*
X52519195Y-115036073D01*
X52413886Y-115290310D01*
X52360200Y-115560208D01*
X52360200Y-115835392D01*
X52413886Y-116105290D01*
X52519195Y-116359527D01*
X52672080Y-116588335D01*
X52866665Y-116782920D01*
X53095473Y-116935805D01*
X53349710Y-117041114D01*
X53619608Y-117094800D01*
X53894792Y-117094800D01*
X54164690Y-117041114D01*
X54418927Y-116935805D01*
X54647735Y-116782920D01*
X54842320Y-116588335D01*
X54947091Y-116431535D01*
X55040120Y-116656127D01*
X55197163Y-116891159D01*
X55397041Y-117091037D01*
X55632073Y-117248080D01*
X55893226Y-117356253D01*
X56170465Y-117411400D01*
X56453135Y-117411400D01*
X56730374Y-117356253D01*
X56991527Y-117248080D01*
X57226559Y-117091037D01*
X57426437Y-116891159D01*
X57581800Y-116658641D01*
X57737163Y-116891159D01*
X57937041Y-117091037D01*
X58172073Y-117248080D01*
X58433226Y-117356253D01*
X58710465Y-117411400D01*
X58993135Y-117411400D01*
X59270374Y-117356253D01*
X59531527Y-117248080D01*
X59766559Y-117091037D01*
X59966437Y-116891159D01*
X60121800Y-116658641D01*
X60277163Y-116891159D01*
X60477041Y-117091037D01*
X60712073Y-117248080D01*
X60973226Y-117356253D01*
X61250465Y-117411400D01*
X61533135Y-117411400D01*
X61810374Y-117356253D01*
X62071527Y-117248080D01*
X62306559Y-117091037D01*
X62506437Y-116891159D01*
X62663480Y-116656127D01*
X62771653Y-116394974D01*
X62826800Y-116117735D01*
X62826800Y-115835065D01*
X62771653Y-115557826D01*
X62663480Y-115296673D01*
X62506437Y-115061641D01*
X62306559Y-114861763D01*
X62074041Y-114706400D01*
X62306559Y-114551037D01*
X62506437Y-114351159D01*
X62661800Y-114118641D01*
X62817163Y-114351159D01*
X63017041Y-114551037D01*
X63252073Y-114708080D01*
X63513226Y-114816253D01*
X63790465Y-114871400D01*
X64073135Y-114871400D01*
X64350374Y-114816253D01*
X64611527Y-114708080D01*
X64846559Y-114551037D01*
X65046437Y-114351159D01*
X65203480Y-114116127D01*
X65254600Y-113992712D01*
X65254600Y-114366198D01*
X62074598Y-117546201D01*
X62045600Y-117569999D01*
X62021802Y-117598997D01*
X62021801Y-117598998D01*
X61950626Y-117685724D01*
X61880054Y-117817754D01*
X61879541Y-117819446D01*
X61839492Y-117951476D01*
X61836598Y-117961015D01*
X61821924Y-118110000D01*
X61825601Y-118147332D01*
X61825600Y-119377591D01*
X61822586Y-119399008D01*
X61825600Y-119452264D01*
X61825600Y-119468132D01*
X61827711Y-119489566D01*
X61831045Y-119548475D01*
X61835033Y-119563909D01*
X61836597Y-119579785D01*
X61853736Y-119636286D01*
X61868500Y-119693420D01*
X61875423Y-119707780D01*
X61880054Y-119723046D01*
X61907887Y-119775117D01*
X61933514Y-119828273D01*
X61943108Y-119841010D01*
X61950626Y-119855075D01*
X61988070Y-119900702D01*
X62001016Y-119917888D01*
X62011749Y-119929555D01*
X62045599Y-119970801D01*
X62062323Y-119984526D01*
X63303200Y-121333305D01*
X63303200Y-121437739D01*
X63342974Y-121637698D01*
X63420995Y-121826056D01*
X63534263Y-121995574D01*
X63678426Y-122139737D01*
X63847944Y-122253005D01*
X64036302Y-122331026D01*
X64236261Y-122370800D01*
X64440139Y-122370800D01*
X64640098Y-122331026D01*
X64828456Y-122253005D01*
X64997974Y-122139737D01*
X65142137Y-121995574D01*
X65255405Y-121826056D01*
X65333426Y-121637698D01*
X65373200Y-121437739D01*
X65373200Y-121233861D01*
X65333426Y-121033902D01*
X65255405Y-120845544D01*
X65142137Y-120676026D01*
X64997974Y-120531863D01*
X64828456Y-120418595D01*
X64640098Y-120340574D01*
X64440139Y-120300800D01*
X64418706Y-120300800D01*
X64097311Y-119951458D01*
X64254499Y-119935977D01*
X64468447Y-119871076D01*
X64665623Y-119765684D01*
X64786877Y-119666173D01*
X64866548Y-119736720D01*
X65058685Y-119848879D01*
X65230126Y-119911519D01*
X65405000Y-119785354D01*
X65405000Y-118819400D01*
X65385000Y-118819400D01*
X65385000Y-118565400D01*
X65405000Y-118565400D01*
X65405000Y-117599446D01*
X65230126Y-117473281D01*
X65120761Y-117513240D01*
X66346801Y-116287201D01*
X66346801Y-116802668D01*
X66343124Y-116840000D01*
X66357798Y-116988985D01*
X66401254Y-117132246D01*
X66471826Y-117264276D01*
X66539161Y-117346323D01*
X66566800Y-117380001D01*
X66595798Y-117403799D01*
X66680081Y-117488082D01*
X66595553Y-117513724D01*
X66398377Y-117619116D01*
X66277123Y-117718627D01*
X66197452Y-117648080D01*
X66005315Y-117535921D01*
X65833874Y-117473281D01*
X65659000Y-117599446D01*
X65659000Y-118565400D01*
X65679000Y-118565400D01*
X65679000Y-118819400D01*
X65659000Y-118819400D01*
X65659000Y-119785354D01*
X65833874Y-119911519D01*
X66005315Y-119848879D01*
X66197452Y-119736720D01*
X66277124Y-119666173D01*
X66398378Y-119765684D01*
X66595554Y-119871076D01*
X66809502Y-119935977D01*
X67032000Y-119957891D01*
X67254499Y-119935977D01*
X67468447Y-119871076D01*
X67665623Y-119765684D01*
X67838449Y-119623849D01*
X67980284Y-119451023D01*
X68085676Y-119253846D01*
X68150577Y-119039898D01*
X68167000Y-118873151D01*
X68167000Y-118511648D01*
X68150577Y-118344901D01*
X68085676Y-118130953D01*
X68019102Y-118006400D01*
X69902899Y-118006400D01*
X69836324Y-118130954D01*
X69771423Y-118344902D01*
X69755000Y-118511649D01*
X69755000Y-118873152D01*
X69771423Y-119039899D01*
X69836324Y-119253847D01*
X69941716Y-119451023D01*
X70083552Y-119623849D01*
X70256378Y-119765684D01*
X70453554Y-119871076D01*
X70667502Y-119935977D01*
X70890000Y-119957891D01*
X71112499Y-119935977D01*
X71326447Y-119871076D01*
X71523623Y-119765684D01*
X71644877Y-119666173D01*
X71724548Y-119736720D01*
X71916685Y-119848879D01*
X72088126Y-119911519D01*
X72263000Y-119785354D01*
X72263000Y-118819400D01*
X72243000Y-118819400D01*
X72243000Y-118565400D01*
X72263000Y-118565400D01*
X72263000Y-117599446D01*
X72517000Y-117599446D01*
X72517000Y-118565400D01*
X72537000Y-118565400D01*
X72537000Y-118819400D01*
X72517000Y-118819400D01*
X72517000Y-119785354D01*
X72691874Y-119911519D01*
X72863315Y-119848879D01*
X73055452Y-119736720D01*
X73135124Y-119666173D01*
X73256378Y-119765684D01*
X73453554Y-119871076D01*
X73667502Y-119935977D01*
X73890000Y-119957891D01*
X74112499Y-119935977D01*
X74326447Y-119871076D01*
X74523623Y-119765684D01*
X74696449Y-119623849D01*
X74838284Y-119451023D01*
X74943676Y-119253846D01*
X75008577Y-119039898D01*
X75025000Y-118873151D01*
X75025000Y-118511648D01*
X75008577Y-118344901D01*
X74943676Y-118130953D01*
X74838284Y-117933777D01*
X74696449Y-117760951D01*
X74523623Y-117619116D01*
X74326446Y-117513724D01*
X74112498Y-117448823D01*
X73890000Y-117426909D01*
X73667501Y-117448823D01*
X73453553Y-117513724D01*
X73256377Y-117619116D01*
X73135123Y-117718627D01*
X73055452Y-117648080D01*
X72863315Y-117535921D01*
X72691874Y-117473281D01*
X72517000Y-117599446D01*
X72263000Y-117599446D01*
X72088126Y-117473281D01*
X71916685Y-117535921D01*
X71724548Y-117648080D01*
X71644877Y-117718627D01*
X71600600Y-117682290D01*
X71600600Y-117371400D01*
X75301399Y-117371400D01*
X76562200Y-118632202D01*
X76562200Y-118873152D01*
X76578623Y-119039899D01*
X76643524Y-119253847D01*
X76748916Y-119451023D01*
X76890752Y-119623849D01*
X77063578Y-119765684D01*
X77260754Y-119871076D01*
X77474702Y-119935977D01*
X77697200Y-119957891D01*
X77919699Y-119935977D01*
X78133647Y-119871076D01*
X78330823Y-119765684D01*
X78452077Y-119666173D01*
X78531748Y-119736720D01*
X78723885Y-119848879D01*
X78895326Y-119911519D01*
X79070200Y-119785354D01*
X79070200Y-118819400D01*
X79050200Y-118819400D01*
X79050200Y-118565400D01*
X79070200Y-118565400D01*
X79070200Y-117599446D01*
X79324200Y-117599446D01*
X79324200Y-118565400D01*
X79344200Y-118565400D01*
X79344200Y-118819400D01*
X79324200Y-118819400D01*
X79324200Y-119785354D01*
X79499074Y-119911519D01*
X79670515Y-119848879D01*
X79862652Y-119736720D01*
X79942324Y-119666173D01*
X80063578Y-119765684D01*
X80260754Y-119871076D01*
X80474702Y-119935977D01*
X80697200Y-119957891D01*
X80919699Y-119935977D01*
X81133647Y-119871076D01*
X81330823Y-119765684D01*
X81503649Y-119623849D01*
X81645484Y-119451023D01*
X81750876Y-119253846D01*
X81815777Y-119039898D01*
X81832200Y-118873151D01*
X81832200Y-118511648D01*
X81815777Y-118344901D01*
X81750876Y-118130953D01*
X81645484Y-117933777D01*
X81503649Y-117760951D01*
X81330823Y-117619116D01*
X81133646Y-117513724D01*
X80919698Y-117448823D01*
X80697200Y-117426909D01*
X80474701Y-117448823D01*
X80260753Y-117513724D01*
X80063577Y-117619116D01*
X79942323Y-117718627D01*
X79862652Y-117648080D01*
X79670515Y-117535921D01*
X79499074Y-117473281D01*
X79324200Y-117599446D01*
X79070200Y-117599446D01*
X78895326Y-117473281D01*
X78723885Y-117535921D01*
X78531748Y-117648080D01*
X78452077Y-117718627D01*
X78330823Y-117619116D01*
X78133646Y-117513724D01*
X77919698Y-117448823D01*
X77697200Y-117426909D01*
X77523608Y-117444006D01*
X76866802Y-116787200D01*
X81066799Y-116787200D01*
X81478200Y-117198602D01*
X81501999Y-117227601D01*
X81617724Y-117322574D01*
X81749753Y-117393146D01*
X81893014Y-117436603D01*
X82004667Y-117447600D01*
X82004675Y-117447600D01*
X82042000Y-117451276D01*
X82079325Y-117447600D01*
X83729632Y-117447600D01*
X83732996Y-117732190D01*
X83697951Y-117760951D01*
X83556116Y-117933777D01*
X83450724Y-118130954D01*
X83385823Y-118344902D01*
X83369400Y-118511649D01*
X83369400Y-118873152D01*
X83385823Y-119039899D01*
X83450724Y-119253847D01*
X83556116Y-119451023D01*
X83697952Y-119623849D01*
X83870778Y-119765684D01*
X84067954Y-119871076D01*
X84281902Y-119935977D01*
X84504400Y-119957891D01*
X84726899Y-119935977D01*
X84940847Y-119871076D01*
X85138023Y-119765684D01*
X85259277Y-119666173D01*
X85338948Y-119736720D01*
X85531085Y-119848879D01*
X85702526Y-119911519D01*
X85877400Y-119785354D01*
X85877400Y-118819400D01*
X85857400Y-118819400D01*
X85857400Y-118565400D01*
X85877400Y-118565400D01*
X85877400Y-117599446D01*
X86131400Y-117599446D01*
X86131400Y-118565400D01*
X86151400Y-118565400D01*
X86151400Y-118819400D01*
X86131400Y-118819400D01*
X86131400Y-119785354D01*
X86306274Y-119911519D01*
X86477715Y-119848879D01*
X86669852Y-119736720D01*
X86749524Y-119666173D01*
X86870778Y-119765684D01*
X87067954Y-119871076D01*
X87281902Y-119935977D01*
X87504400Y-119957891D01*
X87726899Y-119935977D01*
X87940847Y-119871076D01*
X88138023Y-119765684D01*
X88310849Y-119623849D01*
X88452684Y-119451023D01*
X88558076Y-119253846D01*
X88622977Y-119039898D01*
X88639400Y-118873151D01*
X88639400Y-118511649D01*
X90176600Y-118511649D01*
X90176600Y-118873152D01*
X90193023Y-119039899D01*
X90257924Y-119253847D01*
X90363316Y-119451023D01*
X90505152Y-119623849D01*
X90677978Y-119765684D01*
X90875154Y-119871076D01*
X91089102Y-119935977D01*
X91311600Y-119957891D01*
X91534099Y-119935977D01*
X91748047Y-119871076D01*
X91945223Y-119765684D01*
X92066477Y-119666173D01*
X92146148Y-119736720D01*
X92338285Y-119848879D01*
X92509726Y-119911519D01*
X92684600Y-119785354D01*
X92684600Y-118819400D01*
X92664600Y-118819400D01*
X92664600Y-118565400D01*
X92684600Y-118565400D01*
X92684600Y-117599446D01*
X92938600Y-117599446D01*
X92938600Y-118565400D01*
X92958600Y-118565400D01*
X92958600Y-118819400D01*
X92938600Y-118819400D01*
X92938600Y-119785354D01*
X93113474Y-119911519D01*
X93284915Y-119848879D01*
X93477052Y-119736720D01*
X93556724Y-119666173D01*
X93677978Y-119765684D01*
X93875154Y-119871076D01*
X94089102Y-119935977D01*
X94311600Y-119957891D01*
X94534099Y-119935977D01*
X94748047Y-119871076D01*
X94945223Y-119765684D01*
X95118049Y-119623849D01*
X95259884Y-119451023D01*
X95365276Y-119253846D01*
X95430177Y-119039898D01*
X95446600Y-118873151D01*
X95446600Y-118511649D01*
X96983800Y-118511649D01*
X96983800Y-118873152D01*
X97000223Y-119039899D01*
X97065124Y-119253847D01*
X97170516Y-119451023D01*
X97312352Y-119623849D01*
X97485178Y-119765684D01*
X97682354Y-119871076D01*
X97896302Y-119935977D01*
X98118800Y-119957891D01*
X98341299Y-119935977D01*
X98555247Y-119871076D01*
X98752423Y-119765684D01*
X98873677Y-119666173D01*
X98953348Y-119736720D01*
X99145485Y-119848879D01*
X99316926Y-119911519D01*
X99491800Y-119785354D01*
X99491800Y-118819400D01*
X99471800Y-118819400D01*
X99471800Y-118565400D01*
X99491800Y-118565400D01*
X99491800Y-117599446D01*
X99316926Y-117473281D01*
X99145485Y-117535921D01*
X98953348Y-117648080D01*
X98873677Y-117718627D01*
X98752423Y-117619116D01*
X98555246Y-117513724D01*
X98341298Y-117448823D01*
X98118800Y-117426909D01*
X97896301Y-117448823D01*
X97682353Y-117513724D01*
X97485177Y-117619116D01*
X97312351Y-117760951D01*
X97170516Y-117933777D01*
X97065124Y-118130954D01*
X97000223Y-118344902D01*
X96983800Y-118511649D01*
X95446600Y-118511649D01*
X95446600Y-118511648D01*
X95430177Y-118344901D01*
X95365276Y-118130953D01*
X95259884Y-117933777D01*
X95118049Y-117760951D01*
X94945223Y-117619116D01*
X94748046Y-117513724D01*
X94534098Y-117448823D01*
X94311600Y-117426909D01*
X94089101Y-117448823D01*
X93875153Y-117513724D01*
X93677977Y-117619116D01*
X93556723Y-117718627D01*
X93477052Y-117648080D01*
X93284915Y-117535921D01*
X93113474Y-117473281D01*
X92938600Y-117599446D01*
X92684600Y-117599446D01*
X92509726Y-117473281D01*
X92338285Y-117535921D01*
X92146148Y-117648080D01*
X92066477Y-117718627D01*
X91945223Y-117619116D01*
X91748046Y-117513724D01*
X91534098Y-117448823D01*
X91311600Y-117426909D01*
X91089101Y-117448823D01*
X90875153Y-117513724D01*
X90677977Y-117619116D01*
X90505151Y-117760951D01*
X90363316Y-117933777D01*
X90257924Y-118130954D01*
X90193023Y-118344902D01*
X90176600Y-118511649D01*
X88639400Y-118511649D01*
X88639400Y-118511648D01*
X88622977Y-118344901D01*
X88558076Y-118130953D01*
X88452684Y-117933777D01*
X88310849Y-117760951D01*
X88138023Y-117619116D01*
X87940846Y-117513724D01*
X87726898Y-117448823D01*
X87504400Y-117426909D01*
X87281901Y-117448823D01*
X87067953Y-117513724D01*
X86870777Y-117619116D01*
X86749523Y-117718627D01*
X86669852Y-117648080D01*
X86477715Y-117535921D01*
X86306274Y-117473281D01*
X86131400Y-117599446D01*
X85877400Y-117599446D01*
X85702526Y-117473281D01*
X85531085Y-117535921D01*
X85338948Y-117648080D01*
X85259277Y-117718627D01*
X85252879Y-117713376D01*
X85245020Y-117048581D01*
X86395403Y-115898200D01*
X90618889Y-115898200D01*
X90662826Y-115942137D01*
X90832344Y-116055405D01*
X91020702Y-116133426D01*
X91220661Y-116173200D01*
X91424539Y-116173200D01*
X91624498Y-116133426D01*
X91812856Y-116055405D01*
X91982374Y-115942137D01*
X92126537Y-115797974D01*
X92239805Y-115628456D01*
X92317826Y-115440098D01*
X92357600Y-115240139D01*
X92357600Y-115036261D01*
X92317826Y-114836302D01*
X92239805Y-114647944D01*
X92143090Y-114503200D01*
X92239805Y-114358456D01*
X92317826Y-114170098D01*
X92357600Y-113970139D01*
X92357600Y-113766261D01*
X92317826Y-113566302D01*
X92242148Y-113383600D01*
X92588769Y-113383600D01*
X92626091Y-113387276D01*
X92663413Y-113383600D01*
X92663424Y-113383600D01*
X92775077Y-113372603D01*
X92918338Y-113329146D01*
X93050367Y-113258574D01*
X93166092Y-113163601D01*
X93189895Y-113134597D01*
X93467180Y-112857312D01*
X97873783Y-112857312D01*
X97915213Y-113136930D01*
X98010397Y-113403092D01*
X98077329Y-113528314D01*
X98321298Y-113599897D01*
X99134395Y-112786800D01*
X98321298Y-111973703D01*
X98077329Y-112045286D01*
X97956429Y-112300796D01*
X97887700Y-112574984D01*
X97873783Y-112857312D01*
X93467180Y-112857312D01*
X96837693Y-109486800D01*
X97875928Y-109486800D01*
X97875928Y-111086800D01*
X97888188Y-111211282D01*
X97924498Y-111330980D01*
X97983463Y-111441294D01*
X98062815Y-111537985D01*
X98159506Y-111617337D01*
X98269820Y-111676302D01*
X98389518Y-111712612D01*
X98514000Y-111724872D01*
X98521215Y-111724872D01*
X98500903Y-111794098D01*
X99314000Y-112607195D01*
X99328143Y-112593053D01*
X99507748Y-112772658D01*
X99493605Y-112786800D01*
X99507748Y-112800943D01*
X99328143Y-112980548D01*
X99314000Y-112966405D01*
X98500903Y-113779502D01*
X98572486Y-114023471D01*
X98827996Y-114144371D01*
X99102184Y-114213100D01*
X99384512Y-114227017D01*
X99664130Y-114185587D01*
X99930292Y-114090403D01*
X100055514Y-114023471D01*
X100127097Y-113779504D01*
X100243370Y-113895777D01*
X100308800Y-113830347D01*
X100308801Y-117669817D01*
X100284252Y-117648080D01*
X100092115Y-117535921D01*
X99920674Y-117473281D01*
X99745800Y-117599446D01*
X99745800Y-118565400D01*
X99765800Y-118565400D01*
X99765800Y-118819400D01*
X99745800Y-118819400D01*
X99745800Y-119785354D01*
X99920674Y-119911519D01*
X100092115Y-119848879D01*
X100284252Y-119736720D01*
X100363924Y-119666173D01*
X100485178Y-119765684D01*
X100682354Y-119871076D01*
X100896302Y-119935977D01*
X101118800Y-119957891D01*
X101341299Y-119935977D01*
X101555247Y-119871076D01*
X101752423Y-119765684D01*
X101925249Y-119623849D01*
X102067084Y-119451023D01*
X102172476Y-119253846D01*
X102237377Y-119039898D01*
X102253800Y-118873151D01*
X102253800Y-118511649D01*
X103791000Y-118511649D01*
X103791000Y-118873152D01*
X103807423Y-119039899D01*
X103872324Y-119253847D01*
X103977716Y-119451023D01*
X104119552Y-119623849D01*
X104292378Y-119765684D01*
X104489554Y-119871076D01*
X104703502Y-119935977D01*
X104926000Y-119957891D01*
X105148499Y-119935977D01*
X105362447Y-119871076D01*
X105559623Y-119765684D01*
X105680877Y-119666173D01*
X105760548Y-119736720D01*
X105952685Y-119848879D01*
X106124126Y-119911519D01*
X106299000Y-119785354D01*
X106299000Y-118819400D01*
X106279000Y-118819400D01*
X106279000Y-118565400D01*
X106299000Y-118565400D01*
X106299000Y-117599446D01*
X106553000Y-117599446D01*
X106553000Y-118565400D01*
X106573000Y-118565400D01*
X106573000Y-118819400D01*
X106553000Y-118819400D01*
X106553000Y-119785354D01*
X106727874Y-119911519D01*
X106899315Y-119848879D01*
X107091452Y-119736720D01*
X107171124Y-119666173D01*
X107292378Y-119765684D01*
X107489554Y-119871076D01*
X107703502Y-119935977D01*
X107926000Y-119957891D01*
X108148499Y-119935977D01*
X108362447Y-119871076D01*
X108559623Y-119765684D01*
X108732449Y-119623849D01*
X108874284Y-119451023D01*
X108979676Y-119253846D01*
X109044577Y-119039898D01*
X109061000Y-118873151D01*
X109061000Y-118511648D01*
X109044577Y-118344901D01*
X108979676Y-118130953D01*
X108874284Y-117933777D01*
X108732449Y-117760951D01*
X108559623Y-117619116D01*
X108362446Y-117513724D01*
X108148498Y-117448823D01*
X107926000Y-117426909D01*
X107703501Y-117448823D01*
X107489553Y-117513724D01*
X107292377Y-117619116D01*
X107171123Y-117718627D01*
X107091452Y-117648080D01*
X106899315Y-117535921D01*
X106727874Y-117473281D01*
X106553000Y-117599446D01*
X106299000Y-117599446D01*
X106124126Y-117473281D01*
X105952685Y-117535921D01*
X105760548Y-117648080D01*
X105680877Y-117718627D01*
X105559623Y-117619116D01*
X105362446Y-117513724D01*
X105148498Y-117448823D01*
X104926000Y-117426909D01*
X104703501Y-117448823D01*
X104489553Y-117513724D01*
X104292377Y-117619116D01*
X104119551Y-117760951D01*
X103977716Y-117933777D01*
X103872324Y-118130954D01*
X103807423Y-118344902D01*
X103791000Y-118511649D01*
X102253800Y-118511649D01*
X102253800Y-118511648D01*
X102237377Y-118344901D01*
X102172476Y-118130953D01*
X102067084Y-117933777D01*
X101928800Y-117765278D01*
X101928800Y-115715840D01*
X106100891Y-115715840D01*
X106195730Y-115980681D01*
X106340415Y-116221931D01*
X106529386Y-116430319D01*
X106755380Y-116597837D01*
X107009713Y-116718046D01*
X107143761Y-116758704D01*
X107365800Y-116636715D01*
X107365800Y-115493800D01*
X107619800Y-115493800D01*
X107619800Y-116636715D01*
X107841839Y-116758704D01*
X107975887Y-116718046D01*
X108230220Y-116597837D01*
X108456214Y-116430319D01*
X108645185Y-116221931D01*
X108789870Y-115980681D01*
X108884709Y-115715840D01*
X108763424Y-115493800D01*
X107619800Y-115493800D01*
X107365800Y-115493800D01*
X106222176Y-115493800D01*
X106100891Y-115715840D01*
X101928800Y-115715840D01*
X101928800Y-115017760D01*
X106100891Y-115017760D01*
X106222176Y-115239800D01*
X107365800Y-115239800D01*
X107365800Y-114096885D01*
X107619800Y-114096885D01*
X107619800Y-115239800D01*
X108763424Y-115239800D01*
X108884709Y-115017760D01*
X108789870Y-114752919D01*
X108645185Y-114511669D01*
X108456214Y-114303281D01*
X108230220Y-114135763D01*
X107975887Y-114015554D01*
X107841839Y-113974896D01*
X107619800Y-114096885D01*
X107365800Y-114096885D01*
X107143761Y-113974896D01*
X107009713Y-114015554D01*
X106755380Y-114135763D01*
X106529386Y-114303281D01*
X106340415Y-114511669D01*
X106195730Y-114752919D01*
X106100891Y-115017760D01*
X101928800Y-115017760D01*
X101928800Y-111166188D01*
X101932719Y-111126400D01*
X101928649Y-111085080D01*
X101917080Y-110967612D01*
X101870846Y-110815201D01*
X101870763Y-110814926D01*
X101795549Y-110674211D01*
X101758281Y-110628800D01*
X101694328Y-110550872D01*
X101663419Y-110525506D01*
X100880099Y-109742187D01*
X100854728Y-109711272D01*
X100752072Y-109627025D01*
X100752072Y-109486800D01*
X100739812Y-109362318D01*
X100703502Y-109242620D01*
X100644537Y-109132306D01*
X100565185Y-109035615D01*
X100468494Y-108956263D01*
X100358180Y-108897298D01*
X100238482Y-108860988D01*
X100114000Y-108848728D01*
X98514000Y-108848728D01*
X98389518Y-108860988D01*
X98269820Y-108897298D01*
X98159506Y-108956263D01*
X98062815Y-109035615D01*
X97983463Y-109132306D01*
X97924498Y-109242620D01*
X97888188Y-109362318D01*
X97875928Y-109486800D01*
X96837693Y-109486800D01*
X98152294Y-108172200D01*
X98171339Y-108172200D01*
X98371298Y-108132426D01*
X98559656Y-108054405D01*
X98729174Y-107941137D01*
X98873337Y-107796974D01*
X98986605Y-107627456D01*
X99064626Y-107439098D01*
X99104400Y-107239139D01*
X99104400Y-107035261D01*
X99064626Y-106835302D01*
X98986605Y-106646944D01*
X98873337Y-106477426D01*
X98729174Y-106333263D01*
X98559656Y-106219995D01*
X98371298Y-106141974D01*
X98171339Y-106102200D01*
X97967461Y-106102200D01*
X97767502Y-106141974D01*
X97579144Y-106219995D01*
X97409626Y-106333263D01*
X97265463Y-106477426D01*
X97152195Y-106646944D01*
X97074174Y-106835302D01*
X97034400Y-107035261D01*
X97034400Y-107140488D01*
X92311290Y-111863600D01*
X92209641Y-111863600D01*
X92239805Y-111818456D01*
X92317826Y-111630098D01*
X92357600Y-111430139D01*
X92357600Y-111226261D01*
X92317826Y-111026302D01*
X92239805Y-110837944D01*
X92138290Y-110686016D01*
X92230205Y-110548456D01*
X92308226Y-110360098D01*
X92348000Y-110160139D01*
X92348000Y-109956261D01*
X92308226Y-109756302D01*
X92230205Y-109567944D01*
X92116937Y-109398426D01*
X91972774Y-109254263D01*
X91803256Y-109140995D01*
X91614898Y-109062974D01*
X91414939Y-109023200D01*
X91211061Y-109023200D01*
X91011102Y-109062974D01*
X90822744Y-109140995D01*
X90653226Y-109254263D01*
X90609289Y-109298200D01*
X89851722Y-109298200D01*
X89814400Y-109294524D01*
X89777077Y-109298200D01*
X89777067Y-109298200D01*
X89665414Y-109309197D01*
X89529244Y-109350503D01*
X89522153Y-109352654D01*
X89390123Y-109423226D01*
X89331866Y-109471037D01*
X89274399Y-109518199D01*
X89250601Y-109547197D01*
X87442199Y-111355600D01*
X83609421Y-111355600D01*
X83667897Y-111156302D01*
X82854800Y-110343205D01*
X82041703Y-111156302D01*
X82100179Y-111355600D01*
X80268629Y-111355600D01*
X80294314Y-111341871D01*
X80365897Y-111097902D01*
X79552800Y-110284805D01*
X78739703Y-111097902D01*
X78811286Y-111341871D01*
X78840301Y-111355600D01*
X73771602Y-111355600D01*
X72591714Y-110175712D01*
X78112583Y-110175712D01*
X78154013Y-110455330D01*
X78249197Y-110721492D01*
X78316129Y-110846714D01*
X78560098Y-110918297D01*
X79373195Y-110105200D01*
X79732405Y-110105200D01*
X80545502Y-110918297D01*
X80789471Y-110846714D01*
X80910371Y-110591204D01*
X80979100Y-110317016D01*
X80983186Y-110234112D01*
X81414583Y-110234112D01*
X81456013Y-110513730D01*
X81551197Y-110779892D01*
X81618129Y-110905114D01*
X81862098Y-110976697D01*
X82675195Y-110163600D01*
X83034405Y-110163600D01*
X83847502Y-110976697D01*
X84091471Y-110905114D01*
X84212371Y-110649604D01*
X84281100Y-110375416D01*
X84295017Y-110093088D01*
X84253587Y-109813470D01*
X84158403Y-109547308D01*
X84091471Y-109422086D01*
X83847502Y-109350503D01*
X83034405Y-110163600D01*
X82675195Y-110163600D01*
X81862098Y-109350503D01*
X81618129Y-109422086D01*
X81497229Y-109677596D01*
X81428500Y-109951784D01*
X81414583Y-110234112D01*
X80983186Y-110234112D01*
X80993017Y-110034688D01*
X80951587Y-109755070D01*
X80856403Y-109488908D01*
X80789471Y-109363686D01*
X80545502Y-109292103D01*
X79732405Y-110105200D01*
X79373195Y-110105200D01*
X78560098Y-109292103D01*
X78316129Y-109363686D01*
X78195229Y-109619196D01*
X78126500Y-109893384D01*
X78112583Y-110175712D01*
X72591714Y-110175712D01*
X71926209Y-109510208D01*
X71970000Y-109290060D01*
X71970000Y-109112498D01*
X78739703Y-109112498D01*
X79552800Y-109925595D01*
X80307497Y-109170898D01*
X82041703Y-109170898D01*
X82854800Y-109983995D01*
X83667897Y-109170898D01*
X83596314Y-108926929D01*
X83340804Y-108806029D01*
X83066616Y-108737300D01*
X82784288Y-108723383D01*
X82504670Y-108764813D01*
X82238508Y-108859997D01*
X82113286Y-108926929D01*
X82041703Y-109170898D01*
X80307497Y-109170898D01*
X80365897Y-109112498D01*
X80294314Y-108868529D01*
X80038804Y-108747629D01*
X79764616Y-108678900D01*
X79482288Y-108664983D01*
X79202670Y-108706413D01*
X78936508Y-108801597D01*
X78811286Y-108868529D01*
X78739703Y-109112498D01*
X71970000Y-109112498D01*
X71970000Y-108997540D01*
X71912932Y-108710642D01*
X71800990Y-108440389D01*
X71638475Y-108197168D01*
X71431632Y-107990325D01*
X71257240Y-107873800D01*
X71431632Y-107757275D01*
X71638475Y-107550432D01*
X71800990Y-107307211D01*
X71912932Y-107036958D01*
X71970000Y-106750060D01*
X71970000Y-106457540D01*
X71912932Y-106170642D01*
X71800990Y-105900389D01*
X71638475Y-105657168D01*
X71431632Y-105450325D01*
X71257240Y-105333800D01*
X71431632Y-105217275D01*
X71638475Y-105010432D01*
X71800990Y-104767211D01*
X71912932Y-104496958D01*
X71970000Y-104210060D01*
X71970000Y-103917540D01*
X71912932Y-103630642D01*
X71800990Y-103360389D01*
X71638475Y-103117168D01*
X71431632Y-102910325D01*
X71257240Y-102793800D01*
X71431632Y-102677275D01*
X71638475Y-102470432D01*
X71800990Y-102227211D01*
X71912932Y-101956958D01*
X71952400Y-101758540D01*
X74410200Y-101758540D01*
X74410200Y-102051060D01*
X74467268Y-102337958D01*
X74579210Y-102608211D01*
X74741725Y-102851432D01*
X74948568Y-103058275D01*
X75122960Y-103174800D01*
X74948568Y-103291325D01*
X74741725Y-103498168D01*
X74579210Y-103741389D01*
X74467268Y-104011642D01*
X74410200Y-104298540D01*
X74410200Y-104591060D01*
X74467268Y-104877958D01*
X74579210Y-105148211D01*
X74741725Y-105391432D01*
X74948568Y-105598275D01*
X75191789Y-105760790D01*
X75462042Y-105872732D01*
X75748940Y-105929800D01*
X76041460Y-105929800D01*
X76328358Y-105872732D01*
X76598611Y-105760790D01*
X76841832Y-105598275D01*
X77048675Y-105391432D01*
X77211190Y-105148211D01*
X77287548Y-104963865D01*
X78117800Y-104963865D01*
X78117800Y-105246535D01*
X78172947Y-105523774D01*
X78281120Y-105784927D01*
X78438163Y-106019959D01*
X78638041Y-106219837D01*
X78873073Y-106376880D01*
X79134226Y-106485053D01*
X79411465Y-106540200D01*
X79694135Y-106540200D01*
X79971374Y-106485053D01*
X80232527Y-106376880D01*
X80467559Y-106219837D01*
X80667437Y-106019959D01*
X80824480Y-105784927D01*
X80932653Y-105523774D01*
X80977260Y-105299525D01*
X80992403Y-105307619D01*
X81070127Y-105349163D01*
X81222812Y-105395480D01*
X81341809Y-105407200D01*
X81341812Y-105407200D01*
X81381600Y-105411119D01*
X81421388Y-105407200D01*
X86860377Y-105407200D01*
X86932428Y-105408564D01*
X86979335Y-105400154D01*
X87026788Y-105395480D01*
X87057699Y-105386103D01*
X87089479Y-105380405D01*
X87133851Y-105363002D01*
X87179473Y-105349163D01*
X87207956Y-105333939D01*
X87238019Y-105322148D01*
X87278145Y-105296422D01*
X87320189Y-105273949D01*
X87375953Y-105228185D01*
X87400171Y-105209066D01*
X87414626Y-105215053D01*
X87691865Y-105270200D01*
X87974535Y-105270200D01*
X88200365Y-105225279D01*
X88774711Y-105723045D01*
X88781672Y-105731528D01*
X88834925Y-105775231D01*
X88856775Y-105794168D01*
X88865675Y-105800467D01*
X88905011Y-105832749D01*
X88930648Y-105846452D01*
X88954376Y-105863246D01*
X89000850Y-105883976D01*
X89045727Y-105907963D01*
X89073545Y-105916401D01*
X89100092Y-105928243D01*
X89149707Y-105939505D01*
X89198412Y-105954280D01*
X89227351Y-105957130D01*
X89255690Y-105963563D01*
X89306543Y-105964930D01*
X89317409Y-105966000D01*
X89346359Y-105966000D01*
X89415189Y-105967850D01*
X89426000Y-105966000D01*
X92947765Y-105966000D01*
X93017763Y-106070759D01*
X93217641Y-106270637D01*
X93452673Y-106427680D01*
X93713826Y-106535853D01*
X93991065Y-106591000D01*
X94273735Y-106591000D01*
X94550974Y-106535853D01*
X94812127Y-106427680D01*
X95047159Y-106270637D01*
X95247037Y-106070759D01*
X95404080Y-105835727D01*
X95512253Y-105574574D01*
X95567400Y-105297335D01*
X95567400Y-105014665D01*
X95512253Y-104737426D01*
X95404080Y-104476273D01*
X95247037Y-104241241D01*
X95047159Y-104041363D01*
X94812127Y-103884320D01*
X94550974Y-103776147D01*
X94273735Y-103721000D01*
X93991065Y-103721000D01*
X93713826Y-103776147D01*
X93452673Y-103884320D01*
X93217641Y-104041363D01*
X93017763Y-104241241D01*
X92947765Y-104346000D01*
X89659358Y-104346000D01*
X89263032Y-104002518D01*
X89268200Y-103976535D01*
X89268200Y-103693865D01*
X89213053Y-103416626D01*
X89104880Y-103155473D01*
X88947837Y-102920441D01*
X88747959Y-102720563D01*
X88512927Y-102563520D01*
X88251774Y-102455347D01*
X87974535Y-102400200D01*
X87691865Y-102400200D01*
X87414626Y-102455347D01*
X87153473Y-102563520D01*
X86918441Y-102720563D01*
X86718563Y-102920441D01*
X86561520Y-103155473D01*
X86453347Y-103416626D01*
X86398200Y-103693865D01*
X86398200Y-103787200D01*
X81717113Y-103787200D01*
X81226400Y-103296488D01*
X81226400Y-103215900D01*
X81333605Y-103055456D01*
X81411626Y-102867098D01*
X81451400Y-102667139D01*
X81451400Y-102463261D01*
X81441296Y-102412461D01*
X81921400Y-102412461D01*
X81921400Y-102616339D01*
X81961174Y-102816298D01*
X82039195Y-103004656D01*
X82152463Y-103174174D01*
X82296626Y-103318337D01*
X82466144Y-103431605D01*
X82654502Y-103509626D01*
X82854461Y-103549400D01*
X83058339Y-103549400D01*
X83258298Y-103509626D01*
X83446656Y-103431605D01*
X83616174Y-103318337D01*
X83760337Y-103174174D01*
X83873605Y-103004656D01*
X83951626Y-102816298D01*
X83991400Y-102616339D01*
X83991400Y-102412461D01*
X83951626Y-102212502D01*
X83873605Y-102024144D01*
X83760337Y-101854626D01*
X83716400Y-101810689D01*
X83716400Y-99908201D01*
X84160202Y-99464400D01*
X86540591Y-99464400D01*
X86561520Y-99514927D01*
X86718563Y-99749959D01*
X86918441Y-99949837D01*
X87073201Y-100053244D01*
X87073201Y-100673668D01*
X87069524Y-100711000D01*
X87073201Y-100748333D01*
X87084198Y-100859986D01*
X87089582Y-100877735D01*
X87127654Y-101003246D01*
X87198226Y-101135276D01*
X87269401Y-101222002D01*
X87293200Y-101251001D01*
X87322198Y-101274799D01*
X89225200Y-103177802D01*
X89248999Y-103206801D01*
X89277997Y-103230599D01*
X89364723Y-103301774D01*
X89474383Y-103360389D01*
X89496753Y-103372346D01*
X89640014Y-103415803D01*
X89751667Y-103426800D01*
X89751677Y-103426800D01*
X89789000Y-103430476D01*
X89826323Y-103426800D01*
X101996399Y-103426800D01*
X103030794Y-104461196D01*
X103020720Y-104476273D01*
X102912547Y-104737426D01*
X102857400Y-105014665D01*
X102857400Y-105297335D01*
X102912547Y-105574574D01*
X103020720Y-105835727D01*
X103177763Y-106070759D01*
X103377641Y-106270637D01*
X103612673Y-106427680D01*
X103873826Y-106535853D01*
X104151065Y-106591000D01*
X104433735Y-106591000D01*
X104710974Y-106535853D01*
X104972127Y-106427680D01*
X105207159Y-106270637D01*
X105407037Y-106070759D01*
X105564080Y-105835727D01*
X105672253Y-105574574D01*
X105727400Y-105297335D01*
X105727400Y-105065465D01*
X106057800Y-105065465D01*
X106057800Y-105348135D01*
X106112947Y-105625374D01*
X106221120Y-105886527D01*
X106378163Y-106121559D01*
X106578041Y-106321437D01*
X106813073Y-106478480D01*
X107074226Y-106586653D01*
X107351465Y-106641800D01*
X107634135Y-106641800D01*
X107911374Y-106586653D01*
X108172527Y-106478480D01*
X108407559Y-106321437D01*
X108607437Y-106121559D01*
X108764480Y-105886527D01*
X108872653Y-105625374D01*
X108927800Y-105348135D01*
X108927800Y-105065465D01*
X108872653Y-104788226D01*
X108764480Y-104527073D01*
X108607437Y-104292041D01*
X108407559Y-104092163D01*
X108172527Y-103935120D01*
X107911374Y-103826947D01*
X107634135Y-103771800D01*
X107351465Y-103771800D01*
X107074226Y-103826947D01*
X106813073Y-103935120D01*
X106578041Y-104092163D01*
X106378163Y-104292041D01*
X106221120Y-104527073D01*
X106112947Y-104788226D01*
X106057800Y-105065465D01*
X105727400Y-105065465D01*
X105727400Y-105014665D01*
X105672253Y-104737426D01*
X105564080Y-104476273D01*
X105407037Y-104241241D01*
X105207159Y-104041363D01*
X104972127Y-103884320D01*
X104710974Y-103776147D01*
X104441808Y-103722606D01*
X102875004Y-102155803D01*
X102851201Y-102126799D01*
X102735476Y-102031826D01*
X102603447Y-101961254D01*
X102460186Y-101917797D01*
X102348533Y-101906800D01*
X102348522Y-101906800D01*
X102311200Y-101903124D01*
X102273878Y-101906800D01*
X90103802Y-101906800D01*
X88593200Y-100396199D01*
X88593200Y-100053243D01*
X88747959Y-99949837D01*
X88947837Y-99749959D01*
X89104880Y-99514927D01*
X89213053Y-99253774D01*
X89268200Y-98976535D01*
X89268200Y-98693865D01*
X89213053Y-98416626D01*
X89104880Y-98155473D01*
X88947837Y-97920441D01*
X88747959Y-97720563D01*
X88512927Y-97563520D01*
X88251774Y-97455347D01*
X87974535Y-97400200D01*
X87691865Y-97400200D01*
X87414626Y-97455347D01*
X87153473Y-97563520D01*
X86918441Y-97720563D01*
X86718563Y-97920441D01*
X86702554Y-97944400D01*
X83882723Y-97944400D01*
X83845400Y-97940724D01*
X83808077Y-97944400D01*
X83808067Y-97944400D01*
X83696414Y-97955397D01*
X83553153Y-97998854D01*
X83421124Y-98069426D01*
X83305399Y-98164399D01*
X83281601Y-98193397D01*
X82445398Y-99029601D01*
X82416400Y-99053399D01*
X82392602Y-99082397D01*
X82392601Y-99082398D01*
X82321426Y-99169124D01*
X82250854Y-99301154D01*
X82207398Y-99444415D01*
X82192724Y-99593400D01*
X82196401Y-99630732D01*
X82196400Y-101810689D01*
X82152463Y-101854626D01*
X82039195Y-102024144D01*
X81961174Y-102212502D01*
X81921400Y-102412461D01*
X81441296Y-102412461D01*
X81411626Y-102263302D01*
X81333605Y-102074944D01*
X81220337Y-101905426D01*
X81076174Y-101761263D01*
X80906656Y-101647995D01*
X80718298Y-101569974D01*
X80518339Y-101530200D01*
X80314461Y-101530200D01*
X80114502Y-101569974D01*
X79926144Y-101647995D01*
X79756626Y-101761263D01*
X79612463Y-101905426D01*
X79499195Y-102074944D01*
X79421174Y-102263302D01*
X79381400Y-102463261D01*
X79381400Y-102667139D01*
X79421174Y-102867098D01*
X79499195Y-103055456D01*
X79606401Y-103215901D01*
X79606401Y-103592202D01*
X79602481Y-103632000D01*
X79606244Y-103670200D01*
X79411465Y-103670200D01*
X79134226Y-103725347D01*
X78873073Y-103833520D01*
X78638041Y-103990563D01*
X78438163Y-104190441D01*
X78281120Y-104425473D01*
X78172947Y-104686626D01*
X78117800Y-104963865D01*
X77287548Y-104963865D01*
X77323132Y-104877958D01*
X77380200Y-104591060D01*
X77380200Y-104298540D01*
X77323132Y-104011642D01*
X77211190Y-103741389D01*
X77048675Y-103498168D01*
X76841832Y-103291325D01*
X76667440Y-103174800D01*
X76841832Y-103058275D01*
X77048675Y-102851432D01*
X77211190Y-102608211D01*
X77323132Y-102337958D01*
X77380200Y-102051060D01*
X77380200Y-101758540D01*
X77323132Y-101471642D01*
X77211190Y-101201389D01*
X77048675Y-100958168D01*
X76841832Y-100751325D01*
X76659666Y-100629605D01*
X76776555Y-100559978D01*
X76992788Y-100365069D01*
X77166841Y-100131720D01*
X77292025Y-99868899D01*
X77336676Y-99721690D01*
X77215355Y-99491800D01*
X76022200Y-99491800D01*
X76022200Y-99511800D01*
X75768200Y-99511800D01*
X75768200Y-99491800D01*
X74575045Y-99491800D01*
X74453724Y-99721690D01*
X74498375Y-99868899D01*
X74623559Y-100131720D01*
X74797612Y-100365069D01*
X75013845Y-100559978D01*
X75130734Y-100629605D01*
X74948568Y-100751325D01*
X74741725Y-100958168D01*
X74579210Y-101201389D01*
X74467268Y-101471642D01*
X74410200Y-101758540D01*
X71952400Y-101758540D01*
X71970000Y-101670060D01*
X71970000Y-101377540D01*
X71912932Y-101090642D01*
X71800990Y-100820389D01*
X71638475Y-100577168D01*
X71431632Y-100370325D01*
X71257240Y-100253800D01*
X71431632Y-100137275D01*
X71638475Y-99930432D01*
X71800990Y-99687211D01*
X71912932Y-99416958D01*
X71970000Y-99130060D01*
X71970000Y-98837540D01*
X71912932Y-98550642D01*
X71800990Y-98280389D01*
X71638475Y-98037168D01*
X71431632Y-97830325D01*
X71257240Y-97713800D01*
X71315607Y-97674800D01*
X74407128Y-97674800D01*
X74419388Y-97799282D01*
X74455698Y-97918980D01*
X74514663Y-98029294D01*
X74594015Y-98125985D01*
X74690706Y-98205337D01*
X74801020Y-98264302D01*
X74881666Y-98288766D01*
X74797612Y-98364531D01*
X74623559Y-98597880D01*
X74498375Y-98860701D01*
X74453724Y-99007910D01*
X74575045Y-99237800D01*
X75768200Y-99237800D01*
X75768200Y-96951800D01*
X76022200Y-96951800D01*
X76022200Y-99237800D01*
X77215355Y-99237800D01*
X77336676Y-99007910D01*
X77292025Y-98860701D01*
X77166841Y-98597880D01*
X76992788Y-98364531D01*
X76908734Y-98288766D01*
X76989380Y-98264302D01*
X77099694Y-98205337D01*
X77196385Y-98125985D01*
X77275737Y-98029294D01*
X77334702Y-97918980D01*
X77371012Y-97799282D01*
X77383272Y-97674800D01*
X77380200Y-97110550D01*
X77221450Y-96951800D01*
X76022200Y-96951800D01*
X75768200Y-96951800D01*
X74568950Y-96951800D01*
X74410200Y-97110550D01*
X74407128Y-97674800D01*
X71315607Y-97674800D01*
X71431632Y-97597275D01*
X71638475Y-97390432D01*
X71800990Y-97147211D01*
X71912932Y-96876958D01*
X71970000Y-96590060D01*
X71970000Y-96297540D01*
X71912932Y-96010642D01*
X71898086Y-95974800D01*
X74407128Y-95974800D01*
X74410200Y-96539050D01*
X74568950Y-96697800D01*
X75768200Y-96697800D01*
X75768200Y-95498550D01*
X76022200Y-95498550D01*
X76022200Y-96697800D01*
X77221450Y-96697800D01*
X77380200Y-96539050D01*
X77383272Y-95974800D01*
X77371012Y-95850318D01*
X77334702Y-95730620D01*
X77275737Y-95620306D01*
X77196385Y-95523615D01*
X77099694Y-95444263D01*
X76989380Y-95385298D01*
X76869682Y-95348988D01*
X76745200Y-95336728D01*
X76180950Y-95339800D01*
X76022200Y-95498550D01*
X75768200Y-95498550D01*
X75609450Y-95339800D01*
X75045200Y-95336728D01*
X74920718Y-95348988D01*
X74801020Y-95385298D01*
X74690706Y-95444263D01*
X74594015Y-95523615D01*
X74514663Y-95620306D01*
X74455698Y-95730620D01*
X74419388Y-95850318D01*
X74407128Y-95974800D01*
X71898086Y-95974800D01*
X71800990Y-95740389D01*
X71638475Y-95497168D01*
X71431632Y-95290325D01*
X71257240Y-95173800D01*
X71431632Y-95057275D01*
X71638475Y-94850432D01*
X71800990Y-94607211D01*
X71912932Y-94336958D01*
X71970000Y-94050060D01*
X71970000Y-93757540D01*
X71912932Y-93470642D01*
X71800990Y-93200389D01*
X71638475Y-92957168D01*
X71431632Y-92750325D01*
X71257240Y-92633800D01*
X71431632Y-92517275D01*
X71638475Y-92310432D01*
X71800990Y-92067211D01*
X71912932Y-91796958D01*
X71970000Y-91510060D01*
X71970000Y-91217540D01*
X71954232Y-91138271D01*
X72066066Y-91250104D01*
X72103711Y-91439361D01*
X72181732Y-91627719D01*
X72295000Y-91797237D01*
X72439163Y-91941400D01*
X72608681Y-92054668D01*
X72797039Y-92132689D01*
X72996998Y-92172463D01*
X73200876Y-92172463D01*
X73400835Y-92132689D01*
X73589193Y-92054668D01*
X73758711Y-91941400D01*
X73902874Y-91797237D01*
X74016142Y-91627719D01*
X74094163Y-91439361D01*
X74133937Y-91239402D01*
X74133937Y-91035524D01*
X74094163Y-90835565D01*
X74016142Y-90647207D01*
X73902874Y-90477689D01*
X73758711Y-90333526D01*
X73589193Y-90220258D01*
X73400835Y-90142237D01*
X73211579Y-90104592D01*
X71970000Y-88863013D01*
X71970000Y-88677540D01*
X71912932Y-88390642D01*
X71800990Y-88120389D01*
X71638475Y-87877168D01*
X71506620Y-87745313D01*
X71579180Y-87723302D01*
X71689494Y-87664337D01*
X71786185Y-87584985D01*
X71865537Y-87488294D01*
X71924502Y-87377980D01*
X71960812Y-87258282D01*
X71973072Y-87133800D01*
X71970000Y-86569550D01*
X71811250Y-86410800D01*
X70612000Y-86410800D01*
X70612000Y-86430800D01*
X70358000Y-86430800D01*
X70358000Y-86410800D01*
X70338000Y-86410800D01*
X70338000Y-86156800D01*
X70358000Y-86156800D01*
X70358000Y-84957550D01*
X70612000Y-84957550D01*
X70612000Y-86156800D01*
X71811250Y-86156800D01*
X71970000Y-85998050D01*
X71973072Y-85433800D01*
X71970571Y-85408400D01*
X74457928Y-85408400D01*
X74457928Y-87108400D01*
X74470188Y-87232882D01*
X74506498Y-87352580D01*
X74565463Y-87462894D01*
X74644815Y-87559585D01*
X74741506Y-87638937D01*
X74851820Y-87697902D01*
X74924380Y-87719913D01*
X74792525Y-87851768D01*
X74630010Y-88094989D01*
X74518068Y-88365242D01*
X74461000Y-88652140D01*
X74461000Y-88944660D01*
X74518068Y-89231558D01*
X74630010Y-89501811D01*
X74792525Y-89745032D01*
X74999368Y-89951875D01*
X75173760Y-90068400D01*
X74999368Y-90184925D01*
X74792525Y-90391768D01*
X74630010Y-90634989D01*
X74518068Y-90905242D01*
X74461000Y-91192140D01*
X74461000Y-91484660D01*
X74518068Y-91771558D01*
X74630010Y-92041811D01*
X74792525Y-92285032D01*
X74999368Y-92491875D01*
X75242589Y-92654390D01*
X75512842Y-92766332D01*
X75799740Y-92823400D01*
X76092260Y-92823400D01*
X76379158Y-92766332D01*
X76649411Y-92654390D01*
X76892632Y-92491875D01*
X77099475Y-92285032D01*
X77261990Y-92041811D01*
X77373932Y-91771558D01*
X77431000Y-91484660D01*
X77431000Y-91192140D01*
X77373932Y-90905242D01*
X77261990Y-90634989D01*
X77099475Y-90391768D01*
X76892632Y-90184925D01*
X76718240Y-90068400D01*
X76892632Y-89951875D01*
X77099475Y-89745032D01*
X77261990Y-89501811D01*
X77373932Y-89231558D01*
X77431000Y-88944660D01*
X77431000Y-88652140D01*
X77422184Y-88607819D01*
X79243400Y-88607819D01*
X79243400Y-88988981D01*
X79317761Y-89362819D01*
X79463625Y-89714966D01*
X79675387Y-90031891D01*
X79944909Y-90301413D01*
X80261834Y-90513175D01*
X80613981Y-90659039D01*
X80987819Y-90733400D01*
X81368981Y-90733400D01*
X81742819Y-90659039D01*
X82094966Y-90513175D01*
X82411891Y-90301413D01*
X82614904Y-90098400D01*
X84320328Y-90098400D01*
X84332588Y-90222882D01*
X84368898Y-90342580D01*
X84427863Y-90452894D01*
X84507215Y-90549585D01*
X84603906Y-90628937D01*
X84714220Y-90687902D01*
X84833918Y-90724212D01*
X84958400Y-90736472D01*
X85972650Y-90733400D01*
X86131400Y-90574650D01*
X86131400Y-88925400D01*
X86385400Y-88925400D01*
X86385400Y-90574650D01*
X86544150Y-90733400D01*
X87558400Y-90736472D01*
X87682882Y-90724212D01*
X87802580Y-90687902D01*
X87912894Y-90628937D01*
X88009585Y-90549585D01*
X88088937Y-90452894D01*
X88147902Y-90342580D01*
X88184212Y-90222882D01*
X88196472Y-90098400D01*
X88193400Y-89084150D01*
X88034650Y-88925400D01*
X86385400Y-88925400D01*
X86131400Y-88925400D01*
X84482150Y-88925400D01*
X84323400Y-89084150D01*
X84320328Y-90098400D01*
X82614904Y-90098400D01*
X82681413Y-90031891D01*
X82893175Y-89714966D01*
X83039039Y-89362819D01*
X83113400Y-88988981D01*
X83113400Y-88607819D01*
X83039039Y-88233981D01*
X82893175Y-87881834D01*
X82681413Y-87564909D01*
X82614904Y-87498400D01*
X84320328Y-87498400D01*
X84323400Y-88512650D01*
X84482150Y-88671400D01*
X86131400Y-88671400D01*
X86131400Y-87022150D01*
X86385400Y-87022150D01*
X86385400Y-88671400D01*
X88034650Y-88671400D01*
X88193400Y-88512650D01*
X88196472Y-87498400D01*
X88184212Y-87373918D01*
X88147902Y-87254220D01*
X88088937Y-87143906D01*
X88009585Y-87047215D01*
X87912894Y-86967863D01*
X87802580Y-86908898D01*
X87682882Y-86872588D01*
X87558400Y-86860328D01*
X86544150Y-86863400D01*
X86385400Y-87022150D01*
X86131400Y-87022150D01*
X85972650Y-86863400D01*
X84958400Y-86860328D01*
X84833918Y-86872588D01*
X84714220Y-86908898D01*
X84603906Y-86967863D01*
X84507215Y-87047215D01*
X84427863Y-87143906D01*
X84368898Y-87254220D01*
X84332588Y-87373918D01*
X84320328Y-87498400D01*
X82614904Y-87498400D01*
X82411891Y-87295387D01*
X82094966Y-87083625D01*
X81742819Y-86937761D01*
X81368981Y-86863400D01*
X80987819Y-86863400D01*
X80613981Y-86937761D01*
X80261834Y-87083625D01*
X79944909Y-87295387D01*
X79675387Y-87564909D01*
X79463625Y-87881834D01*
X79317761Y-88233981D01*
X79243400Y-88607819D01*
X77422184Y-88607819D01*
X77373932Y-88365242D01*
X77261990Y-88094989D01*
X77099475Y-87851768D01*
X76967620Y-87719913D01*
X77040180Y-87697902D01*
X77150494Y-87638937D01*
X77247185Y-87559585D01*
X77326537Y-87462894D01*
X77385502Y-87352580D01*
X77421812Y-87232882D01*
X77434072Y-87108400D01*
X77434072Y-85408400D01*
X77421812Y-85283918D01*
X77385502Y-85164220D01*
X77326537Y-85053906D01*
X77247185Y-84957215D01*
X77150494Y-84877863D01*
X77040180Y-84818898D01*
X76920482Y-84782588D01*
X76796000Y-84770328D01*
X75096000Y-84770328D01*
X74971518Y-84782588D01*
X74851820Y-84818898D01*
X74741506Y-84877863D01*
X74644815Y-84957215D01*
X74565463Y-85053906D01*
X74506498Y-85164220D01*
X74470188Y-85283918D01*
X74457928Y-85408400D01*
X71970571Y-85408400D01*
X71960812Y-85309318D01*
X71924502Y-85189620D01*
X71865537Y-85079306D01*
X71786185Y-84982615D01*
X71689494Y-84903263D01*
X71579180Y-84844298D01*
X71459482Y-84807988D01*
X71335000Y-84795728D01*
X70770750Y-84798800D01*
X70612000Y-84957550D01*
X70358000Y-84957550D01*
X70199250Y-84798800D01*
X69635000Y-84795728D01*
X69510518Y-84807988D01*
X69508222Y-84808684D01*
X69505280Y-84778812D01*
X69458963Y-84626127D01*
X69416962Y-84547549D01*
X69383749Y-84485410D01*
X69326309Y-84415420D01*
X69282528Y-84362072D01*
X69251619Y-84336706D01*
X68783713Y-83868800D01*
X89770466Y-83868800D01*
X89669266Y-83992113D01*
X89517492Y-84276061D01*
X89424030Y-84584164D01*
X89392472Y-84904580D01*
X89424030Y-85224996D01*
X89517492Y-85533099D01*
X89669266Y-85817047D01*
X89873519Y-86065931D01*
X90005909Y-86174580D01*
X89873519Y-86283229D01*
X89669266Y-86532113D01*
X89517492Y-86816061D01*
X89424030Y-87124164D01*
X89392472Y-87444580D01*
X89424030Y-87764996D01*
X89517492Y-88073099D01*
X89669266Y-88357047D01*
X89873519Y-88605931D01*
X90005909Y-88714580D01*
X89873519Y-88823229D01*
X89669266Y-89072113D01*
X89517492Y-89356061D01*
X89424030Y-89664164D01*
X89392472Y-89984580D01*
X89424030Y-90304996D01*
X89517492Y-90613099D01*
X89669266Y-90897047D01*
X89873519Y-91145931D01*
X90005909Y-91254580D01*
X89873519Y-91363229D01*
X89669266Y-91612113D01*
X89517492Y-91896061D01*
X89424030Y-92204164D01*
X89392472Y-92524580D01*
X89424030Y-92844996D01*
X89517492Y-93153099D01*
X89669266Y-93437047D01*
X89873519Y-93685931D01*
X90005909Y-93794580D01*
X89873519Y-93903229D01*
X89669266Y-94152113D01*
X89517492Y-94436061D01*
X89424030Y-94744164D01*
X89392472Y-95064580D01*
X89424030Y-95384996D01*
X89517492Y-95693099D01*
X89669266Y-95977047D01*
X89873519Y-96225931D01*
X90005909Y-96334580D01*
X89873519Y-96443229D01*
X89669266Y-96692113D01*
X89517492Y-96976061D01*
X89424030Y-97284164D01*
X89392472Y-97604580D01*
X89424030Y-97924996D01*
X89517492Y-98233099D01*
X89669266Y-98517047D01*
X89873519Y-98765931D01*
X90005909Y-98874580D01*
X89873519Y-98983229D01*
X89669266Y-99232113D01*
X89517492Y-99516061D01*
X89424030Y-99824164D01*
X89392472Y-100144580D01*
X89424030Y-100464996D01*
X89517492Y-100773099D01*
X89669266Y-101057047D01*
X89873519Y-101305931D01*
X90122403Y-101510184D01*
X90406351Y-101661958D01*
X90714454Y-101755420D01*
X90954578Y-101779070D01*
X91864462Y-101779070D01*
X92104586Y-101755420D01*
X92412689Y-101661958D01*
X92696637Y-101510184D01*
X92945521Y-101305931D01*
X93149774Y-101057047D01*
X93301548Y-100773099D01*
X93395010Y-100464996D01*
X93426568Y-100144580D01*
X93395010Y-99824164D01*
X93301548Y-99516061D01*
X93149774Y-99232113D01*
X92945521Y-98983229D01*
X92813131Y-98874580D01*
X92945521Y-98765931D01*
X93149774Y-98517047D01*
X93301548Y-98233099D01*
X93395010Y-97924996D01*
X93426568Y-97604580D01*
X93395010Y-97284164D01*
X93301548Y-96976061D01*
X93149774Y-96692113D01*
X92945521Y-96443229D01*
X92813131Y-96334580D01*
X92945521Y-96225931D01*
X93149774Y-95977047D01*
X93301548Y-95693099D01*
X93395010Y-95384996D01*
X93426568Y-95064580D01*
X93395010Y-94744164D01*
X93301548Y-94436061D01*
X93149774Y-94152113D01*
X92945521Y-93903229D01*
X92813131Y-93794580D01*
X92945521Y-93685931D01*
X93149774Y-93437047D01*
X93231270Y-93284580D01*
X93264498Y-93284580D01*
X93301820Y-93288256D01*
X93339142Y-93284580D01*
X93339153Y-93284580D01*
X93450806Y-93273583D01*
X93594067Y-93230126D01*
X93726096Y-93159554D01*
X93841821Y-93064581D01*
X93865624Y-93035577D01*
X95847363Y-91053839D01*
X95876361Y-91030041D01*
X95921902Y-90974549D01*
X95971334Y-90914317D01*
X96041906Y-90782287D01*
X96053344Y-90744580D01*
X96085363Y-90639026D01*
X96096360Y-90527373D01*
X96096360Y-90527364D01*
X96100036Y-90490041D01*
X96096360Y-90452718D01*
X96096360Y-89984580D01*
X105557032Y-89984580D01*
X105588590Y-90304996D01*
X105682052Y-90613099D01*
X105833826Y-90897047D01*
X106038079Y-91145931D01*
X106170469Y-91254580D01*
X106038079Y-91363229D01*
X105833826Y-91612113D01*
X105682052Y-91896061D01*
X105588590Y-92204164D01*
X105557032Y-92524580D01*
X105588590Y-92844996D01*
X105682052Y-93153099D01*
X105833826Y-93437047D01*
X106038079Y-93685931D01*
X106170469Y-93794580D01*
X106038079Y-93903229D01*
X105833826Y-94152113D01*
X105682052Y-94436061D01*
X105588590Y-94744164D01*
X105557032Y-95064580D01*
X105588590Y-95384996D01*
X105682052Y-95693099D01*
X105833826Y-95977047D01*
X106038079Y-96225931D01*
X106170469Y-96334580D01*
X106038079Y-96443229D01*
X105833826Y-96692113D01*
X105682052Y-96976061D01*
X105588590Y-97284164D01*
X105557032Y-97604580D01*
X105588590Y-97924996D01*
X105682052Y-98233099D01*
X105833826Y-98517047D01*
X106038079Y-98765931D01*
X106170469Y-98874580D01*
X106038079Y-98983229D01*
X105833826Y-99232113D01*
X105682052Y-99516061D01*
X105588590Y-99824164D01*
X105557032Y-100144580D01*
X105588590Y-100464996D01*
X105682052Y-100773099D01*
X105833826Y-101057047D01*
X106038079Y-101305931D01*
X106286963Y-101510184D01*
X106570911Y-101661958D01*
X106879014Y-101755420D01*
X107119138Y-101779070D01*
X108029022Y-101779070D01*
X108269146Y-101755420D01*
X108577249Y-101661958D01*
X108663201Y-101616016D01*
X108663201Y-102140888D01*
X108593863Y-102210226D01*
X108480595Y-102379744D01*
X108402574Y-102568102D01*
X108362800Y-102768061D01*
X108362800Y-102971939D01*
X108402574Y-103171898D01*
X108480595Y-103360256D01*
X108593863Y-103529774D01*
X108738026Y-103673937D01*
X108907544Y-103787205D01*
X109095902Y-103865226D01*
X109295861Y-103905000D01*
X109499739Y-103905000D01*
X109699698Y-103865226D01*
X109888056Y-103787205D01*
X109888735Y-103786751D01*
X109860200Y-103930208D01*
X109860200Y-104205392D01*
X109913886Y-104475290D01*
X110019195Y-104729527D01*
X110172080Y-104958335D01*
X110366665Y-105152920D01*
X110454665Y-105211720D01*
X110370718Y-105219988D01*
X110251020Y-105256298D01*
X110140706Y-105315263D01*
X110044015Y-105394615D01*
X109964663Y-105491306D01*
X109905698Y-105601620D01*
X109869388Y-105721318D01*
X109857128Y-105845800D01*
X109857128Y-107369800D01*
X109869388Y-107494282D01*
X109905698Y-107613980D01*
X109964663Y-107724294D01*
X110044015Y-107820985D01*
X110140706Y-107900337D01*
X110251020Y-107959302D01*
X110370718Y-107995612D01*
X110495200Y-108007872D01*
X112019200Y-108007872D01*
X112143682Y-107995612D01*
X112263380Y-107959302D01*
X112373694Y-107900337D01*
X112470385Y-107820985D01*
X112549737Y-107724294D01*
X112608702Y-107613980D01*
X112645012Y-107494282D01*
X112657272Y-107369800D01*
X112657272Y-105845800D01*
X112645012Y-105721318D01*
X112608702Y-105601620D01*
X112549737Y-105491306D01*
X112470385Y-105394615D01*
X112373694Y-105315263D01*
X112263380Y-105256298D01*
X112143682Y-105219988D01*
X112059735Y-105211720D01*
X112147735Y-105152920D01*
X112342320Y-104958335D01*
X112495205Y-104729527D01*
X112600514Y-104475290D01*
X112654200Y-104205392D01*
X112654200Y-103930208D01*
X112600514Y-103660310D01*
X112495205Y-103406073D01*
X112342320Y-103177265D01*
X112147735Y-102982680D01*
X111918927Y-102829795D01*
X111841685Y-102797800D01*
X111918927Y-102765805D01*
X112147735Y-102612920D01*
X112342320Y-102418335D01*
X112495205Y-102189527D01*
X112600514Y-101935290D01*
X112654200Y-101665392D01*
X112654200Y-101390208D01*
X112600514Y-101120310D01*
X112495205Y-100866073D01*
X112342320Y-100637265D01*
X112147735Y-100442680D01*
X111918927Y-100289795D01*
X111841685Y-100257800D01*
X111918927Y-100225805D01*
X112147735Y-100072920D01*
X112342320Y-99878335D01*
X112495205Y-99649527D01*
X112600514Y-99395290D01*
X112654200Y-99125392D01*
X112654200Y-98850208D01*
X112600514Y-98580310D01*
X112495205Y-98326073D01*
X112342320Y-98097265D01*
X112147735Y-97902680D01*
X111918927Y-97749795D01*
X111664690Y-97644486D01*
X111394792Y-97590800D01*
X111119608Y-97590800D01*
X110849710Y-97644486D01*
X110595473Y-97749795D01*
X110366665Y-97902680D01*
X110183200Y-98086145D01*
X110183200Y-95338133D01*
X110186877Y-95300800D01*
X110172203Y-95151814D01*
X110128746Y-95008554D01*
X110128746Y-95008553D01*
X110058174Y-94876524D01*
X109963201Y-94760799D01*
X109934198Y-94736997D01*
X109750784Y-94553583D01*
X109726981Y-94524579D01*
X109611256Y-94429606D01*
X109479227Y-94359034D01*
X109414430Y-94339378D01*
X109314334Y-94152113D01*
X109110081Y-93903229D01*
X108977691Y-93794580D01*
X109110081Y-93685931D01*
X109314334Y-93437047D01*
X109466108Y-93153099D01*
X109559570Y-92844996D01*
X109591128Y-92524580D01*
X109559570Y-92204164D01*
X109466108Y-91896061D01*
X109314334Y-91612113D01*
X109110081Y-91363229D01*
X108977691Y-91254580D01*
X109110081Y-91145931D01*
X109314334Y-90897047D01*
X109466108Y-90613099D01*
X109559570Y-90304996D01*
X109591128Y-89984580D01*
X109559570Y-89664164D01*
X109466108Y-89356061D01*
X109314334Y-89072113D01*
X109110081Y-88823229D01*
X108979825Y-88716331D01*
X109194292Y-88510536D01*
X109378317Y-88247057D01*
X109507403Y-87952739D01*
X109538349Y-87824934D01*
X109418995Y-87571580D01*
X107701080Y-87571580D01*
X107701080Y-87591580D01*
X107447080Y-87591580D01*
X107447080Y-87571580D01*
X105729165Y-87571580D01*
X105609811Y-87824934D01*
X105640757Y-87952739D01*
X105769843Y-88247057D01*
X105953868Y-88510536D01*
X106168335Y-88716331D01*
X106038079Y-88823229D01*
X105833826Y-89072113D01*
X105682052Y-89356061D01*
X105588590Y-89664164D01*
X105557032Y-89984580D01*
X96096360Y-89984580D01*
X96096360Y-83946842D01*
X96555402Y-83487800D01*
X106382706Y-83487800D01*
X106286963Y-83538976D01*
X106038079Y-83743229D01*
X105833826Y-83992113D01*
X105682052Y-84276061D01*
X105588590Y-84584164D01*
X105557032Y-84904580D01*
X105588590Y-85224996D01*
X105682052Y-85533099D01*
X105833826Y-85817047D01*
X106038079Y-86065931D01*
X106168335Y-86172829D01*
X105953868Y-86378624D01*
X105769843Y-86642103D01*
X105640757Y-86936421D01*
X105609811Y-87064226D01*
X105729165Y-87317580D01*
X107447080Y-87317580D01*
X107447080Y-87297580D01*
X107701080Y-87297580D01*
X107701080Y-87317580D01*
X109418995Y-87317580D01*
X109538349Y-87064226D01*
X109507403Y-86936421D01*
X109378317Y-86642103D01*
X109194292Y-86378624D01*
X108979825Y-86172829D01*
X109110081Y-86065931D01*
X109314334Y-85817047D01*
X109466108Y-85533099D01*
X109559570Y-85224996D01*
X109591128Y-84904580D01*
X109559570Y-84584164D01*
X109466108Y-84276061D01*
X109314334Y-83992113D01*
X109110081Y-83743229D01*
X108861197Y-83538976D01*
X108765454Y-83487800D01*
X112275489Y-83487800D01*
X112344826Y-83557137D01*
X112514344Y-83670405D01*
X112702702Y-83748426D01*
X112902661Y-83788200D01*
X113106539Y-83788200D01*
X113306498Y-83748426D01*
X113494856Y-83670405D01*
X113664374Y-83557137D01*
X113808537Y-83412974D01*
X113921805Y-83243456D01*
X113999826Y-83055098D01*
X114039600Y-82855139D01*
X114039600Y-82651261D01*
X114039588Y-82651200D01*
X114198800Y-82651200D01*
X114198801Y-123088800D01*
%TA.AperFunction,Conductor*%
D25*
G36*
X114198801Y-123088800D02*
G01*
X50901200Y-123088800D01*
X50901200Y-118511649D01*
X56039000Y-118511649D01*
X56039000Y-118873152D01*
X56055423Y-119039899D01*
X56120324Y-119253847D01*
X56225716Y-119451023D01*
X56367552Y-119623849D01*
X56540378Y-119765684D01*
X56737554Y-119871076D01*
X56951502Y-119935977D01*
X57174000Y-119957891D01*
X57396499Y-119935977D01*
X57610447Y-119871076D01*
X57807623Y-119765684D01*
X57928877Y-119666173D01*
X58008548Y-119736720D01*
X58200685Y-119848879D01*
X58372126Y-119911519D01*
X58547000Y-119785354D01*
X58547000Y-118819400D01*
X58527000Y-118819400D01*
X58527000Y-118565400D01*
X58547000Y-118565400D01*
X58547000Y-117599446D01*
X58801000Y-117599446D01*
X58801000Y-118565400D01*
X58821000Y-118565400D01*
X58821000Y-118819400D01*
X58801000Y-118819400D01*
X58801000Y-119785354D01*
X58975874Y-119911519D01*
X59147315Y-119848879D01*
X59339452Y-119736720D01*
X59419124Y-119666173D01*
X59540378Y-119765684D01*
X59737554Y-119871076D01*
X59951502Y-119935977D01*
X60174000Y-119957891D01*
X60396499Y-119935977D01*
X60610447Y-119871076D01*
X60807623Y-119765684D01*
X60980449Y-119623849D01*
X61122284Y-119451023D01*
X61227676Y-119253846D01*
X61292577Y-119039898D01*
X61309000Y-118873151D01*
X61309000Y-118511648D01*
X61292577Y-118344901D01*
X61227676Y-118130953D01*
X61122284Y-117933777D01*
X60980449Y-117760951D01*
X60807623Y-117619116D01*
X60610446Y-117513724D01*
X60396498Y-117448823D01*
X60174000Y-117426909D01*
X59951501Y-117448823D01*
X59737553Y-117513724D01*
X59540377Y-117619116D01*
X59419123Y-117718627D01*
X59339452Y-117648080D01*
X59147315Y-117535921D01*
X58975874Y-117473281D01*
X58801000Y-117599446D01*
X58547000Y-117599446D01*
X58372126Y-117473281D01*
X58200685Y-117535921D01*
X58008548Y-117648080D01*
X57928877Y-117718627D01*
X57807623Y-117619116D01*
X57610446Y-117513724D01*
X57396498Y-117448823D01*
X57174000Y-117426909D01*
X56951501Y-117448823D01*
X56737553Y-117513724D01*
X56540377Y-117619116D01*
X56367551Y-117760951D01*
X56225716Y-117933777D01*
X56120324Y-118130954D01*
X56055423Y-118344902D01*
X56039000Y-118511649D01*
X50901200Y-118511649D01*
X50901200Y-95449817D01*
X52355290Y-95449817D01*
X52396278Y-95721933D01*
X52489564Y-95980823D01*
X52551544Y-96096780D01*
X52791635Y-96163760D01*
X53577595Y-95377800D01*
X53936805Y-95377800D01*
X54722765Y-96163760D01*
X54962856Y-96096780D01*
X55079956Y-95847752D01*
X55146223Y-95580665D01*
X55159110Y-95305783D01*
X55118122Y-95033667D01*
X55024836Y-94774777D01*
X54962856Y-94658820D01*
X54722765Y-94591840D01*
X53936805Y-95377800D01*
X53577595Y-95377800D01*
X52791635Y-94591840D01*
X52551544Y-94658820D01*
X52434444Y-94907848D01*
X52368177Y-95174935D01*
X52355290Y-95449817D01*
X50901200Y-95449817D01*
X50901200Y-93803365D01*
X52971240Y-93803365D01*
X53038220Y-94043456D01*
X53168844Y-94104879D01*
X53154177Y-94110164D01*
X53038220Y-94172144D01*
X52971240Y-94412235D01*
X53757200Y-95198195D01*
X54543160Y-94412235D01*
X54476180Y-94172144D01*
X54345556Y-94110721D01*
X54360223Y-94105436D01*
X54476180Y-94043456D01*
X54543160Y-93803365D01*
X53757200Y-93017405D01*
X52971240Y-93803365D01*
X50901200Y-93803365D01*
X50901200Y-92909817D01*
X52355290Y-92909817D01*
X52396278Y-93181933D01*
X52489564Y-93440823D01*
X52551544Y-93556780D01*
X52791635Y-93623760D01*
X53577595Y-92837800D01*
X53936805Y-92837800D01*
X54722765Y-93623760D01*
X54962856Y-93556780D01*
X55079956Y-93307752D01*
X55146223Y-93040665D01*
X55159110Y-92765783D01*
X55118122Y-92493667D01*
X55024836Y-92234777D01*
X54962856Y-92118820D01*
X54722765Y-92051840D01*
X53936805Y-92837800D01*
X53577595Y-92837800D01*
X52791635Y-92051840D01*
X52551544Y-92118820D01*
X52434444Y-92367848D01*
X52368177Y-92634935D01*
X52355290Y-92909817D01*
X50901200Y-92909817D01*
X50901200Y-83887132D01*
X51056902Y-83951626D01*
X51219966Y-83984061D01*
X51227174Y-84020298D01*
X51305195Y-84208656D01*
X51418463Y-84378174D01*
X51562626Y-84522337D01*
X51732144Y-84635605D01*
X51920502Y-84713626D01*
X52120461Y-84753400D01*
X52324339Y-84753400D01*
X52524298Y-84713626D01*
X52712656Y-84635605D01*
X52882174Y-84522337D01*
X53026337Y-84378174D01*
X53139605Y-84208656D01*
X53217626Y-84020298D01*
X53247761Y-83868800D01*
X53593488Y-83868800D01*
X53252583Y-84209705D01*
X53221673Y-84235072D01*
X53187100Y-84277200D01*
X53120451Y-84358411D01*
X53063979Y-84464064D01*
X53045238Y-84499127D01*
X53003838Y-84635605D01*
X52998921Y-84651813D01*
X52983281Y-84810600D01*
X52987201Y-84850398D01*
X52987200Y-88898516D01*
X52870718Y-88909988D01*
X52751020Y-88946298D01*
X52640706Y-89005263D01*
X52544015Y-89084615D01*
X52464663Y-89181306D01*
X52405698Y-89291620D01*
X52369388Y-89411318D01*
X52357128Y-89535800D01*
X52357128Y-91059800D01*
X52369388Y-91184282D01*
X52405698Y-91303980D01*
X52464663Y-91414294D01*
X52544015Y-91510985D01*
X52640706Y-91590337D01*
X52751020Y-91649302D01*
X52870718Y-91685612D01*
X52995200Y-91697872D01*
X53019883Y-91697872D01*
X52971240Y-91872235D01*
X53757200Y-92658195D01*
X54543160Y-91872235D01*
X54494517Y-91697872D01*
X54519200Y-91697872D01*
X54643682Y-91685612D01*
X54763380Y-91649302D01*
X54873694Y-91590337D01*
X54970385Y-91510985D01*
X55049737Y-91414294D01*
X55108702Y-91303980D01*
X55145012Y-91184282D01*
X55157272Y-91059800D01*
X55157272Y-89535800D01*
X55145012Y-89411318D01*
X55108702Y-89291620D01*
X55049737Y-89181306D01*
X54970385Y-89084615D01*
X54873694Y-89005263D01*
X54763380Y-88946298D01*
X54643682Y-88909988D01*
X54607200Y-88906395D01*
X54607200Y-85146112D01*
X55072513Y-84680800D01*
X57670907Y-84680800D01*
X57580120Y-84816673D01*
X57471947Y-85077826D01*
X57416800Y-85355065D01*
X57416800Y-85637735D01*
X57471947Y-85914974D01*
X57580120Y-86176127D01*
X57737163Y-86411159D01*
X57937041Y-86611037D01*
X58169559Y-86766400D01*
X57937041Y-86921763D01*
X57737163Y-87121641D01*
X57580120Y-87356673D01*
X57471947Y-87617826D01*
X57416800Y-87895065D01*
X57416800Y-88177735D01*
X57471947Y-88454974D01*
X57580120Y-88716127D01*
X57737163Y-88951159D01*
X57937041Y-89151037D01*
X58169559Y-89306400D01*
X57937041Y-89461763D01*
X57737163Y-89661641D01*
X57580120Y-89896673D01*
X57471947Y-90157826D01*
X57416800Y-90435065D01*
X57416800Y-90717735D01*
X57471947Y-90994974D01*
X57580120Y-91256127D01*
X57737163Y-91491159D01*
X57937041Y-91691037D01*
X58169559Y-91846400D01*
X57937041Y-92001763D01*
X57737163Y-92201641D01*
X57580120Y-92436673D01*
X57471947Y-92697826D01*
X57416800Y-92975065D01*
X57416800Y-93257735D01*
X57471947Y-93534974D01*
X57580120Y-93796127D01*
X57737163Y-94031159D01*
X57937041Y-94231037D01*
X58169559Y-94386400D01*
X57937041Y-94541763D01*
X57737163Y-94741641D01*
X57580120Y-94976673D01*
X57471947Y-95237826D01*
X57416800Y-95515065D01*
X57416800Y-95797735D01*
X57471947Y-96074974D01*
X57580120Y-96336127D01*
X57737163Y-96571159D01*
X57937041Y-96771037D01*
X58169559Y-96926400D01*
X57937041Y-97081763D01*
X57737163Y-97281641D01*
X57580120Y-97516673D01*
X57471947Y-97777826D01*
X57416800Y-98055065D01*
X57416800Y-98337735D01*
X57471947Y-98614974D01*
X57580120Y-98876127D01*
X57737163Y-99111159D01*
X57937041Y-99311037D01*
X58169559Y-99466400D01*
X57937041Y-99621763D01*
X57737163Y-99821641D01*
X57580120Y-100056673D01*
X57471947Y-100317826D01*
X57416800Y-100595065D01*
X57416800Y-100877735D01*
X57471947Y-101154974D01*
X57580120Y-101416127D01*
X57737163Y-101651159D01*
X57937041Y-101851037D01*
X58169559Y-102006400D01*
X57937041Y-102161763D01*
X57737163Y-102361641D01*
X57580120Y-102596673D01*
X57471947Y-102857826D01*
X57416800Y-103135065D01*
X57416800Y-103417735D01*
X57471947Y-103694974D01*
X57580120Y-103956127D01*
X57737163Y-104191159D01*
X57937041Y-104391037D01*
X58169559Y-104546400D01*
X57937041Y-104701763D01*
X57737163Y-104901641D01*
X57580120Y-105136673D01*
X57471947Y-105397826D01*
X57416800Y-105675065D01*
X57416800Y-105957735D01*
X57471947Y-106234974D01*
X57580120Y-106496127D01*
X57737163Y-106731159D01*
X57937041Y-106931037D01*
X58169559Y-107086400D01*
X57937041Y-107241763D01*
X57737163Y-107441641D01*
X57580120Y-107676673D01*
X57471947Y-107937826D01*
X57416800Y-108215065D01*
X57416800Y-108497735D01*
X57471947Y-108774974D01*
X57580120Y-109036127D01*
X57737163Y-109271159D01*
X57937041Y-109471037D01*
X58169559Y-109626400D01*
X57937041Y-109781763D01*
X57737163Y-109981641D01*
X57581800Y-110214159D01*
X57426437Y-109981641D01*
X57226559Y-109781763D01*
X56991527Y-109624720D01*
X56730374Y-109516547D01*
X56453135Y-109461400D01*
X56170465Y-109461400D01*
X55893226Y-109516547D01*
X55632073Y-109624720D01*
X55397041Y-109781763D01*
X55197163Y-109981641D01*
X55079029Y-110158441D01*
X54995205Y-109956073D01*
X54842320Y-109727265D01*
X54647735Y-109532680D01*
X54418927Y-109379795D01*
X54341685Y-109347800D01*
X54418927Y-109315805D01*
X54647735Y-109162920D01*
X54842320Y-108968335D01*
X54995205Y-108739527D01*
X55100514Y-108485290D01*
X55154200Y-108215392D01*
X55154200Y-107940208D01*
X55100514Y-107670310D01*
X54995205Y-107416073D01*
X54842320Y-107187265D01*
X54647735Y-106992680D01*
X54418927Y-106839795D01*
X54341685Y-106807800D01*
X54418927Y-106775805D01*
X54647735Y-106622920D01*
X54842320Y-106428335D01*
X54995205Y-106199527D01*
X55100514Y-105945290D01*
X55154200Y-105675392D01*
X55154200Y-105400208D01*
X55100514Y-105130310D01*
X54995205Y-104876073D01*
X54842320Y-104647265D01*
X54647735Y-104452680D01*
X54418927Y-104299795D01*
X54341685Y-104267800D01*
X54418927Y-104235805D01*
X54647735Y-104082920D01*
X54842320Y-103888335D01*
X54995205Y-103659527D01*
X55100514Y-103405290D01*
X55154200Y-103135392D01*
X55154200Y-102860208D01*
X55100514Y-102590310D01*
X54995205Y-102336073D01*
X54842320Y-102107265D01*
X54647735Y-101912680D01*
X54418927Y-101759795D01*
X54341685Y-101727800D01*
X54418927Y-101695805D01*
X54647735Y-101542920D01*
X54842320Y-101348335D01*
X54995205Y-101119527D01*
X55100514Y-100865290D01*
X55154200Y-100595392D01*
X55154200Y-100320208D01*
X55100514Y-100050310D01*
X54995205Y-99796073D01*
X54842320Y-99567265D01*
X54647735Y-99372680D01*
X54418927Y-99219795D01*
X54341685Y-99187800D01*
X54418927Y-99155805D01*
X54647735Y-99002920D01*
X54842320Y-98808335D01*
X54995205Y-98579527D01*
X55100514Y-98325290D01*
X55154200Y-98055392D01*
X55154200Y-97780208D01*
X55100514Y-97510310D01*
X54995205Y-97256073D01*
X54842320Y-97027265D01*
X54647735Y-96832680D01*
X54418927Y-96679795D01*
X54347257Y-96650108D01*
X54360223Y-96645436D01*
X54476180Y-96583456D01*
X54543160Y-96343365D01*
X53757200Y-95557405D01*
X52971240Y-96343365D01*
X53038220Y-96583456D01*
X53173960Y-96647285D01*
X53095473Y-96679795D01*
X52866665Y-96832680D01*
X52672080Y-97027265D01*
X52519195Y-97256073D01*
X52413886Y-97510310D01*
X52360200Y-97780208D01*
X52360200Y-98055392D01*
X52413886Y-98325290D01*
X52519195Y-98579527D01*
X52672080Y-98808335D01*
X52866665Y-99002920D01*
X53095473Y-99155805D01*
X53172715Y-99187800D01*
X53095473Y-99219795D01*
X52866665Y-99372680D01*
X52672080Y-99567265D01*
X52519195Y-99796073D01*
X52413886Y-100050310D01*
X52360200Y-100320208D01*
X52360200Y-100595392D01*
X52413886Y-100865290D01*
X52519195Y-101119527D01*
X52672080Y-101348335D01*
X52866665Y-101542920D01*
X53095473Y-101695805D01*
X53172715Y-101727800D01*
X53095473Y-101759795D01*
X52866665Y-101912680D01*
X52672080Y-102107265D01*
X52519195Y-102336073D01*
X52413886Y-102590310D01*
X52360200Y-102860208D01*
X52360200Y-103135392D01*
X52413886Y-103405290D01*
X52519195Y-103659527D01*
X52672080Y-103888335D01*
X52866665Y-104082920D01*
X53095473Y-104235805D01*
X53172715Y-104267800D01*
X53095473Y-104299795D01*
X52866665Y-104452680D01*
X52672080Y-104647265D01*
X52519195Y-104876073D01*
X52413886Y-105130310D01*
X52360200Y-105400208D01*
X52360200Y-105675392D01*
X52413886Y-105945290D01*
X52519195Y-106199527D01*
X52672080Y-106428335D01*
X52866665Y-106622920D01*
X53095473Y-106775805D01*
X53172715Y-106807800D01*
X53095473Y-106839795D01*
X52866665Y-106992680D01*
X52672080Y-107187265D01*
X52519195Y-107416073D01*
X52413886Y-107670310D01*
X52360200Y-107940208D01*
X52360200Y-108215392D01*
X52413886Y-108485290D01*
X52519195Y-108739527D01*
X52672080Y-108968335D01*
X52866665Y-109162920D01*
X53095473Y-109315805D01*
X53172715Y-109347800D01*
X53095473Y-109379795D01*
X52866665Y-109532680D01*
X52672080Y-109727265D01*
X52519195Y-109956073D01*
X52413886Y-110210310D01*
X52360200Y-110480208D01*
X52360200Y-110755392D01*
X52413886Y-111025290D01*
X52519195Y-111279527D01*
X52672080Y-111508335D01*
X52866665Y-111702920D01*
X53095473Y-111855805D01*
X53172715Y-111887800D01*
X53095473Y-111919795D01*
X52866665Y-112072680D01*
X52672080Y-112267265D01*
X52519195Y-112496073D01*
X52413886Y-112750310D01*
X52360200Y-113020208D01*
X52360200Y-113295392D01*
X52413886Y-113565290D01*
X52519195Y-113819527D01*
X52672080Y-114048335D01*
X52866665Y-114242920D01*
X53095473Y-114395805D01*
X53172715Y-114427800D01*
X53095473Y-114459795D01*
X52866665Y-114612680D01*
X52672080Y-114807265D01*
X52519195Y-115036073D01*
X52413886Y-115290310D01*
X52360200Y-115560208D01*
X52360200Y-115835392D01*
X52413886Y-116105290D01*
X52519195Y-116359527D01*
X52672080Y-116588335D01*
X52866665Y-116782920D01*
X53095473Y-116935805D01*
X53349710Y-117041114D01*
X53619608Y-117094800D01*
X53894792Y-117094800D01*
X54164690Y-117041114D01*
X54418927Y-116935805D01*
X54647735Y-116782920D01*
X54842320Y-116588335D01*
X54947091Y-116431535D01*
X55040120Y-116656127D01*
X55197163Y-116891159D01*
X55397041Y-117091037D01*
X55632073Y-117248080D01*
X55893226Y-117356253D01*
X56170465Y-117411400D01*
X56453135Y-117411400D01*
X56730374Y-117356253D01*
X56991527Y-117248080D01*
X57226559Y-117091037D01*
X57426437Y-116891159D01*
X57581800Y-116658641D01*
X57737163Y-116891159D01*
X57937041Y-117091037D01*
X58172073Y-117248080D01*
X58433226Y-117356253D01*
X58710465Y-117411400D01*
X58993135Y-117411400D01*
X59270374Y-117356253D01*
X59531527Y-117248080D01*
X59766559Y-117091037D01*
X59966437Y-116891159D01*
X60121800Y-116658641D01*
X60277163Y-116891159D01*
X60477041Y-117091037D01*
X60712073Y-117248080D01*
X60973226Y-117356253D01*
X61250465Y-117411400D01*
X61533135Y-117411400D01*
X61810374Y-117356253D01*
X62071527Y-117248080D01*
X62306559Y-117091037D01*
X62506437Y-116891159D01*
X62663480Y-116656127D01*
X62771653Y-116394974D01*
X62826800Y-116117735D01*
X62826800Y-115835065D01*
X62771653Y-115557826D01*
X62663480Y-115296673D01*
X62506437Y-115061641D01*
X62306559Y-114861763D01*
X62074041Y-114706400D01*
X62306559Y-114551037D01*
X62506437Y-114351159D01*
X62661800Y-114118641D01*
X62817163Y-114351159D01*
X63017041Y-114551037D01*
X63252073Y-114708080D01*
X63513226Y-114816253D01*
X63790465Y-114871400D01*
X64073135Y-114871400D01*
X64350374Y-114816253D01*
X64611527Y-114708080D01*
X64846559Y-114551037D01*
X65046437Y-114351159D01*
X65203480Y-114116127D01*
X65254600Y-113992712D01*
X65254600Y-114366198D01*
X62074598Y-117546201D01*
X62045600Y-117569999D01*
X62021802Y-117598997D01*
X62021801Y-117598998D01*
X61950626Y-117685724D01*
X61880054Y-117817754D01*
X61879541Y-117819446D01*
X61839492Y-117951476D01*
X61836598Y-117961015D01*
X61821924Y-118110000D01*
X61825601Y-118147332D01*
X61825600Y-119377591D01*
X61822586Y-119399008D01*
X61825600Y-119452264D01*
X61825600Y-119468132D01*
X61827711Y-119489566D01*
X61831045Y-119548475D01*
X61835033Y-119563909D01*
X61836597Y-119579785D01*
X61853736Y-119636286D01*
X61868500Y-119693420D01*
X61875423Y-119707780D01*
X61880054Y-119723046D01*
X61907887Y-119775117D01*
X61933514Y-119828273D01*
X61943108Y-119841010D01*
X61950626Y-119855075D01*
X61988070Y-119900702D01*
X62001016Y-119917888D01*
X62011749Y-119929555D01*
X62045599Y-119970801D01*
X62062323Y-119984526D01*
X63303200Y-121333305D01*
X63303200Y-121437739D01*
X63342974Y-121637698D01*
X63420995Y-121826056D01*
X63534263Y-121995574D01*
X63678426Y-122139737D01*
X63847944Y-122253005D01*
X64036302Y-122331026D01*
X64236261Y-122370800D01*
X64440139Y-122370800D01*
X64640098Y-122331026D01*
X64828456Y-122253005D01*
X64997974Y-122139737D01*
X65142137Y-121995574D01*
X65255405Y-121826056D01*
X65333426Y-121637698D01*
X65373200Y-121437739D01*
X65373200Y-121233861D01*
X65333426Y-121033902D01*
X65255405Y-120845544D01*
X65142137Y-120676026D01*
X64997974Y-120531863D01*
X64828456Y-120418595D01*
X64640098Y-120340574D01*
X64440139Y-120300800D01*
X64418706Y-120300800D01*
X64097311Y-119951458D01*
X64254499Y-119935977D01*
X64468447Y-119871076D01*
X64665623Y-119765684D01*
X64786877Y-119666173D01*
X64866548Y-119736720D01*
X65058685Y-119848879D01*
X65230126Y-119911519D01*
X65405000Y-119785354D01*
X65405000Y-118819400D01*
X65385000Y-118819400D01*
X65385000Y-118565400D01*
X65405000Y-118565400D01*
X65405000Y-117599446D01*
X65230126Y-117473281D01*
X65120761Y-117513240D01*
X66346801Y-116287201D01*
X66346801Y-116802668D01*
X66343124Y-116840000D01*
X66357798Y-116988985D01*
X66401254Y-117132246D01*
X66471826Y-117264276D01*
X66539161Y-117346323D01*
X66566800Y-117380001D01*
X66595798Y-117403799D01*
X66680081Y-117488082D01*
X66595553Y-117513724D01*
X66398377Y-117619116D01*
X66277123Y-117718627D01*
X66197452Y-117648080D01*
X66005315Y-117535921D01*
X65833874Y-117473281D01*
X65659000Y-117599446D01*
X65659000Y-118565400D01*
X65679000Y-118565400D01*
X65679000Y-118819400D01*
X65659000Y-118819400D01*
X65659000Y-119785354D01*
X65833874Y-119911519D01*
X66005315Y-119848879D01*
X66197452Y-119736720D01*
X66277124Y-119666173D01*
X66398378Y-119765684D01*
X66595554Y-119871076D01*
X66809502Y-119935977D01*
X67032000Y-119957891D01*
X67254499Y-119935977D01*
X67468447Y-119871076D01*
X67665623Y-119765684D01*
X67838449Y-119623849D01*
X67980284Y-119451023D01*
X68085676Y-119253846D01*
X68150577Y-119039898D01*
X68167000Y-118873151D01*
X68167000Y-118511648D01*
X68150577Y-118344901D01*
X68085676Y-118130953D01*
X68019102Y-118006400D01*
X69902899Y-118006400D01*
X69836324Y-118130954D01*
X69771423Y-118344902D01*
X69755000Y-118511649D01*
X69755000Y-118873152D01*
X69771423Y-119039899D01*
X69836324Y-119253847D01*
X69941716Y-119451023D01*
X70083552Y-119623849D01*
X70256378Y-119765684D01*
X70453554Y-119871076D01*
X70667502Y-119935977D01*
X70890000Y-119957891D01*
X71112499Y-119935977D01*
X71326447Y-119871076D01*
X71523623Y-119765684D01*
X71644877Y-119666173D01*
X71724548Y-119736720D01*
X71916685Y-119848879D01*
X72088126Y-119911519D01*
X72263000Y-119785354D01*
X72263000Y-118819400D01*
X72243000Y-118819400D01*
X72243000Y-118565400D01*
X72263000Y-118565400D01*
X72263000Y-117599446D01*
X72517000Y-117599446D01*
X72517000Y-118565400D01*
X72537000Y-118565400D01*
X72537000Y-118819400D01*
X72517000Y-118819400D01*
X72517000Y-119785354D01*
X72691874Y-119911519D01*
X72863315Y-119848879D01*
X73055452Y-119736720D01*
X73135124Y-119666173D01*
X73256378Y-119765684D01*
X73453554Y-119871076D01*
X73667502Y-119935977D01*
X73890000Y-119957891D01*
X74112499Y-119935977D01*
X74326447Y-119871076D01*
X74523623Y-119765684D01*
X74696449Y-119623849D01*
X74838284Y-119451023D01*
X74943676Y-119253846D01*
X75008577Y-119039898D01*
X75025000Y-118873151D01*
X75025000Y-118511648D01*
X75008577Y-118344901D01*
X74943676Y-118130953D01*
X74838284Y-117933777D01*
X74696449Y-117760951D01*
X74523623Y-117619116D01*
X74326446Y-117513724D01*
X74112498Y-117448823D01*
X73890000Y-117426909D01*
X73667501Y-117448823D01*
X73453553Y-117513724D01*
X73256377Y-117619116D01*
X73135123Y-117718627D01*
X73055452Y-117648080D01*
X72863315Y-117535921D01*
X72691874Y-117473281D01*
X72517000Y-117599446D01*
X72263000Y-117599446D01*
X72088126Y-117473281D01*
X71916685Y-117535921D01*
X71724548Y-117648080D01*
X71644877Y-117718627D01*
X71600600Y-117682290D01*
X71600600Y-117371400D01*
X75301399Y-117371400D01*
X76562200Y-118632202D01*
X76562200Y-118873152D01*
X76578623Y-119039899D01*
X76643524Y-119253847D01*
X76748916Y-119451023D01*
X76890752Y-119623849D01*
X77063578Y-119765684D01*
X77260754Y-119871076D01*
X77474702Y-119935977D01*
X77697200Y-119957891D01*
X77919699Y-119935977D01*
X78133647Y-119871076D01*
X78330823Y-119765684D01*
X78452077Y-119666173D01*
X78531748Y-119736720D01*
X78723885Y-119848879D01*
X78895326Y-119911519D01*
X79070200Y-119785354D01*
X79070200Y-118819400D01*
X79050200Y-118819400D01*
X79050200Y-118565400D01*
X79070200Y-118565400D01*
X79070200Y-117599446D01*
X79324200Y-117599446D01*
X79324200Y-118565400D01*
X79344200Y-118565400D01*
X79344200Y-118819400D01*
X79324200Y-118819400D01*
X79324200Y-119785354D01*
X79499074Y-119911519D01*
X79670515Y-119848879D01*
X79862652Y-119736720D01*
X79942324Y-119666173D01*
X80063578Y-119765684D01*
X80260754Y-119871076D01*
X80474702Y-119935977D01*
X80697200Y-119957891D01*
X80919699Y-119935977D01*
X81133647Y-119871076D01*
X81330823Y-119765684D01*
X81503649Y-119623849D01*
X81645484Y-119451023D01*
X81750876Y-119253846D01*
X81815777Y-119039898D01*
X81832200Y-118873151D01*
X81832200Y-118511648D01*
X81815777Y-118344901D01*
X81750876Y-118130953D01*
X81645484Y-117933777D01*
X81503649Y-117760951D01*
X81330823Y-117619116D01*
X81133646Y-117513724D01*
X80919698Y-117448823D01*
X80697200Y-117426909D01*
X80474701Y-117448823D01*
X80260753Y-117513724D01*
X80063577Y-117619116D01*
X79942323Y-117718627D01*
X79862652Y-117648080D01*
X79670515Y-117535921D01*
X79499074Y-117473281D01*
X79324200Y-117599446D01*
X79070200Y-117599446D01*
X78895326Y-117473281D01*
X78723885Y-117535921D01*
X78531748Y-117648080D01*
X78452077Y-117718627D01*
X78330823Y-117619116D01*
X78133646Y-117513724D01*
X77919698Y-117448823D01*
X77697200Y-117426909D01*
X77523608Y-117444006D01*
X76866802Y-116787200D01*
X81066799Y-116787200D01*
X81478200Y-117198602D01*
X81501999Y-117227601D01*
X81617724Y-117322574D01*
X81749753Y-117393146D01*
X81893014Y-117436603D01*
X82004667Y-117447600D01*
X82004675Y-117447600D01*
X82042000Y-117451276D01*
X82079325Y-117447600D01*
X83729632Y-117447600D01*
X83732996Y-117732190D01*
X83697951Y-117760951D01*
X83556116Y-117933777D01*
X83450724Y-118130954D01*
X83385823Y-118344902D01*
X83369400Y-118511649D01*
X83369400Y-118873152D01*
X83385823Y-119039899D01*
X83450724Y-119253847D01*
X83556116Y-119451023D01*
X83697952Y-119623849D01*
X83870778Y-119765684D01*
X84067954Y-119871076D01*
X84281902Y-119935977D01*
X84504400Y-119957891D01*
X84726899Y-119935977D01*
X84940847Y-119871076D01*
X85138023Y-119765684D01*
X85259277Y-119666173D01*
X85338948Y-119736720D01*
X85531085Y-119848879D01*
X85702526Y-119911519D01*
X85877400Y-119785354D01*
X85877400Y-118819400D01*
X85857400Y-118819400D01*
X85857400Y-118565400D01*
X85877400Y-118565400D01*
X85877400Y-117599446D01*
X86131400Y-117599446D01*
X86131400Y-118565400D01*
X86151400Y-118565400D01*
X86151400Y-118819400D01*
X86131400Y-118819400D01*
X86131400Y-119785354D01*
X86306274Y-119911519D01*
X86477715Y-119848879D01*
X86669852Y-119736720D01*
X86749524Y-119666173D01*
X86870778Y-119765684D01*
X87067954Y-119871076D01*
X87281902Y-119935977D01*
X87504400Y-119957891D01*
X87726899Y-119935977D01*
X87940847Y-119871076D01*
X88138023Y-119765684D01*
X88310849Y-119623849D01*
X88452684Y-119451023D01*
X88558076Y-119253846D01*
X88622977Y-119039898D01*
X88639400Y-118873151D01*
X88639400Y-118511649D01*
X90176600Y-118511649D01*
X90176600Y-118873152D01*
X90193023Y-119039899D01*
X90257924Y-119253847D01*
X90363316Y-119451023D01*
X90505152Y-119623849D01*
X90677978Y-119765684D01*
X90875154Y-119871076D01*
X91089102Y-119935977D01*
X91311600Y-119957891D01*
X91534099Y-119935977D01*
X91748047Y-119871076D01*
X91945223Y-119765684D01*
X92066477Y-119666173D01*
X92146148Y-119736720D01*
X92338285Y-119848879D01*
X92509726Y-119911519D01*
X92684600Y-119785354D01*
X92684600Y-118819400D01*
X92664600Y-118819400D01*
X92664600Y-118565400D01*
X92684600Y-118565400D01*
X92684600Y-117599446D01*
X92938600Y-117599446D01*
X92938600Y-118565400D01*
X92958600Y-118565400D01*
X92958600Y-118819400D01*
X92938600Y-118819400D01*
X92938600Y-119785354D01*
X93113474Y-119911519D01*
X93284915Y-119848879D01*
X93477052Y-119736720D01*
X93556724Y-119666173D01*
X93677978Y-119765684D01*
X93875154Y-119871076D01*
X94089102Y-119935977D01*
X94311600Y-119957891D01*
X94534099Y-119935977D01*
X94748047Y-119871076D01*
X94945223Y-119765684D01*
X95118049Y-119623849D01*
X95259884Y-119451023D01*
X95365276Y-119253846D01*
X95430177Y-119039898D01*
X95446600Y-118873151D01*
X95446600Y-118511649D01*
X96983800Y-118511649D01*
X96983800Y-118873152D01*
X97000223Y-119039899D01*
X97065124Y-119253847D01*
X97170516Y-119451023D01*
X97312352Y-119623849D01*
X97485178Y-119765684D01*
X97682354Y-119871076D01*
X97896302Y-119935977D01*
X98118800Y-119957891D01*
X98341299Y-119935977D01*
X98555247Y-119871076D01*
X98752423Y-119765684D01*
X98873677Y-119666173D01*
X98953348Y-119736720D01*
X99145485Y-119848879D01*
X99316926Y-119911519D01*
X99491800Y-119785354D01*
X99491800Y-118819400D01*
X99471800Y-118819400D01*
X99471800Y-118565400D01*
X99491800Y-118565400D01*
X99491800Y-117599446D01*
X99316926Y-117473281D01*
X99145485Y-117535921D01*
X98953348Y-117648080D01*
X98873677Y-117718627D01*
X98752423Y-117619116D01*
X98555246Y-117513724D01*
X98341298Y-117448823D01*
X98118800Y-117426909D01*
X97896301Y-117448823D01*
X97682353Y-117513724D01*
X97485177Y-117619116D01*
X97312351Y-117760951D01*
X97170516Y-117933777D01*
X97065124Y-118130954D01*
X97000223Y-118344902D01*
X96983800Y-118511649D01*
X95446600Y-118511649D01*
X95446600Y-118511648D01*
X95430177Y-118344901D01*
X95365276Y-118130953D01*
X95259884Y-117933777D01*
X95118049Y-117760951D01*
X94945223Y-117619116D01*
X94748046Y-117513724D01*
X94534098Y-117448823D01*
X94311600Y-117426909D01*
X94089101Y-117448823D01*
X93875153Y-117513724D01*
X93677977Y-117619116D01*
X93556723Y-117718627D01*
X93477052Y-117648080D01*
X93284915Y-117535921D01*
X93113474Y-117473281D01*
X92938600Y-117599446D01*
X92684600Y-117599446D01*
X92509726Y-117473281D01*
X92338285Y-117535921D01*
X92146148Y-117648080D01*
X92066477Y-117718627D01*
X91945223Y-117619116D01*
X91748046Y-117513724D01*
X91534098Y-117448823D01*
X91311600Y-117426909D01*
X91089101Y-117448823D01*
X90875153Y-117513724D01*
X90677977Y-117619116D01*
X90505151Y-117760951D01*
X90363316Y-117933777D01*
X90257924Y-118130954D01*
X90193023Y-118344902D01*
X90176600Y-118511649D01*
X88639400Y-118511649D01*
X88639400Y-118511648D01*
X88622977Y-118344901D01*
X88558076Y-118130953D01*
X88452684Y-117933777D01*
X88310849Y-117760951D01*
X88138023Y-117619116D01*
X87940846Y-117513724D01*
X87726898Y-117448823D01*
X87504400Y-117426909D01*
X87281901Y-117448823D01*
X87067953Y-117513724D01*
X86870777Y-117619116D01*
X86749523Y-117718627D01*
X86669852Y-117648080D01*
X86477715Y-117535921D01*
X86306274Y-117473281D01*
X86131400Y-117599446D01*
X85877400Y-117599446D01*
X85702526Y-117473281D01*
X85531085Y-117535921D01*
X85338948Y-117648080D01*
X85259277Y-117718627D01*
X85252879Y-117713376D01*
X85245020Y-117048581D01*
X86395403Y-115898200D01*
X90618889Y-115898200D01*
X90662826Y-115942137D01*
X90832344Y-116055405D01*
X91020702Y-116133426D01*
X91220661Y-116173200D01*
X91424539Y-116173200D01*
X91624498Y-116133426D01*
X91812856Y-116055405D01*
X91982374Y-115942137D01*
X92126537Y-115797974D01*
X92239805Y-115628456D01*
X92317826Y-115440098D01*
X92357600Y-115240139D01*
X92357600Y-115036261D01*
X92317826Y-114836302D01*
X92239805Y-114647944D01*
X92143090Y-114503200D01*
X92239805Y-114358456D01*
X92317826Y-114170098D01*
X92357600Y-113970139D01*
X92357600Y-113766261D01*
X92317826Y-113566302D01*
X92242148Y-113383600D01*
X92588769Y-113383600D01*
X92626091Y-113387276D01*
X92663413Y-113383600D01*
X92663424Y-113383600D01*
X92775077Y-113372603D01*
X92918338Y-113329146D01*
X93050367Y-113258574D01*
X93166092Y-113163601D01*
X93189895Y-113134597D01*
X93467180Y-112857312D01*
X97873783Y-112857312D01*
X97915213Y-113136930D01*
X98010397Y-113403092D01*
X98077329Y-113528314D01*
X98321298Y-113599897D01*
X99134395Y-112786800D01*
X98321298Y-111973703D01*
X98077329Y-112045286D01*
X97956429Y-112300796D01*
X97887700Y-112574984D01*
X97873783Y-112857312D01*
X93467180Y-112857312D01*
X96837693Y-109486800D01*
X97875928Y-109486800D01*
X97875928Y-111086800D01*
X97888188Y-111211282D01*
X97924498Y-111330980D01*
X97983463Y-111441294D01*
X98062815Y-111537985D01*
X98159506Y-111617337D01*
X98269820Y-111676302D01*
X98389518Y-111712612D01*
X98514000Y-111724872D01*
X98521215Y-111724872D01*
X98500903Y-111794098D01*
X99314000Y-112607195D01*
X99328143Y-112593053D01*
X99507748Y-112772658D01*
X99493605Y-112786800D01*
X99507748Y-112800943D01*
X99328143Y-112980548D01*
X99314000Y-112966405D01*
X98500903Y-113779502D01*
X98572486Y-114023471D01*
X98827996Y-114144371D01*
X99102184Y-114213100D01*
X99384512Y-114227017D01*
X99664130Y-114185587D01*
X99930292Y-114090403D01*
X100055514Y-114023471D01*
X100127097Y-113779504D01*
X100243370Y-113895777D01*
X100308800Y-113830347D01*
X100308801Y-117669817D01*
X100284252Y-117648080D01*
X100092115Y-117535921D01*
X99920674Y-117473281D01*
X99745800Y-117599446D01*
X99745800Y-118565400D01*
X99765800Y-118565400D01*
X99765800Y-118819400D01*
X99745800Y-118819400D01*
X99745800Y-119785354D01*
X99920674Y-119911519D01*
X100092115Y-119848879D01*
X100284252Y-119736720D01*
X100363924Y-119666173D01*
X100485178Y-119765684D01*
X100682354Y-119871076D01*
X100896302Y-119935977D01*
X101118800Y-119957891D01*
X101341299Y-119935977D01*
X101555247Y-119871076D01*
X101752423Y-119765684D01*
X101925249Y-119623849D01*
X102067084Y-119451023D01*
X102172476Y-119253846D01*
X102237377Y-119039898D01*
X102253800Y-118873151D01*
X102253800Y-118511649D01*
X103791000Y-118511649D01*
X103791000Y-118873152D01*
X103807423Y-119039899D01*
X103872324Y-119253847D01*
X103977716Y-119451023D01*
X104119552Y-119623849D01*
X104292378Y-119765684D01*
X104489554Y-119871076D01*
X104703502Y-119935977D01*
X104926000Y-119957891D01*
X105148499Y-119935977D01*
X105362447Y-119871076D01*
X105559623Y-119765684D01*
X105680877Y-119666173D01*
X105760548Y-119736720D01*
X105952685Y-119848879D01*
X106124126Y-119911519D01*
X106299000Y-119785354D01*
X106299000Y-118819400D01*
X106279000Y-118819400D01*
X106279000Y-118565400D01*
X106299000Y-118565400D01*
X106299000Y-117599446D01*
X106553000Y-117599446D01*
X106553000Y-118565400D01*
X106573000Y-118565400D01*
X106573000Y-118819400D01*
X106553000Y-118819400D01*
X106553000Y-119785354D01*
X106727874Y-119911519D01*
X106899315Y-119848879D01*
X107091452Y-119736720D01*
X107171124Y-119666173D01*
X107292378Y-119765684D01*
X107489554Y-119871076D01*
X107703502Y-119935977D01*
X107926000Y-119957891D01*
X108148499Y-119935977D01*
X108362447Y-119871076D01*
X108559623Y-119765684D01*
X108732449Y-119623849D01*
X108874284Y-119451023D01*
X108979676Y-119253846D01*
X109044577Y-119039898D01*
X109061000Y-118873151D01*
X109061000Y-118511648D01*
X109044577Y-118344901D01*
X108979676Y-118130953D01*
X108874284Y-117933777D01*
X108732449Y-117760951D01*
X108559623Y-117619116D01*
X108362446Y-117513724D01*
X108148498Y-117448823D01*
X107926000Y-117426909D01*
X107703501Y-117448823D01*
X107489553Y-117513724D01*
X107292377Y-117619116D01*
X107171123Y-117718627D01*
X107091452Y-117648080D01*
X106899315Y-117535921D01*
X106727874Y-117473281D01*
X106553000Y-117599446D01*
X106299000Y-117599446D01*
X106124126Y-117473281D01*
X105952685Y-117535921D01*
X105760548Y-117648080D01*
X105680877Y-117718627D01*
X105559623Y-117619116D01*
X105362446Y-117513724D01*
X105148498Y-117448823D01*
X104926000Y-117426909D01*
X104703501Y-117448823D01*
X104489553Y-117513724D01*
X104292377Y-117619116D01*
X104119551Y-117760951D01*
X103977716Y-117933777D01*
X103872324Y-118130954D01*
X103807423Y-118344902D01*
X103791000Y-118511649D01*
X102253800Y-118511649D01*
X102253800Y-118511648D01*
X102237377Y-118344901D01*
X102172476Y-118130953D01*
X102067084Y-117933777D01*
X101928800Y-117765278D01*
X101928800Y-115715840D01*
X106100891Y-115715840D01*
X106195730Y-115980681D01*
X106340415Y-116221931D01*
X106529386Y-116430319D01*
X106755380Y-116597837D01*
X107009713Y-116718046D01*
X107143761Y-116758704D01*
X107365800Y-116636715D01*
X107365800Y-115493800D01*
X107619800Y-115493800D01*
X107619800Y-116636715D01*
X107841839Y-116758704D01*
X107975887Y-116718046D01*
X108230220Y-116597837D01*
X108456214Y-116430319D01*
X108645185Y-116221931D01*
X108789870Y-115980681D01*
X108884709Y-115715840D01*
X108763424Y-115493800D01*
X107619800Y-115493800D01*
X107365800Y-115493800D01*
X106222176Y-115493800D01*
X106100891Y-115715840D01*
X101928800Y-115715840D01*
X101928800Y-115017760D01*
X106100891Y-115017760D01*
X106222176Y-115239800D01*
X107365800Y-115239800D01*
X107365800Y-114096885D01*
X107619800Y-114096885D01*
X107619800Y-115239800D01*
X108763424Y-115239800D01*
X108884709Y-115017760D01*
X108789870Y-114752919D01*
X108645185Y-114511669D01*
X108456214Y-114303281D01*
X108230220Y-114135763D01*
X107975887Y-114015554D01*
X107841839Y-113974896D01*
X107619800Y-114096885D01*
X107365800Y-114096885D01*
X107143761Y-113974896D01*
X107009713Y-114015554D01*
X106755380Y-114135763D01*
X106529386Y-114303281D01*
X106340415Y-114511669D01*
X106195730Y-114752919D01*
X106100891Y-115017760D01*
X101928800Y-115017760D01*
X101928800Y-111166188D01*
X101932719Y-111126400D01*
X101928649Y-111085080D01*
X101917080Y-110967612D01*
X101870846Y-110815201D01*
X101870763Y-110814926D01*
X101795549Y-110674211D01*
X101758281Y-110628800D01*
X101694328Y-110550872D01*
X101663419Y-110525506D01*
X100880099Y-109742187D01*
X100854728Y-109711272D01*
X100752072Y-109627025D01*
X100752072Y-109486800D01*
X100739812Y-109362318D01*
X100703502Y-109242620D01*
X100644537Y-109132306D01*
X100565185Y-109035615D01*
X100468494Y-108956263D01*
X100358180Y-108897298D01*
X100238482Y-108860988D01*
X100114000Y-108848728D01*
X98514000Y-108848728D01*
X98389518Y-108860988D01*
X98269820Y-108897298D01*
X98159506Y-108956263D01*
X98062815Y-109035615D01*
X97983463Y-109132306D01*
X97924498Y-109242620D01*
X97888188Y-109362318D01*
X97875928Y-109486800D01*
X96837693Y-109486800D01*
X98152294Y-108172200D01*
X98171339Y-108172200D01*
X98371298Y-108132426D01*
X98559656Y-108054405D01*
X98729174Y-107941137D01*
X98873337Y-107796974D01*
X98986605Y-107627456D01*
X99064626Y-107439098D01*
X99104400Y-107239139D01*
X99104400Y-107035261D01*
X99064626Y-106835302D01*
X98986605Y-106646944D01*
X98873337Y-106477426D01*
X98729174Y-106333263D01*
X98559656Y-106219995D01*
X98371298Y-106141974D01*
X98171339Y-106102200D01*
X97967461Y-106102200D01*
X97767502Y-106141974D01*
X97579144Y-106219995D01*
X97409626Y-106333263D01*
X97265463Y-106477426D01*
X97152195Y-106646944D01*
X97074174Y-106835302D01*
X97034400Y-107035261D01*
X97034400Y-107140488D01*
X92311290Y-111863600D01*
X92209641Y-111863600D01*
X92239805Y-111818456D01*
X92317826Y-111630098D01*
X92357600Y-111430139D01*
X92357600Y-111226261D01*
X92317826Y-111026302D01*
X92239805Y-110837944D01*
X92138290Y-110686016D01*
X92230205Y-110548456D01*
X92308226Y-110360098D01*
X92348000Y-110160139D01*
X92348000Y-109956261D01*
X92308226Y-109756302D01*
X92230205Y-109567944D01*
X92116937Y-109398426D01*
X91972774Y-109254263D01*
X91803256Y-109140995D01*
X91614898Y-109062974D01*
X91414939Y-109023200D01*
X91211061Y-109023200D01*
X91011102Y-109062974D01*
X90822744Y-109140995D01*
X90653226Y-109254263D01*
X90609289Y-109298200D01*
X89851722Y-109298200D01*
X89814400Y-109294524D01*
X89777077Y-109298200D01*
X89777067Y-109298200D01*
X89665414Y-109309197D01*
X89529244Y-109350503D01*
X89522153Y-109352654D01*
X89390123Y-109423226D01*
X89331866Y-109471037D01*
X89274399Y-109518199D01*
X89250601Y-109547197D01*
X87442199Y-111355600D01*
X83609421Y-111355600D01*
X83667897Y-111156302D01*
X82854800Y-110343205D01*
X82041703Y-111156302D01*
X82100179Y-111355600D01*
X80268629Y-111355600D01*
X80294314Y-111341871D01*
X80365897Y-111097902D01*
X79552800Y-110284805D01*
X78739703Y-111097902D01*
X78811286Y-111341871D01*
X78840301Y-111355600D01*
X73771602Y-111355600D01*
X72591714Y-110175712D01*
X78112583Y-110175712D01*
X78154013Y-110455330D01*
X78249197Y-110721492D01*
X78316129Y-110846714D01*
X78560098Y-110918297D01*
X79373195Y-110105200D01*
X79732405Y-110105200D01*
X80545502Y-110918297D01*
X80789471Y-110846714D01*
X80910371Y-110591204D01*
X80979100Y-110317016D01*
X80983186Y-110234112D01*
X81414583Y-110234112D01*
X81456013Y-110513730D01*
X81551197Y-110779892D01*
X81618129Y-110905114D01*
X81862098Y-110976697D01*
X82675195Y-110163600D01*
X83034405Y-110163600D01*
X83847502Y-110976697D01*
X84091471Y-110905114D01*
X84212371Y-110649604D01*
X84281100Y-110375416D01*
X84295017Y-110093088D01*
X84253587Y-109813470D01*
X84158403Y-109547308D01*
X84091471Y-109422086D01*
X83847502Y-109350503D01*
X83034405Y-110163600D01*
X82675195Y-110163600D01*
X81862098Y-109350503D01*
X81618129Y-109422086D01*
X81497229Y-109677596D01*
X81428500Y-109951784D01*
X81414583Y-110234112D01*
X80983186Y-110234112D01*
X80993017Y-110034688D01*
X80951587Y-109755070D01*
X80856403Y-109488908D01*
X80789471Y-109363686D01*
X80545502Y-109292103D01*
X79732405Y-110105200D01*
X79373195Y-110105200D01*
X78560098Y-109292103D01*
X78316129Y-109363686D01*
X78195229Y-109619196D01*
X78126500Y-109893384D01*
X78112583Y-110175712D01*
X72591714Y-110175712D01*
X71926209Y-109510208D01*
X71970000Y-109290060D01*
X71970000Y-109112498D01*
X78739703Y-109112498D01*
X79552800Y-109925595D01*
X80307497Y-109170898D01*
X82041703Y-109170898D01*
X82854800Y-109983995D01*
X83667897Y-109170898D01*
X83596314Y-108926929D01*
X83340804Y-108806029D01*
X83066616Y-108737300D01*
X82784288Y-108723383D01*
X82504670Y-108764813D01*
X82238508Y-108859997D01*
X82113286Y-108926929D01*
X82041703Y-109170898D01*
X80307497Y-109170898D01*
X80365897Y-109112498D01*
X80294314Y-108868529D01*
X80038804Y-108747629D01*
X79764616Y-108678900D01*
X79482288Y-108664983D01*
X79202670Y-108706413D01*
X78936508Y-108801597D01*
X78811286Y-108868529D01*
X78739703Y-109112498D01*
X71970000Y-109112498D01*
X71970000Y-108997540D01*
X71912932Y-108710642D01*
X71800990Y-108440389D01*
X71638475Y-108197168D01*
X71431632Y-107990325D01*
X71257240Y-107873800D01*
X71431632Y-107757275D01*
X71638475Y-107550432D01*
X71800990Y-107307211D01*
X71912932Y-107036958D01*
X71970000Y-106750060D01*
X71970000Y-106457540D01*
X71912932Y-106170642D01*
X71800990Y-105900389D01*
X71638475Y-105657168D01*
X71431632Y-105450325D01*
X71257240Y-105333800D01*
X71431632Y-105217275D01*
X71638475Y-105010432D01*
X71800990Y-104767211D01*
X71912932Y-104496958D01*
X71970000Y-104210060D01*
X71970000Y-103917540D01*
X71912932Y-103630642D01*
X71800990Y-103360389D01*
X71638475Y-103117168D01*
X71431632Y-102910325D01*
X71257240Y-102793800D01*
X71431632Y-102677275D01*
X71638475Y-102470432D01*
X71800990Y-102227211D01*
X71912932Y-101956958D01*
X71952400Y-101758540D01*
X74410200Y-101758540D01*
X74410200Y-102051060D01*
X74467268Y-102337958D01*
X74579210Y-102608211D01*
X74741725Y-102851432D01*
X74948568Y-103058275D01*
X75122960Y-103174800D01*
X74948568Y-103291325D01*
X74741725Y-103498168D01*
X74579210Y-103741389D01*
X74467268Y-104011642D01*
X74410200Y-104298540D01*
X74410200Y-104591060D01*
X74467268Y-104877958D01*
X74579210Y-105148211D01*
X74741725Y-105391432D01*
X74948568Y-105598275D01*
X75191789Y-105760790D01*
X75462042Y-105872732D01*
X75748940Y-105929800D01*
X76041460Y-105929800D01*
X76328358Y-105872732D01*
X76598611Y-105760790D01*
X76841832Y-105598275D01*
X77048675Y-105391432D01*
X77211190Y-105148211D01*
X77287548Y-104963865D01*
X78117800Y-104963865D01*
X78117800Y-105246535D01*
X78172947Y-105523774D01*
X78281120Y-105784927D01*
X78438163Y-106019959D01*
X78638041Y-106219837D01*
X78873073Y-106376880D01*
X79134226Y-106485053D01*
X79411465Y-106540200D01*
X79694135Y-106540200D01*
X79971374Y-106485053D01*
X80232527Y-106376880D01*
X80467559Y-106219837D01*
X80667437Y-106019959D01*
X80824480Y-105784927D01*
X80932653Y-105523774D01*
X80977260Y-105299525D01*
X80992403Y-105307619D01*
X81070127Y-105349163D01*
X81222812Y-105395480D01*
X81341809Y-105407200D01*
X81341812Y-105407200D01*
X81381600Y-105411119D01*
X81421388Y-105407200D01*
X86860377Y-105407200D01*
X86932428Y-105408564D01*
X86979335Y-105400154D01*
X87026788Y-105395480D01*
X87057699Y-105386103D01*
X87089479Y-105380405D01*
X87133851Y-105363002D01*
X87179473Y-105349163D01*
X87207956Y-105333939D01*
X87238019Y-105322148D01*
X87278145Y-105296422D01*
X87320189Y-105273949D01*
X87375953Y-105228185D01*
X87400171Y-105209066D01*
X87414626Y-105215053D01*
X87691865Y-105270200D01*
X87974535Y-105270200D01*
X88200365Y-105225279D01*
X88774711Y-105723045D01*
X88781672Y-105731528D01*
X88834925Y-105775231D01*
X88856775Y-105794168D01*
X88865675Y-105800467D01*
X88905011Y-105832749D01*
X88930648Y-105846452D01*
X88954376Y-105863246D01*
X89000850Y-105883976D01*
X89045727Y-105907963D01*
X89073545Y-105916401D01*
X89100092Y-105928243D01*
X89149707Y-105939505D01*
X89198412Y-105954280D01*
X89227351Y-105957130D01*
X89255690Y-105963563D01*
X89306543Y-105964930D01*
X89317409Y-105966000D01*
X89346359Y-105966000D01*
X89415189Y-105967850D01*
X89426000Y-105966000D01*
X92947765Y-105966000D01*
X93017763Y-106070759D01*
X93217641Y-106270637D01*
X93452673Y-106427680D01*
X93713826Y-106535853D01*
X93991065Y-106591000D01*
X94273735Y-106591000D01*
X94550974Y-106535853D01*
X94812127Y-106427680D01*
X95047159Y-106270637D01*
X95247037Y-106070759D01*
X95404080Y-105835727D01*
X95512253Y-105574574D01*
X95567400Y-105297335D01*
X95567400Y-105014665D01*
X95512253Y-104737426D01*
X95404080Y-104476273D01*
X95247037Y-104241241D01*
X95047159Y-104041363D01*
X94812127Y-103884320D01*
X94550974Y-103776147D01*
X94273735Y-103721000D01*
X93991065Y-103721000D01*
X93713826Y-103776147D01*
X93452673Y-103884320D01*
X93217641Y-104041363D01*
X93017763Y-104241241D01*
X92947765Y-104346000D01*
X89659358Y-104346000D01*
X89263032Y-104002518D01*
X89268200Y-103976535D01*
X89268200Y-103693865D01*
X89213053Y-103416626D01*
X89104880Y-103155473D01*
X88947837Y-102920441D01*
X88747959Y-102720563D01*
X88512927Y-102563520D01*
X88251774Y-102455347D01*
X87974535Y-102400200D01*
X87691865Y-102400200D01*
X87414626Y-102455347D01*
X87153473Y-102563520D01*
X86918441Y-102720563D01*
X86718563Y-102920441D01*
X86561520Y-103155473D01*
X86453347Y-103416626D01*
X86398200Y-103693865D01*
X86398200Y-103787200D01*
X81717113Y-103787200D01*
X81226400Y-103296488D01*
X81226400Y-103215900D01*
X81333605Y-103055456D01*
X81411626Y-102867098D01*
X81451400Y-102667139D01*
X81451400Y-102463261D01*
X81441296Y-102412461D01*
X81921400Y-102412461D01*
X81921400Y-102616339D01*
X81961174Y-102816298D01*
X82039195Y-103004656D01*
X82152463Y-103174174D01*
X82296626Y-103318337D01*
X82466144Y-103431605D01*
X82654502Y-103509626D01*
X82854461Y-103549400D01*
X83058339Y-103549400D01*
X83258298Y-103509626D01*
X83446656Y-103431605D01*
X83616174Y-103318337D01*
X83760337Y-103174174D01*
X83873605Y-103004656D01*
X83951626Y-102816298D01*
X83991400Y-102616339D01*
X83991400Y-102412461D01*
X83951626Y-102212502D01*
X83873605Y-102024144D01*
X83760337Y-101854626D01*
X83716400Y-101810689D01*
X83716400Y-99908201D01*
X84160202Y-99464400D01*
X86540591Y-99464400D01*
X86561520Y-99514927D01*
X86718563Y-99749959D01*
X86918441Y-99949837D01*
X87073201Y-100053244D01*
X87073201Y-100673668D01*
X87069524Y-100711000D01*
X87073201Y-100748333D01*
X87084198Y-100859986D01*
X87089582Y-100877735D01*
X87127654Y-101003246D01*
X87198226Y-101135276D01*
X87269401Y-101222002D01*
X87293200Y-101251001D01*
X87322198Y-101274799D01*
X89225200Y-103177802D01*
X89248999Y-103206801D01*
X89277997Y-103230599D01*
X89364723Y-103301774D01*
X89474383Y-103360389D01*
X89496753Y-103372346D01*
X89640014Y-103415803D01*
X89751667Y-103426800D01*
X89751677Y-103426800D01*
X89789000Y-103430476D01*
X89826323Y-103426800D01*
X101996399Y-103426800D01*
X103030794Y-104461196D01*
X103020720Y-104476273D01*
X102912547Y-104737426D01*
X102857400Y-105014665D01*
X102857400Y-105297335D01*
X102912547Y-105574574D01*
X103020720Y-105835727D01*
X103177763Y-106070759D01*
X103377641Y-106270637D01*
X103612673Y-106427680D01*
X103873826Y-106535853D01*
X104151065Y-106591000D01*
X104433735Y-106591000D01*
X104710974Y-106535853D01*
X104972127Y-106427680D01*
X105207159Y-106270637D01*
X105407037Y-106070759D01*
X105564080Y-105835727D01*
X105672253Y-105574574D01*
X105727400Y-105297335D01*
X105727400Y-105065465D01*
X106057800Y-105065465D01*
X106057800Y-105348135D01*
X106112947Y-105625374D01*
X106221120Y-105886527D01*
X106378163Y-106121559D01*
X106578041Y-106321437D01*
X106813073Y-106478480D01*
X107074226Y-106586653D01*
X107351465Y-106641800D01*
X107634135Y-106641800D01*
X107911374Y-106586653D01*
X108172527Y-106478480D01*
X108407559Y-106321437D01*
X108607437Y-106121559D01*
X108764480Y-105886527D01*
X108872653Y-105625374D01*
X108927800Y-105348135D01*
X108927800Y-105065465D01*
X108872653Y-104788226D01*
X108764480Y-104527073D01*
X108607437Y-104292041D01*
X108407559Y-104092163D01*
X108172527Y-103935120D01*
X107911374Y-103826947D01*
X107634135Y-103771800D01*
X107351465Y-103771800D01*
X107074226Y-103826947D01*
X106813073Y-103935120D01*
X106578041Y-104092163D01*
X106378163Y-104292041D01*
X106221120Y-104527073D01*
X106112947Y-104788226D01*
X106057800Y-105065465D01*
X105727400Y-105065465D01*
X105727400Y-105014665D01*
X105672253Y-104737426D01*
X105564080Y-104476273D01*
X105407037Y-104241241D01*
X105207159Y-104041363D01*
X104972127Y-103884320D01*
X104710974Y-103776147D01*
X104441808Y-103722606D01*
X102875004Y-102155803D01*
X102851201Y-102126799D01*
X102735476Y-102031826D01*
X102603447Y-101961254D01*
X102460186Y-101917797D01*
X102348533Y-101906800D01*
X102348522Y-101906800D01*
X102311200Y-101903124D01*
X102273878Y-101906800D01*
X90103802Y-101906800D01*
X88593200Y-100396199D01*
X88593200Y-100053243D01*
X88747959Y-99949837D01*
X88947837Y-99749959D01*
X89104880Y-99514927D01*
X89213053Y-99253774D01*
X89268200Y-98976535D01*
X89268200Y-98693865D01*
X89213053Y-98416626D01*
X89104880Y-98155473D01*
X88947837Y-97920441D01*
X88747959Y-97720563D01*
X88512927Y-97563520D01*
X88251774Y-97455347D01*
X87974535Y-97400200D01*
X87691865Y-97400200D01*
X87414626Y-97455347D01*
X87153473Y-97563520D01*
X86918441Y-97720563D01*
X86718563Y-97920441D01*
X86702554Y-97944400D01*
X83882723Y-97944400D01*
X83845400Y-97940724D01*
X83808077Y-97944400D01*
X83808067Y-97944400D01*
X83696414Y-97955397D01*
X83553153Y-97998854D01*
X83421124Y-98069426D01*
X83305399Y-98164399D01*
X83281601Y-98193397D01*
X82445398Y-99029601D01*
X82416400Y-99053399D01*
X82392602Y-99082397D01*
X82392601Y-99082398D01*
X82321426Y-99169124D01*
X82250854Y-99301154D01*
X82207398Y-99444415D01*
X82192724Y-99593400D01*
X82196401Y-99630732D01*
X82196400Y-101810689D01*
X82152463Y-101854626D01*
X82039195Y-102024144D01*
X81961174Y-102212502D01*
X81921400Y-102412461D01*
X81441296Y-102412461D01*
X81411626Y-102263302D01*
X81333605Y-102074944D01*
X81220337Y-101905426D01*
X81076174Y-101761263D01*
X80906656Y-101647995D01*
X80718298Y-101569974D01*
X80518339Y-101530200D01*
X80314461Y-101530200D01*
X80114502Y-101569974D01*
X79926144Y-101647995D01*
X79756626Y-101761263D01*
X79612463Y-101905426D01*
X79499195Y-102074944D01*
X79421174Y-102263302D01*
X79381400Y-102463261D01*
X79381400Y-102667139D01*
X79421174Y-102867098D01*
X79499195Y-103055456D01*
X79606401Y-103215901D01*
X79606401Y-103592202D01*
X79602481Y-103632000D01*
X79606244Y-103670200D01*
X79411465Y-103670200D01*
X79134226Y-103725347D01*
X78873073Y-103833520D01*
X78638041Y-103990563D01*
X78438163Y-104190441D01*
X78281120Y-104425473D01*
X78172947Y-104686626D01*
X78117800Y-104963865D01*
X77287548Y-104963865D01*
X77323132Y-104877958D01*
X77380200Y-104591060D01*
X77380200Y-104298540D01*
X77323132Y-104011642D01*
X77211190Y-103741389D01*
X77048675Y-103498168D01*
X76841832Y-103291325D01*
X76667440Y-103174800D01*
X76841832Y-103058275D01*
X77048675Y-102851432D01*
X77211190Y-102608211D01*
X77323132Y-102337958D01*
X77380200Y-102051060D01*
X77380200Y-101758540D01*
X77323132Y-101471642D01*
X77211190Y-101201389D01*
X77048675Y-100958168D01*
X76841832Y-100751325D01*
X76659666Y-100629605D01*
X76776555Y-100559978D01*
X76992788Y-100365069D01*
X77166841Y-100131720D01*
X77292025Y-99868899D01*
X77336676Y-99721690D01*
X77215355Y-99491800D01*
X76022200Y-99491800D01*
X76022200Y-99511800D01*
X75768200Y-99511800D01*
X75768200Y-99491800D01*
X74575045Y-99491800D01*
X74453724Y-99721690D01*
X74498375Y-99868899D01*
X74623559Y-100131720D01*
X74797612Y-100365069D01*
X75013845Y-100559978D01*
X75130734Y-100629605D01*
X74948568Y-100751325D01*
X74741725Y-100958168D01*
X74579210Y-101201389D01*
X74467268Y-101471642D01*
X74410200Y-101758540D01*
X71952400Y-101758540D01*
X71970000Y-101670060D01*
X71970000Y-101377540D01*
X71912932Y-101090642D01*
X71800990Y-100820389D01*
X71638475Y-100577168D01*
X71431632Y-100370325D01*
X71257240Y-100253800D01*
X71431632Y-100137275D01*
X71638475Y-99930432D01*
X71800990Y-99687211D01*
X71912932Y-99416958D01*
X71970000Y-99130060D01*
X71970000Y-98837540D01*
X71912932Y-98550642D01*
X71800990Y-98280389D01*
X71638475Y-98037168D01*
X71431632Y-97830325D01*
X71257240Y-97713800D01*
X71315607Y-97674800D01*
X74407128Y-97674800D01*
X74419388Y-97799282D01*
X74455698Y-97918980D01*
X74514663Y-98029294D01*
X74594015Y-98125985D01*
X74690706Y-98205337D01*
X74801020Y-98264302D01*
X74881666Y-98288766D01*
X74797612Y-98364531D01*
X74623559Y-98597880D01*
X74498375Y-98860701D01*
X74453724Y-99007910D01*
X74575045Y-99237800D01*
X75768200Y-99237800D01*
X75768200Y-96951800D01*
X76022200Y-96951800D01*
X76022200Y-99237800D01*
X77215355Y-99237800D01*
X77336676Y-99007910D01*
X77292025Y-98860701D01*
X77166841Y-98597880D01*
X76992788Y-98364531D01*
X76908734Y-98288766D01*
X76989380Y-98264302D01*
X77099694Y-98205337D01*
X77196385Y-98125985D01*
X77275737Y-98029294D01*
X77334702Y-97918980D01*
X77371012Y-97799282D01*
X77383272Y-97674800D01*
X77380200Y-97110550D01*
X77221450Y-96951800D01*
X76022200Y-96951800D01*
X75768200Y-96951800D01*
X74568950Y-96951800D01*
X74410200Y-97110550D01*
X74407128Y-97674800D01*
X71315607Y-97674800D01*
X71431632Y-97597275D01*
X71638475Y-97390432D01*
X71800990Y-97147211D01*
X71912932Y-96876958D01*
X71970000Y-96590060D01*
X71970000Y-96297540D01*
X71912932Y-96010642D01*
X71898086Y-95974800D01*
X74407128Y-95974800D01*
X74410200Y-96539050D01*
X74568950Y-96697800D01*
X75768200Y-96697800D01*
X75768200Y-95498550D01*
X76022200Y-95498550D01*
X76022200Y-96697800D01*
X77221450Y-96697800D01*
X77380200Y-96539050D01*
X77383272Y-95974800D01*
X77371012Y-95850318D01*
X77334702Y-95730620D01*
X77275737Y-95620306D01*
X77196385Y-95523615D01*
X77099694Y-95444263D01*
X76989380Y-95385298D01*
X76869682Y-95348988D01*
X76745200Y-95336728D01*
X76180950Y-95339800D01*
X76022200Y-95498550D01*
X75768200Y-95498550D01*
X75609450Y-95339800D01*
X75045200Y-95336728D01*
X74920718Y-95348988D01*
X74801020Y-95385298D01*
X74690706Y-95444263D01*
X74594015Y-95523615D01*
X74514663Y-95620306D01*
X74455698Y-95730620D01*
X74419388Y-95850318D01*
X74407128Y-95974800D01*
X71898086Y-95974800D01*
X71800990Y-95740389D01*
X71638475Y-95497168D01*
X71431632Y-95290325D01*
X71257240Y-95173800D01*
X71431632Y-95057275D01*
X71638475Y-94850432D01*
X71800990Y-94607211D01*
X71912932Y-94336958D01*
X71970000Y-94050060D01*
X71970000Y-93757540D01*
X71912932Y-93470642D01*
X71800990Y-93200389D01*
X71638475Y-92957168D01*
X71431632Y-92750325D01*
X71257240Y-92633800D01*
X71431632Y-92517275D01*
X71638475Y-92310432D01*
X71800990Y-92067211D01*
X71912932Y-91796958D01*
X71970000Y-91510060D01*
X71970000Y-91217540D01*
X71954232Y-91138271D01*
X72066066Y-91250104D01*
X72103711Y-91439361D01*
X72181732Y-91627719D01*
X72295000Y-91797237D01*
X72439163Y-91941400D01*
X72608681Y-92054668D01*
X72797039Y-92132689D01*
X72996998Y-92172463D01*
X73200876Y-92172463D01*
X73400835Y-92132689D01*
X73589193Y-92054668D01*
X73758711Y-91941400D01*
X73902874Y-91797237D01*
X74016142Y-91627719D01*
X74094163Y-91439361D01*
X74133937Y-91239402D01*
X74133937Y-91035524D01*
X74094163Y-90835565D01*
X74016142Y-90647207D01*
X73902874Y-90477689D01*
X73758711Y-90333526D01*
X73589193Y-90220258D01*
X73400835Y-90142237D01*
X73211579Y-90104592D01*
X71970000Y-88863013D01*
X71970000Y-88677540D01*
X71912932Y-88390642D01*
X71800990Y-88120389D01*
X71638475Y-87877168D01*
X71506620Y-87745313D01*
X71579180Y-87723302D01*
X71689494Y-87664337D01*
X71786185Y-87584985D01*
X71865537Y-87488294D01*
X71924502Y-87377980D01*
X71960812Y-87258282D01*
X71973072Y-87133800D01*
X71970000Y-86569550D01*
X71811250Y-86410800D01*
X70612000Y-86410800D01*
X70612000Y-86430800D01*
X70358000Y-86430800D01*
X70358000Y-86410800D01*
X70338000Y-86410800D01*
X70338000Y-86156800D01*
X70358000Y-86156800D01*
X70358000Y-84957550D01*
X70612000Y-84957550D01*
X70612000Y-86156800D01*
X71811250Y-86156800D01*
X71970000Y-85998050D01*
X71973072Y-85433800D01*
X71970571Y-85408400D01*
X74457928Y-85408400D01*
X74457928Y-87108400D01*
X74470188Y-87232882D01*
X74506498Y-87352580D01*
X74565463Y-87462894D01*
X74644815Y-87559585D01*
X74741506Y-87638937D01*
X74851820Y-87697902D01*
X74924380Y-87719913D01*
X74792525Y-87851768D01*
X74630010Y-88094989D01*
X74518068Y-88365242D01*
X74461000Y-88652140D01*
X74461000Y-88944660D01*
X74518068Y-89231558D01*
X74630010Y-89501811D01*
X74792525Y-89745032D01*
X74999368Y-89951875D01*
X75173760Y-90068400D01*
X74999368Y-90184925D01*
X74792525Y-90391768D01*
X74630010Y-90634989D01*
X74518068Y-90905242D01*
X74461000Y-91192140D01*
X74461000Y-91484660D01*
X74518068Y-91771558D01*
X74630010Y-92041811D01*
X74792525Y-92285032D01*
X74999368Y-92491875D01*
X75242589Y-92654390D01*
X75512842Y-92766332D01*
X75799740Y-92823400D01*
X76092260Y-92823400D01*
X76379158Y-92766332D01*
X76649411Y-92654390D01*
X76892632Y-92491875D01*
X77099475Y-92285032D01*
X77261990Y-92041811D01*
X77373932Y-91771558D01*
X77431000Y-91484660D01*
X77431000Y-91192140D01*
X77373932Y-90905242D01*
X77261990Y-90634989D01*
X77099475Y-90391768D01*
X76892632Y-90184925D01*
X76718240Y-90068400D01*
X76892632Y-89951875D01*
X77099475Y-89745032D01*
X77261990Y-89501811D01*
X77373932Y-89231558D01*
X77431000Y-88944660D01*
X77431000Y-88652140D01*
X77422184Y-88607819D01*
X79243400Y-88607819D01*
X79243400Y-88988981D01*
X79317761Y-89362819D01*
X79463625Y-89714966D01*
X79675387Y-90031891D01*
X79944909Y-90301413D01*
X80261834Y-90513175D01*
X80613981Y-90659039D01*
X80987819Y-90733400D01*
X81368981Y-90733400D01*
X81742819Y-90659039D01*
X82094966Y-90513175D01*
X82411891Y-90301413D01*
X82614904Y-90098400D01*
X84320328Y-90098400D01*
X84332588Y-90222882D01*
X84368898Y-90342580D01*
X84427863Y-90452894D01*
X84507215Y-90549585D01*
X84603906Y-90628937D01*
X84714220Y-90687902D01*
X84833918Y-90724212D01*
X84958400Y-90736472D01*
X85972650Y-90733400D01*
X86131400Y-90574650D01*
X86131400Y-88925400D01*
X86385400Y-88925400D01*
X86385400Y-90574650D01*
X86544150Y-90733400D01*
X87558400Y-90736472D01*
X87682882Y-90724212D01*
X87802580Y-90687902D01*
X87912894Y-90628937D01*
X88009585Y-90549585D01*
X88088937Y-90452894D01*
X88147902Y-90342580D01*
X88184212Y-90222882D01*
X88196472Y-90098400D01*
X88193400Y-89084150D01*
X88034650Y-88925400D01*
X86385400Y-88925400D01*
X86131400Y-88925400D01*
X84482150Y-88925400D01*
X84323400Y-89084150D01*
X84320328Y-90098400D01*
X82614904Y-90098400D01*
X82681413Y-90031891D01*
X82893175Y-89714966D01*
X83039039Y-89362819D01*
X83113400Y-88988981D01*
X83113400Y-88607819D01*
X83039039Y-88233981D01*
X82893175Y-87881834D01*
X82681413Y-87564909D01*
X82614904Y-87498400D01*
X84320328Y-87498400D01*
X84323400Y-88512650D01*
X84482150Y-88671400D01*
X86131400Y-88671400D01*
X86131400Y-87022150D01*
X86385400Y-87022150D01*
X86385400Y-88671400D01*
X88034650Y-88671400D01*
X88193400Y-88512650D01*
X88196472Y-87498400D01*
X88184212Y-87373918D01*
X88147902Y-87254220D01*
X88088937Y-87143906D01*
X88009585Y-87047215D01*
X87912894Y-86967863D01*
X87802580Y-86908898D01*
X87682882Y-86872588D01*
X87558400Y-86860328D01*
X86544150Y-86863400D01*
X86385400Y-87022150D01*
X86131400Y-87022150D01*
X85972650Y-86863400D01*
X84958400Y-86860328D01*
X84833918Y-86872588D01*
X84714220Y-86908898D01*
X84603906Y-86967863D01*
X84507215Y-87047215D01*
X84427863Y-87143906D01*
X84368898Y-87254220D01*
X84332588Y-87373918D01*
X84320328Y-87498400D01*
X82614904Y-87498400D01*
X82411891Y-87295387D01*
X82094966Y-87083625D01*
X81742819Y-86937761D01*
X81368981Y-86863400D01*
X80987819Y-86863400D01*
X80613981Y-86937761D01*
X80261834Y-87083625D01*
X79944909Y-87295387D01*
X79675387Y-87564909D01*
X79463625Y-87881834D01*
X79317761Y-88233981D01*
X79243400Y-88607819D01*
X77422184Y-88607819D01*
X77373932Y-88365242D01*
X77261990Y-88094989D01*
X77099475Y-87851768D01*
X76967620Y-87719913D01*
X77040180Y-87697902D01*
X77150494Y-87638937D01*
X77247185Y-87559585D01*
X77326537Y-87462894D01*
X77385502Y-87352580D01*
X77421812Y-87232882D01*
X77434072Y-87108400D01*
X77434072Y-85408400D01*
X77421812Y-85283918D01*
X77385502Y-85164220D01*
X77326537Y-85053906D01*
X77247185Y-84957215D01*
X77150494Y-84877863D01*
X77040180Y-84818898D01*
X76920482Y-84782588D01*
X76796000Y-84770328D01*
X75096000Y-84770328D01*
X74971518Y-84782588D01*
X74851820Y-84818898D01*
X74741506Y-84877863D01*
X74644815Y-84957215D01*
X74565463Y-85053906D01*
X74506498Y-85164220D01*
X74470188Y-85283918D01*
X74457928Y-85408400D01*
X71970571Y-85408400D01*
X71960812Y-85309318D01*
X71924502Y-85189620D01*
X71865537Y-85079306D01*
X71786185Y-84982615D01*
X71689494Y-84903263D01*
X71579180Y-84844298D01*
X71459482Y-84807988D01*
X71335000Y-84795728D01*
X70770750Y-84798800D01*
X70612000Y-84957550D01*
X70358000Y-84957550D01*
X70199250Y-84798800D01*
X69635000Y-84795728D01*
X69510518Y-84807988D01*
X69508222Y-84808684D01*
X69505280Y-84778812D01*
X69458963Y-84626127D01*
X69416962Y-84547549D01*
X69383749Y-84485410D01*
X69326309Y-84415420D01*
X69282528Y-84362072D01*
X69251619Y-84336706D01*
X68783713Y-83868800D01*
X89770466Y-83868800D01*
X89669266Y-83992113D01*
X89517492Y-84276061D01*
X89424030Y-84584164D01*
X89392472Y-84904580D01*
X89424030Y-85224996D01*
X89517492Y-85533099D01*
X89669266Y-85817047D01*
X89873519Y-86065931D01*
X90005909Y-86174580D01*
X89873519Y-86283229D01*
X89669266Y-86532113D01*
X89517492Y-86816061D01*
X89424030Y-87124164D01*
X89392472Y-87444580D01*
X89424030Y-87764996D01*
X89517492Y-88073099D01*
X89669266Y-88357047D01*
X89873519Y-88605931D01*
X90005909Y-88714580D01*
X89873519Y-88823229D01*
X89669266Y-89072113D01*
X89517492Y-89356061D01*
X89424030Y-89664164D01*
X89392472Y-89984580D01*
X89424030Y-90304996D01*
X89517492Y-90613099D01*
X89669266Y-90897047D01*
X89873519Y-91145931D01*
X90005909Y-91254580D01*
X89873519Y-91363229D01*
X89669266Y-91612113D01*
X89517492Y-91896061D01*
X89424030Y-92204164D01*
X89392472Y-92524580D01*
X89424030Y-92844996D01*
X89517492Y-93153099D01*
X89669266Y-93437047D01*
X89873519Y-93685931D01*
X90005909Y-93794580D01*
X89873519Y-93903229D01*
X89669266Y-94152113D01*
X89517492Y-94436061D01*
X89424030Y-94744164D01*
X89392472Y-95064580D01*
X89424030Y-95384996D01*
X89517492Y-95693099D01*
X89669266Y-95977047D01*
X89873519Y-96225931D01*
X90005909Y-96334580D01*
X89873519Y-96443229D01*
X89669266Y-96692113D01*
X89517492Y-96976061D01*
X89424030Y-97284164D01*
X89392472Y-97604580D01*
X89424030Y-97924996D01*
X89517492Y-98233099D01*
X89669266Y-98517047D01*
X89873519Y-98765931D01*
X90005909Y-98874580D01*
X89873519Y-98983229D01*
X89669266Y-99232113D01*
X89517492Y-99516061D01*
X89424030Y-99824164D01*
X89392472Y-100144580D01*
X89424030Y-100464996D01*
X89517492Y-100773099D01*
X89669266Y-101057047D01*
X89873519Y-101305931D01*
X90122403Y-101510184D01*
X90406351Y-101661958D01*
X90714454Y-101755420D01*
X90954578Y-101779070D01*
X91864462Y-101779070D01*
X92104586Y-101755420D01*
X92412689Y-101661958D01*
X92696637Y-101510184D01*
X92945521Y-101305931D01*
X93149774Y-101057047D01*
X93301548Y-100773099D01*
X93395010Y-100464996D01*
X93426568Y-100144580D01*
X93395010Y-99824164D01*
X93301548Y-99516061D01*
X93149774Y-99232113D01*
X92945521Y-98983229D01*
X92813131Y-98874580D01*
X92945521Y-98765931D01*
X93149774Y-98517047D01*
X93301548Y-98233099D01*
X93395010Y-97924996D01*
X93426568Y-97604580D01*
X93395010Y-97284164D01*
X93301548Y-96976061D01*
X93149774Y-96692113D01*
X92945521Y-96443229D01*
X92813131Y-96334580D01*
X92945521Y-96225931D01*
X93149774Y-95977047D01*
X93301548Y-95693099D01*
X93395010Y-95384996D01*
X93426568Y-95064580D01*
X93395010Y-94744164D01*
X93301548Y-94436061D01*
X93149774Y-94152113D01*
X92945521Y-93903229D01*
X92813131Y-93794580D01*
X92945521Y-93685931D01*
X93149774Y-93437047D01*
X93231270Y-93284580D01*
X93264498Y-93284580D01*
X93301820Y-93288256D01*
X93339142Y-93284580D01*
X93339153Y-93284580D01*
X93450806Y-93273583D01*
X93594067Y-93230126D01*
X93726096Y-93159554D01*
X93841821Y-93064581D01*
X93865624Y-93035577D01*
X95847363Y-91053839D01*
X95876361Y-91030041D01*
X95921902Y-90974549D01*
X95971334Y-90914317D01*
X96041906Y-90782287D01*
X96053344Y-90744580D01*
X96085363Y-90639026D01*
X96096360Y-90527373D01*
X96096360Y-90527364D01*
X96100036Y-90490041D01*
X96096360Y-90452718D01*
X96096360Y-89984580D01*
X105557032Y-89984580D01*
X105588590Y-90304996D01*
X105682052Y-90613099D01*
X105833826Y-90897047D01*
X106038079Y-91145931D01*
X106170469Y-91254580D01*
X106038079Y-91363229D01*
X105833826Y-91612113D01*
X105682052Y-91896061D01*
X105588590Y-92204164D01*
X105557032Y-92524580D01*
X105588590Y-92844996D01*
X105682052Y-93153099D01*
X105833826Y-93437047D01*
X106038079Y-93685931D01*
X106170469Y-93794580D01*
X106038079Y-93903229D01*
X105833826Y-94152113D01*
X105682052Y-94436061D01*
X105588590Y-94744164D01*
X105557032Y-95064580D01*
X105588590Y-95384996D01*
X105682052Y-95693099D01*
X105833826Y-95977047D01*
X106038079Y-96225931D01*
X106170469Y-96334580D01*
X106038079Y-96443229D01*
X105833826Y-96692113D01*
X105682052Y-96976061D01*
X105588590Y-97284164D01*
X105557032Y-97604580D01*
X105588590Y-97924996D01*
X105682052Y-98233099D01*
X105833826Y-98517047D01*
X106038079Y-98765931D01*
X106170469Y-98874580D01*
X106038079Y-98983229D01*
X105833826Y-99232113D01*
X105682052Y-99516061D01*
X105588590Y-99824164D01*
X105557032Y-100144580D01*
X105588590Y-100464996D01*
X105682052Y-100773099D01*
X105833826Y-101057047D01*
X106038079Y-101305931D01*
X106286963Y-101510184D01*
X106570911Y-101661958D01*
X106879014Y-101755420D01*
X107119138Y-101779070D01*
X108029022Y-101779070D01*
X108269146Y-101755420D01*
X108577249Y-101661958D01*
X108663201Y-101616016D01*
X108663201Y-102140888D01*
X108593863Y-102210226D01*
X108480595Y-102379744D01*
X108402574Y-102568102D01*
X108362800Y-102768061D01*
X108362800Y-102971939D01*
X108402574Y-103171898D01*
X108480595Y-103360256D01*
X108593863Y-103529774D01*
X108738026Y-103673937D01*
X108907544Y-103787205D01*
X109095902Y-103865226D01*
X109295861Y-103905000D01*
X109499739Y-103905000D01*
X109699698Y-103865226D01*
X109888056Y-103787205D01*
X109888735Y-103786751D01*
X109860200Y-103930208D01*
X109860200Y-104205392D01*
X109913886Y-104475290D01*
X110019195Y-104729527D01*
X110172080Y-104958335D01*
X110366665Y-105152920D01*
X110454665Y-105211720D01*
X110370718Y-105219988D01*
X110251020Y-105256298D01*
X110140706Y-105315263D01*
X110044015Y-105394615D01*
X109964663Y-105491306D01*
X109905698Y-105601620D01*
X109869388Y-105721318D01*
X109857128Y-105845800D01*
X109857128Y-107369800D01*
X109869388Y-107494282D01*
X109905698Y-107613980D01*
X109964663Y-107724294D01*
X110044015Y-107820985D01*
X110140706Y-107900337D01*
X110251020Y-107959302D01*
X110370718Y-107995612D01*
X110495200Y-108007872D01*
X112019200Y-108007872D01*
X112143682Y-107995612D01*
X112263380Y-107959302D01*
X112373694Y-107900337D01*
X112470385Y-107820985D01*
X112549737Y-107724294D01*
X112608702Y-107613980D01*
X112645012Y-107494282D01*
X112657272Y-107369800D01*
X112657272Y-105845800D01*
X112645012Y-105721318D01*
X112608702Y-105601620D01*
X112549737Y-105491306D01*
X112470385Y-105394615D01*
X112373694Y-105315263D01*
X112263380Y-105256298D01*
X112143682Y-105219988D01*
X112059735Y-105211720D01*
X112147735Y-105152920D01*
X112342320Y-104958335D01*
X112495205Y-104729527D01*
X112600514Y-104475290D01*
X112654200Y-104205392D01*
X112654200Y-103930208D01*
X112600514Y-103660310D01*
X112495205Y-103406073D01*
X112342320Y-103177265D01*
X112147735Y-102982680D01*
X111918927Y-102829795D01*
X111841685Y-102797800D01*
X111918927Y-102765805D01*
X112147735Y-102612920D01*
X112342320Y-102418335D01*
X112495205Y-102189527D01*
X112600514Y-101935290D01*
X112654200Y-101665392D01*
X112654200Y-101390208D01*
X112600514Y-101120310D01*
X112495205Y-100866073D01*
X112342320Y-100637265D01*
X112147735Y-100442680D01*
X111918927Y-100289795D01*
X111841685Y-100257800D01*
X111918927Y-100225805D01*
X112147735Y-100072920D01*
X112342320Y-99878335D01*
X112495205Y-99649527D01*
X112600514Y-99395290D01*
X112654200Y-99125392D01*
X112654200Y-98850208D01*
X112600514Y-98580310D01*
X112495205Y-98326073D01*
X112342320Y-98097265D01*
X112147735Y-97902680D01*
X111918927Y-97749795D01*
X111664690Y-97644486D01*
X111394792Y-97590800D01*
X111119608Y-97590800D01*
X110849710Y-97644486D01*
X110595473Y-97749795D01*
X110366665Y-97902680D01*
X110183200Y-98086145D01*
X110183200Y-95338133D01*
X110186877Y-95300800D01*
X110172203Y-95151814D01*
X110128746Y-95008554D01*
X110128746Y-95008553D01*
X110058174Y-94876524D01*
X109963201Y-94760799D01*
X109934198Y-94736997D01*
X109750784Y-94553583D01*
X109726981Y-94524579D01*
X109611256Y-94429606D01*
X109479227Y-94359034D01*
X109414430Y-94339378D01*
X109314334Y-94152113D01*
X109110081Y-93903229D01*
X108977691Y-93794580D01*
X109110081Y-93685931D01*
X109314334Y-93437047D01*
X109466108Y-93153099D01*
X109559570Y-92844996D01*
X109591128Y-92524580D01*
X109559570Y-92204164D01*
X109466108Y-91896061D01*
X109314334Y-91612113D01*
X109110081Y-91363229D01*
X108977691Y-91254580D01*
X109110081Y-91145931D01*
X109314334Y-90897047D01*
X109466108Y-90613099D01*
X109559570Y-90304996D01*
X109591128Y-89984580D01*
X109559570Y-89664164D01*
X109466108Y-89356061D01*
X109314334Y-89072113D01*
X109110081Y-88823229D01*
X108979825Y-88716331D01*
X109194292Y-88510536D01*
X109378317Y-88247057D01*
X109507403Y-87952739D01*
X109538349Y-87824934D01*
X109418995Y-87571580D01*
X107701080Y-87571580D01*
X107701080Y-87591580D01*
X107447080Y-87591580D01*
X107447080Y-87571580D01*
X105729165Y-87571580D01*
X105609811Y-87824934D01*
X105640757Y-87952739D01*
X105769843Y-88247057D01*
X105953868Y-88510536D01*
X106168335Y-88716331D01*
X106038079Y-88823229D01*
X105833826Y-89072113D01*
X105682052Y-89356061D01*
X105588590Y-89664164D01*
X105557032Y-89984580D01*
X96096360Y-89984580D01*
X96096360Y-83946842D01*
X96555402Y-83487800D01*
X106382706Y-83487800D01*
X106286963Y-83538976D01*
X106038079Y-83743229D01*
X105833826Y-83992113D01*
X105682052Y-84276061D01*
X105588590Y-84584164D01*
X105557032Y-84904580D01*
X105588590Y-85224996D01*
X105682052Y-85533099D01*
X105833826Y-85817047D01*
X106038079Y-86065931D01*
X106168335Y-86172829D01*
X105953868Y-86378624D01*
X105769843Y-86642103D01*
X105640757Y-86936421D01*
X105609811Y-87064226D01*
X105729165Y-87317580D01*
X107447080Y-87317580D01*
X107447080Y-87297580D01*
X107701080Y-87297580D01*
X107701080Y-87317580D01*
X109418995Y-87317580D01*
X109538349Y-87064226D01*
X109507403Y-86936421D01*
X109378317Y-86642103D01*
X109194292Y-86378624D01*
X108979825Y-86172829D01*
X109110081Y-86065931D01*
X109314334Y-85817047D01*
X109466108Y-85533099D01*
X109559570Y-85224996D01*
X109591128Y-84904580D01*
X109559570Y-84584164D01*
X109466108Y-84276061D01*
X109314334Y-83992113D01*
X109110081Y-83743229D01*
X108861197Y-83538976D01*
X108765454Y-83487800D01*
X112275489Y-83487800D01*
X112344826Y-83557137D01*
X112514344Y-83670405D01*
X112702702Y-83748426D01*
X112902661Y-83788200D01*
X113106539Y-83788200D01*
X113306498Y-83748426D01*
X113494856Y-83670405D01*
X113664374Y-83557137D01*
X113808537Y-83412974D01*
X113921805Y-83243456D01*
X113999826Y-83055098D01*
X114039600Y-82855139D01*
X114039600Y-82651261D01*
X114039588Y-82651200D01*
X114198800Y-82651200D01*
X114198801Y-123088800D01*
G37*
%TD.AperFunction*%
%TD*%
M02*
