%TF.GenerationSoftware,KiCad,Pcbnew,5.1.10-88a1d61d58~90~ubuntu20.04.1*%
%TF.CreationDate,2021-09-24T14:34:36-04:00*%
%TF.ProjectId,VoltageCurrentMeter,566f6c74-6167-4654-9375-7272656e744d,rev?*%
%TF.SameCoordinates,Original*%
%TF.FileFunction,Legend,Bot*%
%TF.FilePolarity,Positive*%
%FSLAX46Y46*%
G04 Gerber Fmt 4.6, Leading zero omitted, Abs format (unit mm)*
G04 Created by KiCad (PCBNEW 5.1.10-88a1d61d58~90~ubuntu20.04.1) date 2021-09-24 14:34:36*
%MOMM*%
%LPD*%
G01*
G04 APERTURE LIST*
%ADD10C,0.120000*%
%ADD11C,0.150000*%
G04 APERTURE END LIST*
D10*
%TO.C,U2*%
X55327800Y-89097800D02*
X52327800Y-89097800D01*
X52247800Y-116997800D02*
X52247800Y-89097800D01*
X55327800Y-116997800D02*
X55327800Y-89097800D01*
X55327800Y-116997800D02*
X52327800Y-116997800D01*
X51257200Y-122097800D02*
X113807200Y-122097800D01*
X113807200Y-122097800D02*
X113807200Y-83897800D01*
X51257200Y-83897800D02*
X113807200Y-83897800D01*
X51257200Y-122097800D02*
X51257200Y-83897800D01*
X109757200Y-107904280D02*
X112757200Y-107904280D01*
X112757200Y-107904280D02*
X112757200Y-97723960D01*
X112757200Y-97723960D02*
X109757200Y-97723960D01*
X109757200Y-97723960D02*
X109757200Y-107904280D01*
X56892200Y-121837800D02*
X56892200Y-84157800D01*
X108172200Y-121837800D02*
X108172200Y-84157800D01*
X56892200Y-121837800D02*
X108172200Y-121837800D01*
X56892200Y-84157800D02*
X108172200Y-84157800D01*
X57892200Y-120837800D02*
X57892200Y-85157800D01*
X57892200Y-120837800D02*
X105172200Y-120837800D01*
X57892200Y-85157800D02*
X105172200Y-85157800D01*
X105172200Y-120837800D02*
X105172200Y-117837800D01*
X105172200Y-88157800D02*
X105172200Y-85157800D01*
X105172200Y-117837800D02*
X108172200Y-117837800D01*
X105172200Y-88157800D02*
X108172200Y-88157800D01*
D11*
X54559104Y-85863180D02*
X54559104Y-86672704D01*
X54511485Y-86767942D01*
X54463866Y-86815561D01*
X54368628Y-86863180D01*
X54178152Y-86863180D01*
X54082914Y-86815561D01*
X54035295Y-86767942D01*
X53987676Y-86672704D01*
X53987676Y-85863180D01*
X53559104Y-85958419D02*
X53511485Y-85910800D01*
X53416247Y-85863180D01*
X53178152Y-85863180D01*
X53082914Y-85910800D01*
X53035295Y-85958419D01*
X52987676Y-86053657D01*
X52987676Y-86148895D01*
X53035295Y-86291752D01*
X53606723Y-86863180D01*
X52987676Y-86863180D01*
X58030414Y-89844782D02*
X57730414Y-90744782D01*
X57430414Y-89844782D01*
X56616128Y-90659068D02*
X56658985Y-90701925D01*
X56787557Y-90744782D01*
X56873271Y-90744782D01*
X57001842Y-90701925D01*
X57087557Y-90616211D01*
X57130414Y-90530497D01*
X57173271Y-90359068D01*
X57173271Y-90230497D01*
X57130414Y-90059068D01*
X57087557Y-89973354D01*
X57001842Y-89887640D01*
X56873271Y-89844782D01*
X56787557Y-89844782D01*
X56658985Y-89887640D01*
X56616128Y-89930497D01*
X55716128Y-90659068D02*
X55758985Y-90701925D01*
X55887557Y-90744782D01*
X55973271Y-90744782D01*
X56101842Y-90701925D01*
X56187557Y-90616211D01*
X56230414Y-90530497D01*
X56273271Y-90359068D01*
X56273271Y-90230497D01*
X56230414Y-90059068D01*
X56187557Y-89973354D01*
X56101842Y-89887640D01*
X55973271Y-89844782D01*
X55887557Y-89844782D01*
X55758985Y-89887640D01*
X55716128Y-89930497D01*
X57601842Y-92468280D02*
X57687557Y-92425422D01*
X57816128Y-92425422D01*
X57944700Y-92468280D01*
X58030414Y-92553994D01*
X58073271Y-92639708D01*
X58116128Y-92811137D01*
X58116128Y-92939708D01*
X58073271Y-93111137D01*
X58030414Y-93196851D01*
X57944700Y-93282565D01*
X57816128Y-93325422D01*
X57730414Y-93325422D01*
X57601842Y-93282565D01*
X57558985Y-93239708D01*
X57558985Y-92939708D01*
X57730414Y-92939708D01*
X57173271Y-93325422D02*
X57173271Y-92425422D01*
X56658985Y-93325422D01*
X56658985Y-92425422D01*
X56230414Y-93325422D02*
X56230414Y-92425422D01*
X56016128Y-92425422D01*
X55887557Y-92468280D01*
X55801842Y-92553994D01*
X55758985Y-92639708D01*
X55716128Y-92811137D01*
X55716128Y-92939708D01*
X55758985Y-93111137D01*
X55801842Y-93196851D01*
X55887557Y-93282565D01*
X56016128Y-93325422D01*
X56230414Y-93325422D01*
X57601842Y-94901600D02*
X57687557Y-94858742D01*
X57816128Y-94858742D01*
X57944700Y-94901600D01*
X58030414Y-94987314D01*
X58073271Y-95073028D01*
X58116128Y-95244457D01*
X58116128Y-95373028D01*
X58073271Y-95544457D01*
X58030414Y-95630171D01*
X57944700Y-95715885D01*
X57816128Y-95758742D01*
X57730414Y-95758742D01*
X57601842Y-95715885D01*
X57558985Y-95673028D01*
X57558985Y-95373028D01*
X57730414Y-95373028D01*
X57173271Y-95758742D02*
X57173271Y-94858742D01*
X56658985Y-95758742D01*
X56658985Y-94858742D01*
X56230414Y-95758742D02*
X56230414Y-94858742D01*
X56016128Y-94858742D01*
X55887557Y-94901600D01*
X55801842Y-94987314D01*
X55758985Y-95073028D01*
X55716128Y-95244457D01*
X55716128Y-95373028D01*
X55758985Y-95544457D01*
X55801842Y-95630171D01*
X55887557Y-95715885D01*
X56016128Y-95758742D01*
X56230414Y-95758742D01*
X57173271Y-98344462D02*
X57173271Y-97444462D01*
X56658985Y-98344462D01*
X56658985Y-97444462D01*
X55716128Y-98258748D02*
X55758985Y-98301605D01*
X55887557Y-98344462D01*
X55973271Y-98344462D01*
X56101842Y-98301605D01*
X56187557Y-98215891D01*
X56230414Y-98130177D01*
X56273271Y-97958748D01*
X56273271Y-97830177D01*
X56230414Y-97658748D01*
X56187557Y-97573034D01*
X56101842Y-97487320D01*
X55973271Y-97444462D01*
X55887557Y-97444462D01*
X55758985Y-97487320D01*
X55716128Y-97530177D01*
X57173271Y-100823502D02*
X57173271Y-99923502D01*
X56658985Y-100823502D01*
X56658985Y-99923502D01*
X55716128Y-100737788D02*
X55758985Y-100780645D01*
X55887557Y-100823502D01*
X55973271Y-100823502D01*
X56101842Y-100780645D01*
X56187557Y-100694931D01*
X56230414Y-100609217D01*
X56273271Y-100437788D01*
X56273271Y-100309217D01*
X56230414Y-100137788D01*
X56187557Y-100052074D01*
X56101842Y-99966360D01*
X55973271Y-99923502D01*
X55887557Y-99923502D01*
X55758985Y-99966360D01*
X55716128Y-100009217D01*
X57173271Y-103358422D02*
X57173271Y-102458422D01*
X56658985Y-103358422D01*
X56658985Y-102458422D01*
X55716128Y-103272708D02*
X55758985Y-103315565D01*
X55887557Y-103358422D01*
X55973271Y-103358422D01*
X56101842Y-103315565D01*
X56187557Y-103229851D01*
X56230414Y-103144137D01*
X56273271Y-102972708D01*
X56273271Y-102844137D01*
X56230414Y-102672708D01*
X56187557Y-102586994D01*
X56101842Y-102501280D01*
X55973271Y-102458422D01*
X55887557Y-102458422D01*
X55758985Y-102501280D01*
X55716128Y-102544137D01*
X57344700Y-105756828D02*
X57387557Y-105799685D01*
X57516128Y-105842542D01*
X57601842Y-105842542D01*
X57730414Y-105799685D01*
X57816128Y-105713971D01*
X57858985Y-105628257D01*
X57901842Y-105456828D01*
X57901842Y-105328257D01*
X57858985Y-105156828D01*
X57816128Y-105071114D01*
X57730414Y-104985400D01*
X57601842Y-104942542D01*
X57516128Y-104942542D01*
X57387557Y-104985400D01*
X57344700Y-105028257D01*
X56530414Y-105842542D02*
X56958985Y-105842542D01*
X56958985Y-104942542D01*
X56230414Y-105842542D02*
X56230414Y-104942542D01*
X55716128Y-105842542D02*
X56101842Y-105328257D01*
X55716128Y-104942542D02*
X56230414Y-105456828D01*
X57901842Y-108436205D02*
X57773271Y-108479062D01*
X57558985Y-108479062D01*
X57473271Y-108436205D01*
X57430414Y-108393348D01*
X57387557Y-108307634D01*
X57387557Y-108221920D01*
X57430414Y-108136205D01*
X57473271Y-108093348D01*
X57558985Y-108050491D01*
X57730414Y-108007634D01*
X57816128Y-107964777D01*
X57858985Y-107921920D01*
X57901842Y-107836205D01*
X57901842Y-107750491D01*
X57858985Y-107664777D01*
X57816128Y-107621920D01*
X57730414Y-107579062D01*
X57516128Y-107579062D01*
X57387557Y-107621920D01*
X57001842Y-108479062D02*
X57001842Y-107579062D01*
X56787557Y-107579062D01*
X56658985Y-107621920D01*
X56573271Y-107707634D01*
X56530414Y-107793348D01*
X56487557Y-107964777D01*
X56487557Y-108093348D01*
X56530414Y-108264777D01*
X56573271Y-108350491D01*
X56658985Y-108436205D01*
X56787557Y-108479062D01*
X57001842Y-108479062D01*
X56144700Y-108221920D02*
X55716128Y-108221920D01*
X56230414Y-108479062D02*
X55930414Y-107579062D01*
X55630414Y-108479062D01*
X56573271Y-110907302D02*
X56873271Y-110478731D01*
X57087557Y-110907302D02*
X57087557Y-110007302D01*
X56744700Y-110007302D01*
X56658985Y-110050160D01*
X56616128Y-110093017D01*
X56573271Y-110178731D01*
X56573271Y-110307302D01*
X56616128Y-110393017D01*
X56658985Y-110435874D01*
X56744700Y-110478731D01*
X57087557Y-110478731D01*
X56230414Y-110864445D02*
X56101842Y-110907302D01*
X55887557Y-110907302D01*
X55801842Y-110864445D01*
X55758985Y-110821588D01*
X55716128Y-110735874D01*
X55716128Y-110650160D01*
X55758985Y-110564445D01*
X55801842Y-110521588D01*
X55887557Y-110478731D01*
X56058985Y-110435874D01*
X56144700Y-110393017D01*
X56187557Y-110350160D01*
X56230414Y-110264445D01*
X56230414Y-110178731D01*
X56187557Y-110093017D01*
X56144700Y-110050160D01*
X56058985Y-110007302D01*
X55844700Y-110007302D01*
X55716128Y-110050160D01*
X57258985Y-113493022D02*
X57558985Y-113064451D01*
X57773271Y-113493022D02*
X57773271Y-112593022D01*
X57430414Y-112593022D01*
X57344700Y-112635880D01*
X57301842Y-112678737D01*
X57258985Y-112764451D01*
X57258985Y-112893022D01*
X57301842Y-112978737D01*
X57344700Y-113021594D01*
X57430414Y-113064451D01*
X57773271Y-113064451D01*
X56916128Y-113450165D02*
X56787557Y-113493022D01*
X56573271Y-113493022D01*
X56487557Y-113450165D01*
X56444700Y-113407308D01*
X56401842Y-113321594D01*
X56401842Y-113235880D01*
X56444700Y-113150165D01*
X56487557Y-113107308D01*
X56573271Y-113064451D01*
X56744700Y-113021594D01*
X56830414Y-112978737D01*
X56873271Y-112935880D01*
X56916128Y-112850165D01*
X56916128Y-112764451D01*
X56873271Y-112678737D01*
X56830414Y-112635880D01*
X56744700Y-112593022D01*
X56530414Y-112593022D01*
X56401842Y-112635880D01*
X56144700Y-112593022D02*
X55630414Y-112593022D01*
X55887557Y-113493022D02*
X55887557Y-112593022D01*
X56573271Y-115993028D02*
X56616128Y-116035885D01*
X56744700Y-116078742D01*
X56830414Y-116078742D01*
X56958985Y-116035885D01*
X57044700Y-115950171D01*
X57087557Y-115864457D01*
X57130414Y-115693028D01*
X57130414Y-115564457D01*
X57087557Y-115393028D01*
X57044700Y-115307314D01*
X56958985Y-115221600D01*
X56830414Y-115178742D01*
X56744700Y-115178742D01*
X56616128Y-115221600D01*
X56573271Y-115264457D01*
X56230414Y-116035885D02*
X56101842Y-116078742D01*
X55887557Y-116078742D01*
X55801842Y-116035885D01*
X55758985Y-115993028D01*
X55716128Y-115907314D01*
X55716128Y-115821600D01*
X55758985Y-115735885D01*
X55801842Y-115693028D01*
X55887557Y-115650171D01*
X56058985Y-115607314D01*
X56144700Y-115564457D01*
X56187557Y-115521600D01*
X56230414Y-115435885D01*
X56230414Y-115350171D01*
X56187557Y-115264457D01*
X56144700Y-115221600D01*
X56058985Y-115178742D01*
X55844700Y-115178742D01*
X55716128Y-115221600D01*
X109288271Y-99216005D02*
X109159700Y-99258862D01*
X108945414Y-99258862D01*
X108859700Y-99216005D01*
X108816842Y-99173148D01*
X108773985Y-99087434D01*
X108773985Y-99001720D01*
X108816842Y-98916005D01*
X108859700Y-98873148D01*
X108945414Y-98830291D01*
X109116842Y-98787434D01*
X109202557Y-98744577D01*
X109245414Y-98701720D01*
X109288271Y-98616005D01*
X109288271Y-98530291D01*
X109245414Y-98444577D01*
X109202557Y-98401720D01*
X109116842Y-98358862D01*
X108902557Y-98358862D01*
X108773985Y-98401720D01*
X108388271Y-99258862D02*
X108388271Y-98358862D01*
X108173985Y-98358862D01*
X108045414Y-98401720D01*
X107959700Y-98487434D01*
X107916842Y-98573148D01*
X107873985Y-98744577D01*
X107873985Y-98873148D01*
X107916842Y-99044577D01*
X107959700Y-99130291D01*
X108045414Y-99216005D01*
X108173985Y-99258862D01*
X108388271Y-99258862D01*
X107702557Y-99344577D02*
X107016842Y-99344577D01*
X106802557Y-99258862D02*
X106802557Y-98358862D01*
X106502557Y-99001720D01*
X106202557Y-98358862D01*
X106202557Y-99258862D01*
X105773985Y-99258862D02*
X105773985Y-98358862D01*
X105388271Y-99216005D02*
X105259700Y-99258862D01*
X105045414Y-99258862D01*
X104959700Y-99216005D01*
X104916842Y-99173148D01*
X104873985Y-99087434D01*
X104873985Y-99001720D01*
X104916842Y-98916005D01*
X104959700Y-98873148D01*
X105045414Y-98830291D01*
X105216842Y-98787434D01*
X105302557Y-98744577D01*
X105345414Y-98701720D01*
X105388271Y-98616005D01*
X105388271Y-98530291D01*
X105345414Y-98444577D01*
X105302557Y-98401720D01*
X105216842Y-98358862D01*
X105002557Y-98358862D01*
X104873985Y-98401720D01*
X104316842Y-98358862D02*
X104145414Y-98358862D01*
X104059700Y-98401720D01*
X103973985Y-98487434D01*
X103931128Y-98658862D01*
X103931128Y-98958862D01*
X103973985Y-99130291D01*
X104059700Y-99216005D01*
X104145414Y-99258862D01*
X104316842Y-99258862D01*
X104402557Y-99216005D01*
X104488271Y-99130291D01*
X104531128Y-98958862D01*
X104531128Y-98658862D01*
X104488271Y-98487434D01*
X104402557Y-98401720D01*
X104316842Y-98358862D01*
X109288271Y-101862685D02*
X109159700Y-101905542D01*
X108945414Y-101905542D01*
X108859700Y-101862685D01*
X108816842Y-101819828D01*
X108773985Y-101734114D01*
X108773985Y-101648400D01*
X108816842Y-101562685D01*
X108859700Y-101519828D01*
X108945414Y-101476971D01*
X109116842Y-101434114D01*
X109202557Y-101391257D01*
X109245414Y-101348400D01*
X109288271Y-101262685D01*
X109288271Y-101176971D01*
X109245414Y-101091257D01*
X109202557Y-101048400D01*
X109116842Y-101005542D01*
X108902557Y-101005542D01*
X108773985Y-101048400D01*
X108388271Y-101905542D02*
X108388271Y-101005542D01*
X108173985Y-101005542D01*
X108045414Y-101048400D01*
X107959700Y-101134114D01*
X107916842Y-101219828D01*
X107873985Y-101391257D01*
X107873985Y-101519828D01*
X107916842Y-101691257D01*
X107959700Y-101776971D01*
X108045414Y-101862685D01*
X108173985Y-101905542D01*
X108388271Y-101905542D01*
X107702557Y-101991257D02*
X107016842Y-101991257D01*
X106845414Y-101862685D02*
X106716842Y-101905542D01*
X106502557Y-101905542D01*
X106416842Y-101862685D01*
X106373985Y-101819828D01*
X106331128Y-101734114D01*
X106331128Y-101648400D01*
X106373985Y-101562685D01*
X106416842Y-101519828D01*
X106502557Y-101476971D01*
X106673985Y-101434114D01*
X106759700Y-101391257D01*
X106802557Y-101348400D01*
X106845414Y-101262685D01*
X106845414Y-101176971D01*
X106802557Y-101091257D01*
X106759700Y-101048400D01*
X106673985Y-101005542D01*
X106459700Y-101005542D01*
X106331128Y-101048400D01*
X105431128Y-101819828D02*
X105473985Y-101862685D01*
X105602557Y-101905542D01*
X105688271Y-101905542D01*
X105816842Y-101862685D01*
X105902557Y-101776971D01*
X105945414Y-101691257D01*
X105988271Y-101519828D01*
X105988271Y-101391257D01*
X105945414Y-101219828D01*
X105902557Y-101134114D01*
X105816842Y-101048400D01*
X105688271Y-101005542D01*
X105602557Y-101005542D01*
X105473985Y-101048400D01*
X105431128Y-101091257D01*
X105045414Y-101905542D02*
X105045414Y-101005542D01*
X104531128Y-101905542D02*
X104916842Y-101391257D01*
X104531128Y-101005542D02*
X105045414Y-101519828D01*
X109288271Y-104341725D02*
X109159700Y-104384582D01*
X108945414Y-104384582D01*
X108859700Y-104341725D01*
X108816842Y-104298868D01*
X108773985Y-104213154D01*
X108773985Y-104127440D01*
X108816842Y-104041725D01*
X108859700Y-103998868D01*
X108945414Y-103956011D01*
X109116842Y-103913154D01*
X109202557Y-103870297D01*
X109245414Y-103827440D01*
X109288271Y-103741725D01*
X109288271Y-103656011D01*
X109245414Y-103570297D01*
X109202557Y-103527440D01*
X109116842Y-103484582D01*
X108902557Y-103484582D01*
X108773985Y-103527440D01*
X108388271Y-104384582D02*
X108388271Y-103484582D01*
X108173985Y-103484582D01*
X108045414Y-103527440D01*
X107959700Y-103613154D01*
X107916842Y-103698868D01*
X107873985Y-103870297D01*
X107873985Y-103998868D01*
X107916842Y-104170297D01*
X107959700Y-104256011D01*
X108045414Y-104341725D01*
X108173985Y-104384582D01*
X108388271Y-104384582D01*
X107702557Y-104470297D02*
X107016842Y-104470297D01*
X106802557Y-104384582D02*
X106802557Y-103484582D01*
X106502557Y-104127440D01*
X106202557Y-103484582D01*
X106202557Y-104384582D01*
X105602557Y-103484582D02*
X105431128Y-103484582D01*
X105345414Y-103527440D01*
X105259700Y-103613154D01*
X105216842Y-103784582D01*
X105216842Y-104084582D01*
X105259700Y-104256011D01*
X105345414Y-104341725D01*
X105431128Y-104384582D01*
X105602557Y-104384582D01*
X105688271Y-104341725D01*
X105773985Y-104256011D01*
X105816842Y-104084582D01*
X105816842Y-103784582D01*
X105773985Y-103613154D01*
X105688271Y-103527440D01*
X105602557Y-103484582D01*
X104873985Y-104341725D02*
X104745414Y-104384582D01*
X104531128Y-104384582D01*
X104445414Y-104341725D01*
X104402557Y-104298868D01*
X104359700Y-104213154D01*
X104359700Y-104127440D01*
X104402557Y-104041725D01*
X104445414Y-103998868D01*
X104531128Y-103956011D01*
X104702557Y-103913154D01*
X104788271Y-103870297D01*
X104831128Y-103827440D01*
X104873985Y-103741725D01*
X104873985Y-103656011D01*
X104831128Y-103570297D01*
X104788271Y-103527440D01*
X104702557Y-103484582D01*
X104488271Y-103484582D01*
X104359700Y-103527440D01*
X103973985Y-104384582D02*
X103973985Y-103484582D01*
X109288271Y-106876645D02*
X109159700Y-106919502D01*
X108945414Y-106919502D01*
X108859700Y-106876645D01*
X108816842Y-106833788D01*
X108773985Y-106748074D01*
X108773985Y-106662360D01*
X108816842Y-106576645D01*
X108859700Y-106533788D01*
X108945414Y-106490931D01*
X109116842Y-106448074D01*
X109202557Y-106405217D01*
X109245414Y-106362360D01*
X109288271Y-106276645D01*
X109288271Y-106190931D01*
X109245414Y-106105217D01*
X109202557Y-106062360D01*
X109116842Y-106019502D01*
X108902557Y-106019502D01*
X108773985Y-106062360D01*
X108388271Y-106919502D02*
X108388271Y-106019502D01*
X108173985Y-106019502D01*
X108045414Y-106062360D01*
X107959700Y-106148074D01*
X107916842Y-106233788D01*
X107873985Y-106405217D01*
X107873985Y-106533788D01*
X107916842Y-106705217D01*
X107959700Y-106790931D01*
X108045414Y-106876645D01*
X108173985Y-106919502D01*
X108388271Y-106919502D01*
X107702557Y-107005217D02*
X107016842Y-107005217D01*
X106288271Y-106833788D02*
X106331128Y-106876645D01*
X106459700Y-106919502D01*
X106545414Y-106919502D01*
X106673985Y-106876645D01*
X106759700Y-106790931D01*
X106802557Y-106705217D01*
X106845414Y-106533788D01*
X106845414Y-106405217D01*
X106802557Y-106233788D01*
X106759700Y-106148074D01*
X106673985Y-106062360D01*
X106545414Y-106019502D01*
X106459700Y-106019502D01*
X106331128Y-106062360D01*
X106288271Y-106105217D01*
X105945414Y-106876645D02*
X105816842Y-106919502D01*
X105602557Y-106919502D01*
X105516842Y-106876645D01*
X105473985Y-106833788D01*
X105431128Y-106748074D01*
X105431128Y-106662360D01*
X105473985Y-106576645D01*
X105516842Y-106533788D01*
X105602557Y-106490931D01*
X105773985Y-106448074D01*
X105859700Y-106405217D01*
X105902557Y-106362360D01*
X105945414Y-106276645D01*
X105945414Y-106190931D01*
X105902557Y-106105217D01*
X105859700Y-106062360D01*
X105773985Y-106019502D01*
X105559700Y-106019502D01*
X105431128Y-106062360D01*
%TD*%
M02*
